<svg id="Capa_1" xmlns="http://www.w3.org/2000/svg" xmlns:xlink="http://www.w3.org/1999/xlink" viewBox="0 0 300 300" enable-background="new 0 0 300 300"><style>.st0{fill:#163c66}.st1,.st2{opacity:.26;fill:#fff}.st2{opacity:.58}.st3,.st4{opacity:.87;fill:#fff}.st4{opacity:.82}.st5,.st6{opacity:.62;fill:#fff}.st6{opacity:.84}.st7,.st8{opacity:.75;fill:#fff}.st8{opacity:.78}.st9{opacity:.15;fill:#002f7a}.st10,.st11{opacity:.37;fill:#00b9b9}.st11{opacity:.1}.st12{clip-path:url(#SVGID_2_)}.st13{fill:#006c7a}.st14{filter:url(#Adobe_OpacityMaskFilter)}.st15{filter:url(#Adobe_OpacityMaskFilter_1_)}.st16,.st17{clip-path:url(#SVGID_2_)}.st16{mask:url(#SVGID_3_);fill:url(#SVGID_4_)}.st17{opacity:.34;fill:url(#SVGID_5_)}.st18{fill:#00b9b9}.st19{fill:#fff}.st20{opacity:.63}.st21{opacity:.61}.st22{fill:#c60}.st23{opacity:.49;fill:#8f3c00}.st24{opacity:.66}.st25,.st26{fill:none;stroke:#fff;stroke-miterlimit:10}.st26{stroke-dasharray:5.0233,5.0233}.st27{opacity:.24}.st27,.st28{fill:#ff6f00}.st29{fill:#fcb500}.st30{fill:#ffde36}.st31{opacity:.6}.st32{fill:none;stroke:#b7c9c7;stroke-width:.5499;stroke-linecap:round;stroke-miterlimit:10}.st33{fill:#f40}.st34{fill:#ed2d0b}.st35{fill:#dedede}.st36{fill:#c2c2c2}.st37{fill:#bdbdbd}.st38{fill:#f0f0f0}.st39{fill:#5bd0d4}.st40{fill:#35a7ab}.st41{fill:none;stroke:#fff;stroke-width:.4063;stroke-linecap:round;stroke-miterlimit:10}.st42{fill:#f60}.st43{fill:#ffd400}.st44{opacity:.85}.st45{fill:#a5cccc}.st46{opacity:.59}.st47{filter:url(#Adobe_OpacityMaskFilter_2_)}.st48{filter:url(#Adobe_OpacityMaskFilter_3_)}.st49{mask:url(#SVGID_6_);fill:url(#SVGID_7_)}.st50{fill:url(#SVGID_8_)}.st51{filter:url(#Adobe_OpacityMaskFilter_4_)}.st52{filter:url(#Adobe_OpacityMaskFilter_5_)}.st53{mask:url(#SVGID_9_);fill:url(#SVGID_10_)}.st54{fill:url(#SVGID_11_)}.st55{filter:url(#Adobe_OpacityMaskFilter_6_)}.st56{filter:url(#Adobe_OpacityMaskFilter_7_)}.st57{mask:url(#SVGID_12_);fill:url(#SVGID_13_)}.st58{fill:url(#SVGID_14_)}.st59{filter:url(#Adobe_OpacityMaskFilter_8_)}.st60{filter:url(#Adobe_OpacityMaskFilter_9_)}.st61{mask:url(#SVGID_15_);fill:url(#SVGID_16_)}.st62{fill:url(#SVGID_17_)}</style><path class="st0" d="M0 0h300v300H0z"/><circle class="st1" cx="59.2" cy="55" r="1"/><circle class="st1" cx="70.8" cy="37.2" r="1.4"/><circle class="st1" cx="130.6" cy="28" r=".7"/><circle class="st2" cx="186.8" cy="30.5" r=".9"/><circle class="st1" cx="232.2" cy="43" r=".8"/><circle class="st1" cx="253.8" cy="68.9" r=".7"/><circle class="st1" cx="251.7" cy="99.1" r=".4"/><circle class="st1" cx="235.1" cy="139.6" r=".7"/><circle class="st1" cx="161.6" cy="177.7" r="2.3"/><circle class="st1" cx="103.9" cy="185.1" r="2"/><circle class="st1" cx="108.5" cy="79.4" r="1.2"/><circle class="st1" cx="64.5" cy="105.2" r=".7"/><circle class="st3" cx="51.9" cy="137.3" r=".7"/><circle class="st1" cx="48.7" cy="184.7" r=".5"/><circle class="st1" cx="56.2" cy="215.3" r=".7"/><circle class="st1" cx="72.1" cy="237.6" r=".8"/><circle class="st1" cx="114.1" cy="254.8" r=".9"/><circle class="st1" cx="152.1" cy="254.5" r=".6"/><circle class="st4" cx="187.5" cy="239.5" r="1.2"/><circle class="st1" cx="207.4" cy="234.1" r="1.2"/><circle class="st5" cx="259" cy="168.6" r="1.2"/><circle class="st1" cx="273.5" cy="208.1" r="1.2"/><circle class="st1" cx="265.1" cy="249.2" r=".6"/><circle class="st6" cx="104.2" cy="270.1" r=".9"/><circle class="st1" cx="13.3" cy="260.4" r="1.1"/><circle class="st1" cx="50.8" cy="268.2" r=".6"/><circle class="st1" cx="179.2" cy="271.3" r=".8"/><circle class="st1" cx="232.4" cy="276.3" r="1"/><circle class="st1" cx="27.2" cy="170.2" r=".9"/><circle class="st1" cx="26" cy="83.1" r="1"/><circle class="st7" cx="27" cy="26.6" r="1.2"/><circle class="st1" cx="184.7" cy="60.9" r=".4"/><circle class="st1" cx="206.5" cy="96.3" r="1.2"/><circle class="st1" cx="270.5" cy="23.8" r="1.2"/><circle class="st8" cx="273.2" cy="115.6" r=".5"/><circle class="st1" cx="131.5" cy="49.2" r=".4"/><path class="st9" d="M151.6 15.8v1.1c0 8.7 7 15.8 15.7 15.8h17c8.7 0 15.7 7.1 15.7 15.8 0 8.7 7 15.8 15.7 15.8h25.8c8.7 0 15.7 7.1 15.7 15.8v1.1c0 8.7 7 15.8 15.7 15.8h27V0H167.3c-8.7 0-15.7 7.1-15.7 15.8zm-18.9 268.8v-1.1c0-8.7-7.1-15.7-15.8-15.7H99.8c-8.7 0-15.8-7-15.8-15.7s-7.1-15.7-15.8-15.7H42.4c-8.7 0-15.8-7-15.8-15.7v-1.1c0-8.7-7.1-15.7-15.8-15.7H0v96.4h116.9c8.7 0 15.8-7 15.8-15.7z"/><path class="st10" d="M201 107.7l99 83.6V300H172.1L103 196.9z"/><ellipse class="st11" cx="150.5" cy="150.6" rx="79.6" ry="79.5"/><defs><ellipse id="SVGID_1_" cx="150.5" cy="150.6" rx="66.3" ry="66.2"/></defs><use xlink:href="#SVGID_1_" overflow="visible" fill="#00b9b9"/><clipPath id="SVGID_2_"><use xlink:href="#SVGID_1_" overflow="visible"/></clipPath><g class="st12"><path class="st13" d="M96 175.2c.9.7 1.7 1.4 2.4 1.9.8.6 1.5 1.2 2.1 1.7.6.6 1.2 1.1 1.7 1.7.5.6.9 1.2 1.1 2 .3.7.4 1.5.5 2.5.3.5.5.9.8 1.3.2.4.5.8.8 1.3.2.6.3.9.6 1.5.2.6.4 1 .5 1.4.2.4.3.8.6 1.4.3.6.5 1.1.7 1.6.2.5.4 1 .7 1.6.2.6.4.8.6 1.4.5.5.7.8 1.1 1.4l-.5 1c.1.7.1 1 .3 1.6.7.5 1 .7 1.7 1.1.5.8.8 1.1 1.4 1.9.5.6.9 1.1 1.3 1.6s.7.9 1.1 1.4c.4.5.8 1 1.3 1.6l2 1.5c.6.2.9.2 1.4.4.1-.2.2-.3.3-.4-.3-.5-.5-.7-.8-1.2-.9-.5-1.4-.8-2.3-1.3-.3-.7-.5-1-.8-1.7-.5-1-.7-1.4-1.1-2.4.4-.1.5-.2.9-.3-.7-.7-1.1-1.1-1.9-1.8.1-.2.2-.3.3-.6-.1-.8-.2-1.2-.3-2-.4-.4-.6-.7-1-1.1l.3-.6c.3-.5.4-.8.7-1.4.1-.4.1-.5.2-.9-.2-.6-.3-.9-.5-1.4-.2-.7-.3-1-.6-1.7.9.1 1.3.2 2.2.3.1-.7.1-1.1.2-1.6s.1-1 .2-1.7c-.4-.7-.6-1.4-.7-2 0-.6.1-1.1.4-1.4.8-.4 1.3-1 1.7-1.6.4-.6.7-1.4 1-2.2.3-.8.5-1.6.7-2.4.2-.8.5-1.7.9-2.5.4-.4 1.6-.4 1.9-1.2.3-1 .2-2-.1-2.7-.3-.7-.8-1.2-1.5-1.7-.7-.4-1.5-.7-2.5-1-.9-.3-1.9-.5-2.9-.7-.4-.2-1.1-.6-1.8-.9-.7-.4-1.5-.8-2.2-1.3-.2-.2-.4-.7-.5-1.2-.2-.5-.3-1-.5-1.2-.8-.4-1.5-.9-2.1-1.3l-1.8-1.2c-.6-.4-1.1-.8-1.7-1.1-.6-.4-1.3-.7-2-1-.4 0-1.3.4-1.7.4-.8-.9-1.6-1.4-2.3-1.5-.7-.2-1.4 0-2 .3-.6.3-1.2.8-1.7 1.2-.5.5-1.1 1-1.5 1.3-.5.4-1 1-1.2 1.6-.3.6-.4 1.3-.5 2.1 0 .8 0 1.6.2 2.4.2.9.5 1.7.8 2.6.4.9.8 1.8 1.3 2.6"/><path class="st13" d="M91.7 159.6c-.1.1-.1.5-.4.6-.3.1-.9 0-2.2-.7 0 0 .1-.9-.1-1.1-.2-.2-.1-1.9-.1-1.9-.4-.3-.7-.4-1.1-.6-.9-.1-1.4-.2-2.3-.3 0 0 .3-.9.5-1 .2-.1 1.3-1.4 1.3-1.4.2-.4.3-.6.4-1-.6-.4-.9-.5-1.6-.9 0 0-1.6.7-1.7.9l-.7 1.4c-.9 0-1.3 0-2.2-.1-.3-.7-.4-1-.7-1.6-.2-.3-.3-.5-.4-.8.4-.7.6-1.1 1.1-1.8l.7-1.4c0-.2.7-1.2.7-1.2 1-.3 1.5-.4 2.5-.7.3.3.5.4.8.7.6 0 .9-.1 1.5-.1 0 0 .6-.8.8-.7.2.1 2 .2 2 .2s.3 1.3.4 1.4c.1.2.6 1.7.6 1.7s.9-.3 1.2-.7c.2-.2.3-.9.3-1.5.1-.7.1-1.3.1-1.3.5-.7.7-1 1.2-1.6.4-.4.7-.7 1-.9.3-.3.6-.6 1-.9 0 0 .4-.8.8-1.5.4-.8.9-1.6 1-1.6.1-.1.8-.5 1.4-.9l1.2-.8c.8-.4 1.1-.6 1.9-1 .8-.7 1.2-1 1.9-1.8.5.4.7.6 1.2.9 0 0-.5 1-.1.9.2 0 .9-.3 1.6-.6l1.4-.6c.4-.4.7-.6 1.1-.9-.5 0-.8 0-1.3.1-.5-.2-.7-.2-1.2-.4.2-.6.3-.9.6-1.5-.1-.3-.2-.4-.4-.6-.5 0-.8.1-1.3.1.6-.5.9-.8 1.5-1.4.8.2 1.3.4 2.1.6 0 0 1.3-.2 1.5-.4.2-.2 1.5-1 1.5-1l.5.5c-.7.8-1.1 1.2-1.8 2-.2.4-.3.6-.4 1 .7.2 1 .2 1.7.4.5.2.7.2 1.2.4.3-.7.4-1.1.7-1.8-.2-.5-.3-.7-.5-1.2 0-.5 0-.8.1-1.4.2-.6.3-.8.4-1.4 0 0-1.1-.9-1.2-.9-.2-.1-.9-1.7-.7-1.9.2-.2.1-2.3.1-2.3 0-.5-.1-.8-.1-1.3-.5.6-.8.8-1.3 1.4-.6-.1-.9-.2-1.5-.3 0 0-.2-1.4 0-1.9.3-.5-.7-1.4-.7-1.4s-1.4.5-1.4.7c-.1.2-1.2 1.6-1.2 1.6-.6.7-1 1-1.6 1.7.1.5.1.8.1 1.3-.5.7-.8 1-1.4 1.7-.4.1-.6.2-1 .4-.2.5-.4.8-.6 1.3-.4.6-.6.8-1.1 1.4-.2 0-.3 0-.6-.1.1-.6.3-1 .4-1.4.1-.4.2-.9.4-1.4-.3-.3-.4-.4-.7-.6-.4-.3-.6-.5-1-.8-.4-.6-.6-.9-.9-1.4.1-.6.1-.9.2-1.6l1-1 1-1s1.8-1 2-1.1c.2-.1 1.5-1.3 1.5-1.3.8-.4 1.2-.6 1.9-1.1 0 0-.7-.5-.4-.7.1-.1.9-.4 1.7-.8.7-.3 1.4-.7 1.4-.7s.9-.1 1.1-.7c.2-.6.1-1.2.1-1.2-.5-.2-.7-.3-1.2-.5-.5.6-.8.9-1.3 1.5v-1.6s-.5-.8 0-1.6.9-2.1.9-2.1-1.7.7-1.8 1.2c-.1.5-.9 1.8-1 2.1-.1.3-1.2 1.2-1.2 1.2s-.9.7-1.3.6c-.4-.1-.9-.6-.9-.6-.7-.3-1-.4-1.6-.7-.2.1-.3.2-.4.3-.4.5-.6.7-1 1.2-.4-.1-.6-.2-1-.4-.6-.1-1-.2-1.6-.3.3-.5.4-.8.7-1.4-.3-.3-.4-.5-.6-.8l-.6-.3c-.1-.3-.1-.4-.2-.7-.1 0-.2 0-.3.1-.6.4-1 .6-1.6 1-.5-.1-.8-.1-1.3-.1h-1.3c-.1-.4-.1-.6-.2-1 0 0-.9-.3-.9-.4 0-.2-.1-.6.1-.9.2-.3-.3-.5-.3-.5-.9.4-1.3.5-2.2.9 0 0-1.7.9-1.9 1.1-.3.2-1.1.7-1.1.7-.1 0-.2-.1-.3-.1 0 0-.7.5-.8.6-.1.1-1.3 1.2-1.3 1.2-.1.3-.2.5-.2.8-.4.3-.7.5-1.1.8-.3 0-.4 0-.6-.1-.1-.1-.1-.2-.1-.2s-1.3.6-1.6.9c-.4.3-1.2 1-1.1 1.1.1.1.8.1.8.1l-1.5 1s-.9.5-1.4.7c-.5.2-1.7.9-1.9 1-.2.2-1.6 1.4-1.9 1.6-.3.2-1.6.9-1.6.9s.2.5.2.6c0 .2 1 .6 1 .6l-2.4 1.2-2 1c-1.1.5-2.2 1.1-2.5 1.2-.6.2-1.1.4-2.4 1-.7.3-1.3.5-1.8.7-.5.2-.8.3-.8.3s-.3.4 0 .3c.1 0 .6-.1 1.2-.3.6-.2 1.3-.4 1.8-.6.5-.2 1.3-.5 2-.8.7-.3 1.4-.5 1.6-.7.5-.3 1.2-.6 1.8-.9.6-.3 2-.9 2.3-1.1s1.8-.8 1.8-.8l-1.5 1h.5s1.1-.7 1.3-1c.3-.3.7-.8 1.5-1.4s1.7-1 1.7-1c-.3.4-.4.6-.7 1.1 0 0 2.2-1 2.4-1.1.3-.2.6.2.3.8-.4.5-.7 1.6-.3 1.7.4.1 1.1.7 1.1.7-.5.7-.7 1.1-1.2 1.9 0 .4-.1.6-.1.9-.3.6-.4.9-.7 1.6-.2.6-.4.9-.6 1.5 0 0-1.3 1.2-1.2 1.5 0 .3.3 1.3.2 1.6-.1.3-1.8 2-1.8 2-.7.6-1.1.8-1.8 1.4-.3.5-.6.8-.8 1.2-.2.4-.5.7-.8 1.2-.1.9-.2 1.3-.3 2.2.1.6.2.9.4 1.5.4.4.6.6 1.1 1 .2.2.3.4.5.6-.3.4-.4.7-.7 1.1 0 0 .2 1.6.3 2.1.1.5-.1 1.1.2 1.6.2.6 1.2 1.6 1.2 1.6.4.1.6.1.9.2v-1s-.8-.7-1-1.2l-.6-1.5s.3-.9.3-1.3c.1-.5.4-.9.4-.9s.2.9.2 1.2c0 .3.6 1.8.7 1.9l.6 1.2c.1.2.7 1.2.7 1.2s.7 1.5.8 1.8c.1.3.7 1.3.9 1.5.1.1.6.3 1.2.5s1.1.4 1.3.5c.4.2 1.6 1.5 1.6 1.5s.8.3 1 .2c.3-.1 1-.5 1-.5.2.4.4.6.6 1l.8.8s1.3-.2 1.7.1c.3.3.9 1 1 1.1s.8 1.4.8 1.4.6.9.9 1.2c.9.8 1.6.8 2.3.6.7-.3 1.4-.7 2.3-.5-.2.1-.2.2-.4.4.4 0 .8-.4 1.2-.4-.7-1.1-1.1-1.3-1.9-1.7z"/><path class="st13" d="M98.8 111.6c-.1-.6-.2-.9-.3-1.4.4-.4.6-.6 1.1-1-.1-.3-.1-.4-.2-.7-.6.5-1 .7-1.6 1.2.1-.6.1-1 .2-1.6l1.2-1c.6-.5 1.2-1 1.3-1.1.2-.2 1.7-1.4 1.7-1.4s.5.5.6.7c0 .1.5 1 .4 1.4-.1.4-.1 1.7-.1 1.7.5-.4.8-.6 1.3-.9-.1.4-.2.5-.3.9.4-.4.5-.6.9-1 0 0 .7-.1.7.1s-.9 1.7-1 1.9-.4 1.2-.4 1.2l-.2.4c-.7.4-1.1.5-1.8.9-.1-.3-.1-.4-.2-.7-.7.1-1.1.2-1.8.3-.5.4-.7.7-1.2 1.1-.1-.5-.2-.7-.3-1zm7.3-3.3c.3-.9.5-1.3.9-2.2.4-.1.6-.1.9-.2.1.4.1.6.2 1 .5-.4.7-.7 1.1-1.1 0 0-.3 1-.7 1.3-.2.1-.7.6-1.2 1.1l-.9.9c-.3-.1-.4-.1-.7-.1.2-.4.3-.5.4-.7zm1.9-3.5l.2.2c.3-.1.4-.1.7-.2 0 0-.1-.6-.1-.8 0-.1-.3.1-.1-.6.2-.7.4-1.2.4-1.2s-.2-.5-.6-.1c-.4.5-1.3 1.1-1.3 1.1-.1-.5-.1-.8-.1-1.3 0 0 1.6-.6 1.2-.8-.4-.2-.5-.6-1.1-.3-.7.3-1.5.7-1.8 1-.3.3-1.1 1-.7 1.3.3.3 1 .2.8.9s-.2 1.1 0 1.2.9.2 1.2 0c0 .1 1.3-.4 1.3-.4zm1.7-4s.5-.8.6-.7.6.4.6.4-.7.8-1 1c-.3.2-.5-.5-.5-.5.1-.1.1-.2.3-.2zm.2 2.1s.6-.2.8.2c.2.4.2 1 .3 1.2 0 .1.1.8.1.9 0 .1-.3.6-.3.6s-.6.2-1.1-.3-.5-.6-.4-.9c.2-.4.6-1.7.6-1.7zm2.1 3.3s-.4-.9-.2-1.2c.1-.3.1-1.1 0-1.2-.1-.1.7-1.2.9-1 .2.2.4.8.7 1.2.3.4.6.3.8.6.1.3 1.5-.3 1.5.3s.2 1.1 0 1.3c-.2.2-1.5.6-1.8.6-.3 0-1.2-.3-1.2-.3-.4-.2-.5-.3-.7-.3zm-2.8 2.3c.1-.4.4-1.6.8-1.7.4 0 1.1.3 1.1.3s.1.4-.3.7c-.4.2-.9.5-.9.5-.3.1-.5.2-.7.2zm.5 2.5c-.4-.3-.6-.5-1-.8 0 0 .6-.3.9-.7.3-.4 1.5-1.5 1.6-1.4.1.1 1-.1 1-.2.1-.1 2.1-.4 2.1-.4s-.2 1.2.3 1c1.5-.8.4.6.3.9-.1.3 1.2.4 1.2.4s.6.4.8.8c.2.5-.1 2.1-.1 2.1-.2.5-.2.8-.4 1.3.2.3.3.5.4.8 0 0 .3.7.1.9-.2.2-1.2 1-1.2 1s-.4.9-.5.4c-.1-.4-.5-1.7-.6-1.5-.2.2-.7.8-.7 1.1 0 .3.5.7.5 1 0 .3-.2 1.3-.2 1.3s-.9.5-1.1.1c-.3-.4-.4-.6-.4-.6s-.2 1.9-.4 2.1c-.3.1-1-.2-1-.5s-.3-.9-.4-1.3c-.1-.4 0-.7-.5-.7-.5.1-2.1-.1-2.1-.1s.9-.9 1.2-.9c.3 0 1.2-.3 1.5-.7.3-.5.7 0 1-.4.2-.4 1.2-1.3 1.2-1.3s-.2-.6-.3-.8c-.1-.2-.8-.2-.7-.7 0-.5.1-1.1.1-1.3.1-.2.1-.4.1-.4-.6.5-.9.7-1.6 1.2 0 0-.2-.4-.4-.9s-.7-.8-.7-.8zm3.6-9.2c-.3-.1-.6-.1-1.2-.2-.6 0-.6-.5-.6-.5 0-.1.1-.4.5-.8s1.2-1 1.2-1 .4.1.5.6c.2.4.9.4.9.4-.3.6-.5.9-.8 1.5-.2-.1-.3-.1-.5 0zm1.9-.4c-.2-.2-.4-.3-.6-.5 0-.3 0-.4.1-.7.2-.3.3-.4.6-.7.4-.5.6-.7.9-1.2.3-.3.5-.4.9-.7v1l.5.5s.3-.5.4-.8c.1-.2.5-1.1.5-1.1s0-.3 1-.2c1 0 2.5-.2 2.5-.2s.8-.7 1.3-.2c.4.4 1.2-.7 1.2-.7.8-.2 1.3-.2 2.1-.4-.7.8-1.1 1.2-1.8 2 0 0-1.8.5-2.2.7-.2.1-.6.7-1 1.3-.4.6-.8 1.2-.9 1.3-.1.2-1.4 2.1-1.4 2.1s-.7.6-.7.7c0 .1-1 .9-1.1 1-.1 0-1.1-.2-1.1-.3-.1-.1-1.2-.9-1.2-.9-.2-.1-.3-.1-.5-.2 0 0 .7-.9.9-1 .2-.1.8.9.8.9s.4-.7.4-.8c0-.1-.2-.8-.2-.8.3-.3.5-.5.9-.8.1.3.2.4.4.7.4-.5.7-.8 1.1-1.3.4.1.6.1 1 .2 0-.4.1-.6.1-1.1-.7.1-1 .1-1.7.2-.4.4-.6.5-1.1.9-.7.6-1 .8-1.7 1.4-.1-.2-.2-.3-.4-.3zm4.8 4.3c-.1-.5-.2-.8-.3-1.3.3-.5.5-.8.8-1.3.5-.7.8-1.1 1.3-1.9l1-1 .7-1.4s.3.1.4-.1c.2-.1 1.4-.9 1.4-.9.3 0 .4-.1.7-.1 0 0 .6-.4.7-.5.2-.1 1.6-.2 1.6-.2.6.3.9.5 1.5.8l.7-.7v.6c.2 0 .3.1.6.1l1.4-1.4c.4 0 .6-.1 1-.1.7-.1 1.1-.1 1.8-.2 0 0 .5-.8.6-.5.1.3.6 1.5.6 1.5.3 0 .5.1.8.1l.1.4c.2.4.4.7.4.7.3-.4.5-.6.8-1 .6-.4.8-.6 1.4-.9.7.3 1 .4 1.7.7-.4.5-.6.9-.9 1.2-.3.4-.6.7-.9 1.2l-1.1 1.1c-.1.9-.1 1.3-.2 2.2 0 0-.3.5-.5.4-.1-.1-.4.7-.4.7l.4.2s.3.5.2.9c0 .4.2.8 0 1-.1.2-.9-.7-.9-.7-.2.3-.3.5-.5.8 0 0 .6 1 .7 1.1.1.1.2.9.2.9-.1.2-.1.3-.2.5-.5.2-.8.3-1.3.5 0 0 .1.5.1.7v1.3c-.1.2-1 1.7-1 1.7s-.7.6-1 1.1c-.3.5-1 .6-1 .6s-.6-.7-1-.4c-.4.3-1.5.1-1.7.6-.1.5-.2 1-.4 1.3-.2.4-1.5.8-1.5.8s-.3.1-.9.4c-.7.3-1.2.1-1.2.1s-.8 1.4-.9 1.7c-.1.2-.8 1.3-1 1.6-.2.3-.1.2-.5.7-.4.5-.6.7-.8 1-.1.2-.2.4-.5.4-.3.1-2-.5-2.1-.7-.1-.2-.4-1-.4-1l-.5-1c0-.1 0-1.2.1-1.4 0-.2 0-1.2.4-1.6l.9-.9s-.4 0 .2-.9c.6-.9.7-.7 1.1-1.5.3-.8.5-1.3.5-1.3s-1 .2-1 .4-1.3.4-1.3.4-.1-.6.1-.8c.3-.2.9-.4 1.1-.5.2-.1 1-.6 1.2-.6.2 0 .8-.4.5-.5-.3-.1-.7-.6-1-.5s-.7-.1-.7-.1.6-.9.7-1.1c.1-.2.4-.6.2-.7-.2 0-.6-.3-.5-.7.1-.4.1-1.3.2-1.4.1-.1 0-.6 0-.6s-.7-.4-1-.4c-.3 0-1-.1-1-.1-.4.3-.5.4-.7.5zm14.2 14.3c-.6-.1-2.1.2-2-.8.1-1-.4-1.2.4-1.5.9-.3 1.7-1 2.2-.5.5.5 1.1-.4 1.3-.3.2.1.4-.1.7 0 .2 0 .6.3.6.6 0 .4.3 1.5-.1 1.7-.5.2-.9.6-1.7.7-.7.2-1.4.1-1.4.1zm16.1-15.3c.3-.1 1.6-1.1 1.6-1.1s.4.2.5.6c.1.3.9 1 1 .6.1-.4-.5-2.4-.5-2.4s-.9-.6-.3-.6c.7 0 1.4-.1 1.6.4.2.5.7.8.7.8s.5-1.1-.5-1.9c-1-.7-1.2-1-1.5-1-.3 0-1.3-.5-1.8 0s-.7.6-.9.9c-.1.3-1-.5-1.4 0-.4.5-.6.3-.7.7-.1.4-.1.7-.2 1.2s-.3.9 0 1.3.9 1 1 1c.1.1 1.1 0 1.1 0 .2-.2.2-.3.3-.5zM161 101c-.3-.5-.4-.8-.7-1.3.2-.3.3-.4.4-.7 0 0 .4.3.4.6.1.2.3.5.1.8 0 .3-.2.6-.2.6zm.8-1.5c.1-.2.2-.7.5-1.3.3-.6.4-1.7.6-1.2.2.6.2 1.5.3 1.7.1.1.3.8.4.7 0 0 .1-.2.1-.4.1-1 0-1.1.3-1.3.3-.2.8-.6 1-.4.3.2.5.7.5.7s.8.2.1.6c-.3.2-.9.5-1.5.8-.6.3-1.1.5-1.2.5-.3 0-.7-.1-.7-.1-.1-.1-.2-.2-.4-.3zm-23.7 30.7c-.2.1-1.5-.3-.7-1.1.4-.4.9-.6 1.3-.7.4-.2.8-.4 1-.7.3-.7.8-.5.9-.3 0 .2.2.4 0 .7-.2.4-.4 1-.7 1.3-.3.2-.8.6-.9.7-.2.3-.9.1-.9.1z"/><path class="st13" d="M141.3 126.3s-.7-.2-1-.6c-.3-.4-.5-.6-.5-.8 0-.2.4-.8.4-.8s.3.5.6.5c.3-.1.5-.3.8-.5.4-.2 1-.5 1-.3s-.1.9 0 1.2 0 1.1 0 1.1-.2.6 0 .7c.2.1.7 0 .9.4.2.5.8 1.2.8 1.2s-.1.5 0 .7c.1.2-.1.7-.4.8-.2.1-.9.4-1.6.7-.7.3-.1-.1-.7.3s-1.3 1-1.3 1-.2-.8.3-1.3.6-1 .7-1.1c.1-.1.2-.1.2-.7s-.2-1-.2-1v-1.5zm52.2-23.8c-.2-.1-2.1-.9-2.1-.9s.6.7.8.8c.2 0 1.5.5 1.5.5 0-.2-.1-.2-.2-.4zm-4.9-3c.2-.3.3-.5.5-.8.1 0 .2.1.3.1 0 0 .4.3.7.4.3.1-.5-.3.3.1.9.4 1.7.9 1.7.9s.4-.1.5-.3c0-.1-.2-.3 0-.1.3.2 1 .9 1 1.1 0 .2.4.5-.3.2-.7-.2-1.3-.5-1.3-.5s-.1-.1-.1.2c0 .2-.2.3-.2.3s-.3-.2-.6-.2c-.3.1-.1-.2-.3.1-.1.2-.1.3-.1.3s-.5-.2-1-.6c-.5-.4-.8-.6-.8-.6 0-.2-.1-.3-.3-.6zm16.1 5.7s-.6-.3-.8-.6l-.2-.3s.3.1.7.4c.4.3.9.6.9.6l.3.3c.1.2-.5-.2-.5-.2-.2-.1-.3-.1-.4-.2zm21 38.5c-.2 0-.6.3-1-.1-.3-.4-.6-.5-.6-.5s-1.3 0-.8-.6c.4-.5.8-.4.9-.8.1-.3.3-.5.6-.7.3-.1 1.5 0 1.5-.6v-.8s-.2-.1-.2-.6-.6-.8-.4-1.2c.2-.4.2-.6.1-.7-.1-.1-1-1.1-1-1.1l-.5-.5s-.8-.6-.7-.9c.1-.3.2-.3.2-.8 0-.4.4-.6-.3-1s-1.8-1.1-1.8-1.2c0-.1-.6-.4-.4-1 .1-.6 0-.9 0-.9s-.4-.5-.9-.9-.3-.3-1-1c-.7-.6-1.3-1-1.7-1.4l-.8-.8c-.1-.2-.5-.9-.5-.9-.1-.2-.2-.3-.3-.5 0 0 .5 0 .7.5.3.4.6.9 1 1.2.4.3.9.7 1.2 1 .3.3.8.6 1.3 1 .4.4.5.4.9.7.4.3.8.5.9.7.2.2.9.6.4.5-.4-.1-1-.5-1.2-.7-.2-.1-.5-.7-.2-.1.2.3.6.9 1 1.4.4.5.7.9.7.9.3.1.4.1.6.2 0 0 .9.5.5.5s-.6-.2-.6-.2 0 .3.2.6c.3.4-.5 0 .3.4.7.4 1.4.5 1.4.5s.4 0 .7-.5c.3-.5.2-1.4.4-1.4.2-.1.9-.2.9-.2s.7.6.2.8-.4.2-.4.6c0 .4.3.5 0 1-.3.4-.3.7-.3.7s0 .1.1.3.4 0 .1.2c-.3.2-.4 0-.9.1-.5.2 0 .2-.5.2s-.4.1-.3.2l1 1c.4.3.7.6.9.9.2.3.6.5.8.9.2.3.8 1.4.8 1.4s-.1.1.3.5c.3.4.6.9.6.9s.7.1-.2.3c-.9.2-.5.2-.9.2s-.5-.1-.9.1-.5.4-.6.6c-.1.2 0 .7-.4.8-.4.1-.7.3-.8.4.2-.1-.1.4-.1.4zM205.4 162h.7c.4.3.6.4 1 .7.3.5.5.8.8 1.3 0 0 .9.4 1.2.9l.3.4c.3.4.5.6.8 1.1.6.1.1.1.6 0 .5 0 2.1-.1 2.1-.1-.1.3-.1.4-.2.7-.5.4-.8.5-1.3.9 0 0-.1-.2-.6.6l-.5.8s-.8.2-.9.1c-.2-.2-1.2-.4-1.1-.9.2-.6-.1-.8-.3-1.4-.2-.5-.2-1-.3-1.3-.1-.3.1-.9-.3-1-.4-.1-.7-.1-1-.5-.3-.4-.7-.8-.7-.8-.2-.2-.3-.3-.6-.5.3-.5.3-.6.3-1zm10.8 5.2c-.5 0-1.4.4-1.8.1s-.4-.9-.4-.9c.3-.6-.2-1.1-.2-1.1.1-.5.2-.8.3-1.3 0 0-.1.1.9-.5.5-.3 1-.6 1.4-.9.4-.3.7-.5.9-.8.3-.5.6-.8.9-1 .3-.2 1.4-1.1 1.4-1.1s.2 0 .4.6l.2.6-.2 1.2c-.1.6-.8 1.3-.3 1.7.4.4 1.1-.3.4.4-.7.7-.8.3-1.4 1.2-.6.9-.8 1-.9 1.6-.2.6-.3 1.6-.6 1.6-.3-.1.2.3-.3-.1-.4-.1-.7-1.3-.7-1.3zm5.5-12.5c-.1-.7.1-1.9.1-1.9.1-.2.2-.4.4-.6 0 0 .1.3.4 1 .3.7.3 1.1.6 1.4.3.3.1.5.9.7.7.2 1.3 0 .8.5s-1.6.9-1.6.9-1.5-1.2-1.6-2zm1.1 4.9c.4-.6.5-1 .9-1.6 0 0-.2-.3.1-.6.2-.4 1.1-.8 1.1-.8s.3 1 .3 1.5c.1.4.4.8.4.8l.5 1c.1.2.2.5-.1.8-.4.3-1.9 1.2-1.9 1.2s.5-.8.2-1.1c-.3-.3-1.5-1.2-1.5-1.2zm-.2 8c-.5-.2-.2-1.2-.5-1.5-.2-.3.2-.9.2-.9.8-.3 1.2-.4 2-.7 0 0 1.3-.4 1.1-.8-.2-.4.3-1.1.3-1.1s-1.5.8-2.1 1.2c-.6.4-1.3.2-1.6.1-.3-.1-.5-.4-1 .1-.4.4-.7-.2-.8.8-.1 1-.1 1.5-.6 2.1-.5.7.2.8.2.8s0 .1.5-.6l.5-.7s0 .3.3.7c.4.4 1.5.5 1.5.5zm-2 3.5s1.9-.4 2.1-1l.2-.5s.2-.4-.9.1-1.6.7-1.6.7c-.4.5-.6.7-1 1.1.5-.2.8-.3 1.2-.4zm-3.1.5c-.7-.2-1.1-.4-1.3-.5l-.2-.1s.7-.3 1.4-.4c.7-.1.4.1 1.3-.1.8-.2 1.1-.1 1.1-.1-.5.3-.7.4-1.2.6-.1.2-.2.4-.4.6-.2-.1-.4-.1-.7 0zm-2.5-.3s1.1-.6.6-.8-.1-1-.1-1 .2 0-.6.1-.6.1-1.8.2c-1.1.1-1.5-.4-1.5-.4-.4.3-.7.4-1.1.7.2.2.3.3.6.5 0 0-.2-.7.8-.1.5.3 1.3.5 1.9.7.7 0 1.2.1 1.2.1zm15.3-1.5c.2-.4.6-1.4.6-1.4s2 .3.2-.4-2.1-1-2.1-1-1.2 1.1-.9.1c.3-1 .5-1.3.5-1.3s-1.4.7-1.4.1c.1-.6.3-1 .3-1 .3-.2.5-.4.8-.6.4 0 .6-.1 1.1-.1 0 0 1.3.2 1.1.4-.2.2-.3 1-.3 1 .1.2.2.3.4.4 0 0 .8-.4 1.4-.6.6-.2.1.4.6-.2.5-.6-.7-.6.7-.2 1.4.4 2.1.3 2.2.6.1.3.1.4.5.6.4.1.4.5.4.5 0 .4-.1.6-.1 1 0 0 .7-.3.8-.1.1.2-.1.8 0 .9.1.2.3.2.3.2.3.1.4.1.6.2.1.2.1.3.2.5 0 0 .2.6-.4.7-.6.1-.4.8-1.3.2-.9-.6-1-.2-.9-.6 0-.4.4-.7.2-.7-.3-.1-1.3-.1-1.3-.1-.3.3-.4.4-.6.7 0 0-.1.1-.8.1-.7 0-.1 0-.7-.3l-.6-.2c-.8.3-1.1.4-1.5.6zm7.9-3.3c.3 0 .5-.1.8-.1.4-.3.6-.4 1.1-.7-.2 0-.3 0-.5.1 0 0-.4.1-.1-.4.3-.5 1.2-.9 1.2-.9s.5.1.6.4c.1.3.1.5.1.8 0 .3.2 1-.5 1.1-.7.1 0-.1-1.2.2l-1.2.3c-.2-.4-.2-.5-.3-.8zm-5.9 4.3s-.6.6-.7 1.2c-.1.7-.7 1.2-.7 1.2.3.1.5.1.8.2 0 0-.1.5-.6 1s-.5.8-.7 1.1l-.6.9s.4-.1.5.3c.1.4-1 1.3-1 1.3.1.2.1.3.2.5 0 0-.9.7-.7.8.2.1-.3.9-.3.9s-.4.7-.8.9c-.4.2-.8.7-.8.7l-.9.9c-.2.2-.2.3-.7.7-.3.2-.6.4-1 .7l-1.2.9c-.4.3-.7.6-1.1.9-.4.3-.7.5-1.2.8-.9.6-1.3.9-1.8 1.3s0 .1-1.2.9-1.9 1.2-2.2 1.5c-.3.3.5-.5-.8.3-1.3.7-1.8.9-1.8.9s0 .4-.6.2c-.6-.1-1-.4-1-.4.6-.7.9-1 1.4-1.7 0 0 .9-.8.1-.6-.7.2-2 1.1-2 1.1.6-.5 1-.8 1.5-1.2.4-.3.9-.7 1.5-1.1l-2 1s.5-.3.6-.8c.1-.5-.1-.8-.1-.8s1.2-.6-.4-.4l-1.6.2s.4-.3-.7.3c-1.2.5-2.3 1.3-2.3 1.3s.6.1-.3.5c-.9.4-1.2.6-1.6.3-.4-.3-1.6.1-1.6.1s-.5.5-1.2.9c-.6.4.1 1.1-.6.4-.7-.7-1.3-1-1.3-1s1-.1 1.7-.8c.7-.7 1 0 1.8-1.5.4-.7.6-1.1.7-1.4.2-.4.3-.7.7-1.3.8-1.2.3-1 .8-1.7.3-.3.4-.7.6-1.1.2-.4.5-.8 1.2-1.2.7-.4 1-.8 1.5-1.2.5-.4 1-.7 2-.9 1.9-.4 2-.2 2.5-.7.3-.2.7-.4 1.1-.7.4-.3.8-.6 1.1-.9.6-.8 1.3-1.6 1.3-1.6.4 0 .6 0 1-.1.6-.5 1-.7 1.6-1.2 0 0-.6.9.2 1 .4 0 .9-.2 1.5-.5.5-.3 1-.6 1.3-.9.5-.6.6-1.4.6-1.4s.4-.6.9-.9c.5-.4.9-.6 1 .2.2 1.4 1 1 1 1s.4 0 .3.3c-.1.3-1.2 1.1-1.3 1.5-.1.3.1 1 .3 1.1.2.1 0 1.1.9.5.9-.7 1-.9 1.8-1.8.8-.8.6-.7 1-1.2.2-.3.7-.7 1.2-1 .8-.4 1.2-.7 1.2-.7zm-24.4 25.3c.4-.6.6-.9.9-1.5l1-.8c.5-.4 1.1-.9 1.2-.9.2-.1-.1.4.1.4s1.4-.7 1.6-.8c.3 0-1.1 1-1.1 1s-.4.4-1.2.9c-.8.5-1.8 1.2-1.8 1.2-.3.3-.4.3-.7.5zm4.6-1.4s.7-.4 1.5-.9 1.7-1 2.1-1.2c.7-.4.5-.3 1.6-.9.5-.3 1.2-.8 1.9-1.2.7-.4 1.3-.8 1.7-1.1.4-.2 1.4-.9 2.3-1.6s1.7-1.2 1.7-1.2.1.3-.2.7c-.3.4-1 1-2.2 1.7-.2.1-1 .5-1.9 1-.9.5-1.9 1.1-2.6 1.5-1.3.8-1.4.9-2 1.3-.6.4 0 .1-1.6 1s-1.3.7-2.1 1.2-.6.5-.8.5c-.2-.2.6-.8.6-.8zm-41.8-9.9s-1.3 0-1.3-.6c.1-.5-.6-.8.2-1.5s.2.3.7-1.2c.4-1.5-.6 1.2.4-1.5.5-1.3.8-2 .9-2.3l.1-.3s.1 1 .9-.1c.4-.5.8-1.1 1.2-1.5.3-.4.5-.7.5-.7s.6-.7.7 0c.1.7.4 1.4-.3 2.1s0 1.8-.4 2.4c-.4.6-.8 1.5-.9 1.9-.1.4-.1 1-.2 1.5-.2.4-1.7 1-1.7 1-.2.4-.4.6-.8.8zm-51.5 19.4s-.5-.7-.3-.8c.1-.1.1.2.9.2s.3-.8.8 0 .9 1.1.5 1.3c-.4.2.7 1.2-.6.3l-1.3-1zm8.5 1.2s-.3-1.2.2-.7.7 1 .7 1c-.2 0-.3 0-.4-.1-.2 0-.3-.1-.5-.2zm68.8-42.1c-.1-.4-.6-2.6-.6-2.6s.3.1.9 0c.5-.1.8-.7.9 0 0 .7-.3.6-.1 1.2.2.6-.1 1.1-.1 1.1-.5 0-.6.1-1 .3z"/><path class="st13" d="M216.3 112.2c-.3-.2-1.1-.9-1.5-1.2l-.8-.6s-.5-.2-1-.5c-.6-.3-1.2-.6-1.5-.7-.3-.2-.7-.3-1.2-.6s-1-.5-1.6-.9c-1.2-.8-1.7-1.1-1.7-1.1l-1-.5s-.4.1-.4.2-.9-.4-1-.4c-.1 0 .6.6 1.1 1.1.6.5-.2 0-.5-.2s-1-.7-1.5-1.2.4.7.4.8v.1h-1.2c-.2-.1-.4-.3-.5-.4-.1-.1-.8-.6-1.4-1.1-.6-.5-.7-.3-.8-.2-.1 0-.4.5-.5.6-.1.1-.6-.2-1.1-.6-.5-.4-.6-.3-1-.7-.5-.3.2.5.4.7.1.3-.6-.1-.6-.1s-1.6-.9-1.9-1c-.3-.2-1.3-.1-1.3-.1s0 .5.1.8c.2.3 1 .9 1 .9s-.3.5-.4.6c-.1.1-.9-.6-1.2-.8-.3-.2-.4.2-.4.2s.5.6.9.9c.4.4 0 .6 0 .6-.4-.3-.7-.4-1.1-.6 0 0-.7-.4-1-.8-.3-.3-.8-.7-.8-.7s-.4-.7-.6-1c-.2-.3-1.5-.3-1.6-.1-.2.1.7 1.2.7 1.2-.3-.1-.5-.1-.9-.2-.7-.2-1.1-.3-1.9-.4 0 0-.7.1-1.1-.2-.3-.3-.5-.6-.5-.6s-.5-.3-.7-.1c-.1.2 0 0 0 .1s-.6.7-.6.7-.3-.6-.4-1.1c-.1-.5 0-.6 0-1-.1-.4-.4-1-.6-1.3-.3-.2-.4-.3-.8-.7-.4-.4-.4 0-.8-.1-.4 0-.4.5-.6.5-.2.1-.5-.2-.5-.2-.1-.4-.2-.6-.3-1.1 0 0-.3 0-1.4-1.5-1.1-1.5-.3-.1-.6-.2-.3-.2-.8-.2-1-.4-.2-.2-1.1-.6-1.8-.7-.7-.1-.3.5-.4.8s.9 1.2.9 1.2.7.3 1.3.2c.6 0 .5.2 1.2.1s.7.5 1.3.8c.6.3.1 1.4.2 1.9.2.5-.5.1-.8.2-.3.1-.7.4-.9.7-.2.3-1.2 1-1.2 1 .3.8.4 1.2.7 2-.1.1-.1.2-.2.4 0 0-1 .7-1.1.8 0 .1-.4.3-.3.5.1.2 0 .9 0 .9-.4 0-.6 0-1-.1 0 0-.1-.6-.3-1-.1-.5-.7-.6-.7-.6-.1.2-.1.3-.2.5l.5 2c.1.3.2.5.5.9s.1 1.3.1 1.3-.3-.4-.7-.9c-.4-.5-.3-.8-.6-1.1-.3-.2-.2-.6-.5-1.1-.3-.5-.5-1-.7-1.3-.3-.3-.4.4-.5.7s-.1.7 0 1c0 .2-.3.9-.3.9v.8c0 .2.2.4 1.2 1.1 1 .7 1.3 1 1.6 1.2.2.2-1.2.1-1.2.1s-.5-.2-.7-.4c-.2-.2-.9-.6-.9-.6s-.8-.5-1-.6c-.2-.1-1.7-.3-1.7-.3-.5-.2-.8-.4-1.3-.6-.1-.3-.1-.5-.1-.8 0 0-.1-.7-.1-1.1-.1-.4-.2-.9-.2-1.2 0-.3.3-.5.8-1.2.5-.6.5-.3.9-.5s1-1.3 1-1.7c0-.3-.6-.6-.6-.6-.3.3-.5.4-.9.7 0 0-.7.6-1 .9-.4.3-.3.8-.5 1-.2.2-.5.6-.8.5-.2-.1-.1 1.5-.1 1.5s-.4 1.8-.4 2.3c.1.5.9 1.1.9 1.1s.8.2 1.1.1c.3-.1 1.3.5 1.9.8.7.3.8.5 1.1.9.3.4-.9.3-.9.3-.5.1-.7.1-1.2.2 0 0-.4 0-1-.7 0 0-1 1.5-1.6 1.8-.6.4-.1-.7-.1-.7-.1-.6-.1-1-.2-1.6-.4.1-.6.2-.9.3 0 0-.1.5-.3.9-.2.4-.4.6-.5.9-.1.3.4.2 1.1 1.5.7 1.2-.1 1.3-.1 1.3s-1 .4-1.5.9-.8.7-1 .9c-.2.3-1.2-.3-1.2-.5s-.5-.5-.5-.5c-.4-.5-.8-.9-1.1-1.3-.3-.4-.6-.8-1.1-1.3 0 0 .2.1.7.4.5.2 1.2.6 2.2 1 2 .9 1 0 1.5-.2s.3-1.2.4-1.7c.1-.5-1-.7-1-.7s-.7-.3-1.5-.6-1.7-.7-2.1-1c-.8-.5 0 0-.9-1.2s-.8.3-1.4.7c-.3.2-.9.3-1.6.4-.6.1-1.3.2-1.6.4-.6.3-1.5.4-1.8.6-.2.1-1 1.6-1 1.6l.9-.4c.9-.4.4.3.4.3-.2.6-.4.9-.6 1.6 0 0-.4.6-.5.8-.1.2-.4 1-.8 1.5-.3.5-1.4 1.2-1.5 1.3-.1.1-1.2.9-1.2.9v.9c-.1.7-.2 1.1-.4 1.8.6.5.9.7 1.5 1.2.1 0 .2 0 .3.1 0 0 .8-.2.8-.4s.4-.5.6-.3c.2.2.3 0 .3 0s.4.9.5 1.9c.1 1.1.2.3.3 1.1 0 0-.1-.8 2.1-.6 2.2.2.5-.3.8-.8.3-.5.2-1.1.2-1.1s-1.1.3-1.3.3c-.2 0-.6-1-.4-1.3.2-.3.3-.4 1.1-.7.9-.3 0-.6 0-.6s-.3-.5-.4-.8c-.1-.2-.3-.4-.5-.7-.1-.3.1-.6.5-1.7s.9.1 1.2 0c.3 0 0-.7-.1-1.2-.1-.6.3-1.1.5-1.2.2-.1.6.2 1 .3.4.1.2 1.5.2 1.5s-.6.4-.8.6c-.2.2-.3.7-.6.9-.3.2.2 1.2.2 1.4 0 .2.1.4.1.4.3.2.5.3.8.5 0 0 .4.1 1.1 0 .7-.1.7-.4 1.1-.5.4-.1 1.6 1 1.6 1-.4.1-.5.2-.9.3 0 0-.9.6-1.1.5-.2-.1-1.3-.2-1.5-.2-.2-.1-.4.3-.6.5-.3.3-.2.4-.3 1.2-.1.8 0 1.4 0 1.4s-.3.4-.7.6c-.3.1-.7.8-.9 1-.2.2-1.3 0-1.6 0-.3 0-.9.6-1.3.9-.3.4-.7-.5-.9-1-.2-.5-.3-1.8-.5-2.5s-.3.1-.3.1-.5.9-.7.9c-.3 0-.4.3-.4.6 0 .4.1.4 0 .6-.1.2.6 1.1.5 1.3-.1.1-.5.5-1.2.4-.7-.1-.9.3-.9.3s-.2 1.7-.5 1.6c-.3-.1-.3.1-.7.4-.4.4-1.1 1.3-1.3 1.4-.2.1-.9.1-1.3.4-.4.2-.8.3-1.3.7-.5.4.8 0 1 0 .2 0 1.4.7 1.4.7-.2.7-.2 1.1-.4 1.9-.4.2-.6.3-1.1.6 0 0-1 0-1.9-.3-.9-.3-1.6.4-1.6.4s-.1.4-.2 1.3 0 .4 0 .4.3 1.4.4 2.1c.1.6-.3.8-.3.8l1 .4c1 .4 1.1.2 1 0-.1-.2.6.1 1.4-.1.8-.2.4-.3.4-.3s.1-.4.1-.6c0-.2 1.7-.4 1.9-.9.2-.5 0-.5 0-1s.5-.1.9-.4c.4-.3.2-.4.2-.8s.6-.8.6-.8c.2.1.3.1.5.1l1 .1c1 .1.8 0 .8 0 .1-.2.1-.3.1-.4 0-.2 0-.3.1-.5.4.1.5.1.9.1.2.3.3.5.6.8.1.2.1.3.1.4 0 0 .6.6 1.1.9.6.2.3.3.6.3.4 0 .6.5.6.5l-.1.4c-.1.4 0 .8 0 .8-.1 0-.2 0-.4.1 0 0-.7-.1-1.1 0-.4.1 0 0 .4.2s0 .5 0 .5.5.5.9.5.6-.4.6-.4c.3-.2.4-.3.6-.6 0 0 .3-.5.2-.7-.1-.2-.1-.7-.1-.7.4-.2.5-.3.9-.4-.2-.1-.3-.2-.5-.3-.3-.2-.4-.3-.6-.4l-.9-.9-.5-.5s-1.1-.4-1.5-.7c-.4-.3 0 0-.3-.4s.5-.4 1-.3c.6.1.8.6.8.6.3.2.4.3.7.6 0 0 .6.6.9.8.2.1 1 .3 1.3.3.3 0 .3.7.3 1.1 0 .4-.2.8-.2.8s.6.9.8 1.1c.2.3 1.4 1.6 1.4 1.6h.4c.4 0 .4-.6.4-.8 0-.2-.6-1.4-.6-1.4l-.2-1.6c-.2-1.6.9.4 1.1.4.2.1.7.9.7.9s.2.6.8 1.9c.7 1.4.9.6.9.6s.9.3 1.1 0c.2-.3.6 0 2.1-.5 1.6-.5 1.4.1 1.7.5.4.5-.1.7-.5 1.4-.3.6-.3.7-.3.9-.1.2 0 1.2 0 1.2l-.8-.2c-.4-.1-1.6.3-1.6.3h-1s-.6 0-2.1-.9c-1.4-.9-1.7.1-1.9.1-.2 0-1.2.7-1.8 1.1-.6.4-.4-.1-.7-.5-.4-.4-.5-.3-.5-.3h-2.9c-.4 0-.7-.2-.9-.6-.1-.4-.4-1.3-.4-2.6-.1-1.3-.4.1-.9 0-.4-.1-1.9 0-1.9 0s-1.3.5-1.6 0c-.4-.5-1.5-.3-1.7-.3-.2 0-.3.1-.9.3-.6.2-1.6.6-1.6.6s-1.1-.1-1.4-.1c-.3-.1-1 .1-1 .1 0 .3-.1.4-.1.7 0 0-1.4 1-1.5 1.2-.1.2-.3.4-.5 1.1-.2.6-.3.9-.3 1.4 0 .4-.4.9-.8.9-.4-.1-1.2.3-1.2.3s-.9 1.7-1.1 2c-.2.3-.4.4-1.6 1.1-.6.4-.6.7-.5 1.1.1.4.4.9.5 1.6.1 1.3.4 1.7.5 2 .1.3 0 .4 0 .4v2.2c0 1.1 1.1 1.4 1.6 2 .5.6.2.4 1.4 1.4.6.5.9 1.1 1.1 1.7.2.5.2 1 .3 1.1.1.2 1.8-.1 2.2-.1h1.3c1.3 0 1.1.1 1.6-.3s1.3-.6 1.9-.7c.6-.1 2-.1 2-.1s0 .6.1.9c.1.4 0 0 2.3.3s1.1.6 1.7 1c.6.4 0 0-.1.7s-.4.9-1 1.6c-.6.8 0 0 .5.5s.5.4.7 1.1c.2.6.1 1 .1 2s0 0 .3 1 .3.5.7 1.6c.4 1.1.2.4.6 1.6.4 1.2-.3.6-1 1.4-.7.8-.2.5-.4 2-.1 1.5.1 1 .1 1.4 0 .4.1.4.3 1.6.2 1.3.3.7.7 1.4.4.7 0 0 1 1.3s.4 1 1 2.3c.5 1.3.4.7.6 1.8.1 1.1.2.7.3 1.3.1.6.2.5.4.7.2.2.2.1.9 0 .7-.2.3 0 1.2 0 .9 0 1.3-.4 1.3-.4l.2-.1c.2-.1.7-.7 1-1 .3-.3.5-.4 1-.7.5-.2.5-.6.6-1.1.1-.5.4-1.3.7-1.8.2-.5.7-.8 1.7-1.3s.3-.4.3-.8 0-1.1.1-1.6c0-.2.1-.5.4-.9.2-.4.6-.8 1.2-1.3s1-1 1.2-1.4c.3-.4.4-.8.5-.9.1-.2.2-.5.5-.9.2-.4.6-1 1-1.6.8-1.3.2-1.1.3-1.6 0-.5-.3-1.3-.4-1.7-.1-.4 0-2.3 0-2.6 0-.3.3-.6 1.3-1.4.5-.4.9-.7 1.3-1 .4-.3.7-.5.9-.8.5-.5.6-.8 1.1-1.4.5-.6 2.1-1.6 2.1-1.6l.7-1.4c.4-.7.8-1.6 1-2 .4-.8-.5-.8-.5-.8s-.6.4-1.1 1c-.5.6-1.5.4-2.2.5-.7.1-1.3-.7-1.5-.9-.1-.2-.8-.8-1.1-1.1-.4-.3-.8-.8-1-1-.1-.3-.3-.7-.5-1-.1-.3-1.3-1-1.8-1.7-.5-.6-.7-1.4-1-2-.3-.6-.6-.7-1.1-1.5-.5-.8-.4-.6-.9-2-.4-1.3.2-1.1.8-1.3 0 0 .3.4.7 1 .4.5 1 1.1 1.5 1.4 1 .6.8.8.9 1.6.1.8 0 0 .1.9s.2.4 1.1.9c.7.5.7.4.7.3.1.1.6 1 .8 1.7.2.8.1.8.3 1.4.2.6 1.5 1.2 1.5 1.2s.7-.7 1-.8c.3-.1 1.5-.3 2-.6.5-.4.6-.4 1.2-.7.7-.4.9-.3 2.2-.6 1.2-.4.5-.6.6-.9.1-.3.3-.8.7-1.4.4-.6.9-1 .9-1.2 0-.2 0-1.1-.2-1.2-.2-.1-.7 0-1.1-.3-.4-.3-.4-.6-.7-1-.3-.4-1.1-.6-1.7-.3-.6.3-.9.1-1.2-.1-.3-.2-.7-.4-.9-.6-.3-.2-.7-.4-.9-.6-.2-.1-.4-2-.4-2s.7.2 1.7.6c.9.4 0 0 .6.6s.7.8.7.8.8 0 1.1.1c.3.1.4.2 1.8.8.7.3.9.5.9.5v-.1c.2-.2 2-.7 2.2-.7.1 0 .6.1 1.1.3.6.2 1.3.4 2 .6 1.3.3.4.2 1.1 1.2.7 1 0 0-.1.4s.6 1.3.6 1.3 1.8-.7 2.2-.5c.4.3 0 0 .6.8s0 0 .1 1-.1.3-.7 1.3c-.5 1 0 1.4 0 1.4l.3.2c.3.2.9.6 2.1 1.5 2.4 1.7.7.9.7.9.3.7.4 1.1.7 1.8.3-.2.5-.3.8-.5 0 0 .4-.3.5-.6.1-.3.3-.6.4-.8.2-.2.2-.7.3-1.1.1-.3.3-1.1.3-1.1s.1-.9.1-1.3v-.9s0-.1.3-.4c.3-.3.8-.9 1.8-1.8 1.9-1.8.9-.1.9-.1.3-.3.4-.5.6-.8 0 0 1.4-1.1 2.3-.8.9.3.4.1 1.8 1.7 1.4 1.5.3 1 .3 1.3 0 .3.4 1.1 1 1 .7-.1.8-.7.8-.7s.5.9.4 1.3c-.1.4.9.9.9.9l.3 1.2c.3 1.2-.1.9-.2 1.1 0 .2.2 1.8.4 2.2.2.5.2.4.5 1.2.3.9.1.7.1 1.1 0 .3 1.8.8 1.8.8s.1-.8.2-1c0-.2.1-.8.1-2-.1-1.2-.7-.9-.8-1.3-.1-.4-.8-.4-1.2-.8-.4-.4-.2-1.3-.2-1.4 0-.2.4-1 .4-1s1.8 1.2 1.8 1.4c0 .2.4.8 1.1 1.5.7.7.6-.2.9-.4.3-.2.9-.6 1.2-1.1.4-.4.2-.6.2-1s.3-.7.3-.7c.3-.7.5-1 .7-1.7 0 0-.7-.2-1.4-.5s-1.5-.7-1.7-1.2c-.4-.9-.7.1-1.1 0-.2-.1 0-.4.4-.7.4-.4.9-.8 1.3-1.2.8-.8 1.3-.1 2.2-.2.9-.1.3-.5.5-.7.2-.1 1.1-.2 1.9-.4.9-.2.7-.2 1.1-.7.4-.5.8-.8.9-1.1.1-.2.5-1.4.6-1.8.1-.4.2-.6.2-.9 0-.3-.1-.8-.1-.8-.6-.7-.9-1.1-1.5-1.8 0 0-1-.5-1.3-.8-.3-.3-.8-1.1-.8-1.1s0-1.5-.1-2.1c-.2-.7-.6.4-.9.2-.3-.1-1.5-1-1.6-1.4-.1-.4.7-1.4.7-1.4s1.1 1.4 1.7 1.7c.6.3.2-.5.6-.8.5-.3.5.4.5.4s.7.7 1.2 1.4c.6.7.3.7 1.3 2.1 1 1.4.7.2 1.2.1s1.3-.9 1.1-1.1c-.1-.2-1.5-1.2-1.7-1.3-.2-.1-.3-1.1 0-1.3 0 0-.3-.5-1-1.5-.6-1-.5-1.1-.3-1.5.2-.3 0 0 1.7.6s.2-.3.2-.3-.3-.8-.4-1.2c-.1-.4-.2-.8-.3-1s-.2-.5-.2-.5-.3-.6-.2-1c0-.4-.2-.9-.2-1.1-.1-.2-1.1-1.5-1.2-1.8-.1-.3-1.9-1.6-1.9-1.6-.5-.6-.7-.9-1.1-1.4 0 0-.7-.6-1.7-.9-1-.4-.5 0-.5 0s-.7-.4-1.1-.8c-.4-.5-1-1.6-1.3-2.1-.2-.5 0-1.1.1-1.5.1-.3.1-.5.3-.5.2 0 1-.1 1.1-.2.1-.1.3-.7.3-.7s.3.2.7.5c.5.3 1.1.7 1.9 1.2 1.6 1 .3 0 .5-.1s.9-.2.6-.5c-.3-.3-1.4-.9-1.9-1.3s-.5-.6-.8-1.2c-.3-.6-.9-1.2-.2-.6.3.3.3.3.6.4.2.1.7.4 1.9 1.2 1.3.8 1.2.7.9.5-.4-.3-1.1-.8-1.1-.8-.1-.2-1-1.3-1.6-2.1-.6-.8-.1-.2 1.2.6s.7.7 1.4 1.4c.8.7.6 1 .7 1.1.1.1.5.8.7 1.5.3.7.5.8.8 1.3.3.5.4.7.8 1.3.4.6.8 1.1.9 1.3.1.2 1.6 1.2 2 1.5s.9.6 1.6 1.1c.7.5.6.6.8.9.1.3 1.2 1.5 1.2 1.5s0-.6-.1-.9c-.1-.3.1-.5 0-.8-.1-.3-.4-.7-.7-1.2-.3-.4-1.2-1.3-1.6-1.7-.4-.5-.3-.5-.3-.8.1-.3-.1-.6-.1-.6s-.8-.9-1.2-1.3c-.4-.4-1.2-.6-1.6-.9-.4-.2-1.8-1.5-1.8-1.5-.2-.3-.2-.4-.4-.7l.2-.1c.2-.1 0 0 0-.3s.2-.2.5-.2.5.1.4-.1c-.1-.1 0-.2-.3-.7-.3-.4-.9-1.2-1.1-1.4-.3-.3.2-.2 1 .1.8.3.3.1.3 0 .1-.1-.7-.7-1.3-1.1-.5-.4-1.6-.9-2-1.2-.3-.3-1.4-1.1-1.4-1.1s-1.3-1.1-1.7-1.5c-.4-.4 0 0 .8.5s1.6 1 2 1.2c.3.2 1.6.6 1.4.5.3-.7-.2-1-.4-1.2zm-48.1 25.4c-.5.1-1.1.4-1.6.6-.5.2-1 .3-1.5-.1-.8-.8-.3-1.5-1.4-.8-1 .7 0 .7 0 .7s-1 0-2-.1c-1-.2-2-.6-2-1.5s0-1.7.1-2.2c.1-.5.4-.8.9-.8 1 0 1.6 1.7 2.2 1.1.6-.6-.1-1 1.1-1.6s1.3-.7 1.3.7c0 .7.3 1.2.6 1.6.3.4.7.7 1.1.8 1 .4 2.2 1.4 1.2 1.6zm13.1 12.2z"/></g><defs><filter id="Adobe_OpacityMaskFilter" filterUnits="userSpaceOnUse" x="59.6" y="95.4" width="181.8" height="114.5"><feFlood result="back" flood-color="#fff" flood-opacity="1"/><feBlend in="SourceGraphic" in2="back"/></filter></defs><mask maskUnits="userSpaceOnUse" x="59.6" y="95.4" width="181.8" height="114.5" id="SVGID_3_"><g class="st14"><defs><filter id="Adobe_OpacityMaskFilter_1_" filterUnits="userSpaceOnUse" x="59.6" y="95.4" width="181.8" height="114.5"><feFlood result="back" flood-color="#fff" flood-opacity="1"/><feBlend in="SourceGraphic" in2="back"/></filter></defs><linearGradient id="SVGID_4_" gradientUnits="userSpaceOnUse" x1="59.589" y1="152.639" x2="241.351" y2="152.639"><stop offset="0" stop-color="#fff"/><stop offset=".022" stop-color="#dadada"/><stop offset=".052" stop-color="#adadad"/><stop offset=".085" stop-color="#838383"/><stop offset=".121" stop-color="#606060"/><stop offset=".159" stop-color="#424242"/><stop offset=".202" stop-color="#2a2a2a"/><stop offset=".249" stop-color="#171717"/><stop offset=".305" stop-color="#0a0a0a"/><stop offset=".377" stop-color="#020202"/><stop offset=".523"/><stop offset=".593" stop-color="#030303"/><stop offset=".654" stop-color="#0e0e0e"/><stop offset=".712" stop-color="#202020"/><stop offset=".768" stop-color="#393939"/><stop offset=".823" stop-color="#5a5a5a"/><stop offset=".876" stop-color="#828282"/><stop offset=".929" stop-color="#b2b2b2"/><stop offset=".98" stop-color="#e7e7e7"/><stop offset="1" stop-color="#fff"/></linearGradient><path class="st16" d="M122.1 172.1c.3.7.4 1.7.1 2.7-.2.8-1.5.8-1.9 1.2-.4.8-.7 1.6-.9 2.5-.2.8-.5 1.7-.7 2.4-.3.8-.6 1.5-1 2.2-.4.6-1 1.2-1.7 1.6-.3.4-.5.9-.4 1.4 0 .6.2 1.2.7 2-.1.7-.2 1.2-.2 1.7-.1.5-.1 1-.2 1.6-.9-.1-1.3-.2-2.2-.3.2.7.3 1 .6 1.7.2.6.3.9.5 1.4-.1.4-.1.5-.2.9-.3.5-.4.8-.7 1.4l-.3.6c.4.4.6.7 1 1.1.1.8.2 1.2.3 2-.1.2-.2.3-.3.6.8.7 1.1 1.1 1.9 1.8-.4.1-.6.2-.9.3.4 1 .7 1.4 1.1 2.4.3.7.5 1 .8 1.7.9.5 1.4.8 2.3 1.3.3.5.5.7.8 1.2-.1.2-.2.3-.3.4-.6-.1-.9-.2-1.4-.4l-2-1.5c-.5-.6-.9-1.1-1.3-1.6s-.7-.9-1.1-1.4c-.4-.5-.8-1-1.3-1.6-.5-.8-.8-1.1-1.4-1.9-.7-.5-1-.7-1.7-1.1-.1-.7-.2-1-.3-1.6l.5-1c-.5-.5-.7-.8-1.1-1.4-.3-.6-.4-.8-.6-1.4-.3-.6-.5-1.1-.7-1.6-.2-.5-.4-1-.7-1.6-.2-.6-.4-1-.6-1.4-.2-.4-.3-.8-.5-1.4-.2-.6-.4-.9-.6-1.5-.3-.5-.5-.9-.8-1.3-.2-.4-.5-.8-.8-1.3-.1-.9-.2-1.7-.5-2.5-.3-.7-.7-1.4-1.1-2-.5-.6-1-1.2-1.7-1.7-.6-.6-1.4-1.1-2.1-1.7-.8-.6-1.6-1.2-2.4-1.9l-2.1-2.7c-.5-.9-.9-1.8-1.3-2.6-.4-.9-.6-1.8-.8-2.6-.2-.9-.3-1.7-.2-2.4 0-.8.2-1.5.5-2.1.3-.6.7-1.2 1.2-1.6.5-.4 1-.9 1.5-1.3.5-.5 1.1-.9 1.7-1.2.6-.3 1.3-.4 2-.3.7.2 1.5.6 2.3 1.5.4 0 1.3-.4 1.7-.4.8.3 1.4.7 2 1 .6.4 1.2.7 1.7 1.1.6.4 1.1.8 1.8 1.2.6.4 1.3.8 2.1 1.3.2.2.4.7.5 1.2.2.5.3 1 .5 1.2.7.4 1.5.9 2.2 1.3.7.4 1.4.7 1.8.9 1 .2 2 .5 2.9.7.9.3 1.8.6 2.5 1 .7.5 1.2 1.1 1.5 1.8zm-29.2-11.4c-.2.1-.2.2-.4.4.4 0 .8-.4 1.2-.4-.8-.4-1.2-.7-2-1.1-.1.1-.1.5-.4.6-.3.1-.9 0-2.2-.7 0 0 .1-.9-.1-1.1-.2-.2-.1-1.9-.1-1.9-.4-.3-.7-.4-1.1-.6-.9-.1-1.4-.2-2.3-.3 0 0 .3-.9.5-1 .2-.1 1.3-1.4 1.3-1.4.2-.4.3-.6.4-1-.6-.4-.9-.5-1.6-.9 0 0-1.6.7-1.7.9l-.7 1.4c-.9 0-1.3 0-2.2-.1-.3-.7-.4-1-.7-1.6-.2-.3-.3-.5-.4-.8.4-.7.6-1.1 1.1-1.8l.7-1.4c0-.2.7-1.2.7-1.2 1-.3 1.5-.4 2.5-.7.3.3.5.4.8.7.6 0 .9-.1 1.5-.1 0 0 .6-.8.8-.7s2 .2 2 .2.3 1.3.4 1.4c.1.2.6 1.7.6 1.7s.9-.3 1.2-.7c.2-.2.3-.9.3-1.5.1-.7.1-1.3.1-1.3.5-.7.7-1 1.2-1.6.4-.4.7-.7 1-.9.3-.3.6-.6 1-.9 0 0 .4-.8.8-1.5.4-.8.9-1.6 1-1.6.1-.1.8-.5 1.4-.9l1.2-.8c.8-.4 1.1-.6 1.9-1 .8-.7 1.2-1 1.9-1.8.5.4.7.6 1.2.9 0 0-.5 1-.1.9.2 0 .9-.3 1.6-.6l1.4-.6c.4-.4.7-.6 1.1-.9-.5 0-.8 0-1.3.1-.5-.2-.7-.2-1.2-.4.2-.6.3-.9.6-1.5-.1-.3-.2-.4-.4-.6-.5 0-.8.1-1.3.1.6-.5.9-.8 1.5-1.4.8.2 1.3.4 2.1.6 0 0 1.3-.2 1.5-.4.2-.2 1.5-1 1.5-1l.5.5c-.7.8-1.1 1.2-1.8 2-.2.4-.3.6-.4 1 .7.2 1 .2 1.7.4.5.2.7.2 1.2.4.3-.7.4-1.1.7-1.8-.2-.5-.3-.7-.5-1.2 0-.5 0-.8.1-1.4.2-.6.3-.8.4-1.4 0 0-1.1-.9-1.2-.9-.2-.1-.9-1.7-.7-1.9.2-.2.1-2.3.1-2.3 0-.5-.1-.8-.1-1.3-.5.6-.8.8-1.3 1.4-.6-.1-.9-.2-1.5-.3 0 0-.2-1.4 0-1.9.3-.5-.7-1.4-.7-1.4s-1.4.5-1.4.7c-.1.2-1.2 1.6-1.2 1.6-.6.7-1 1-1.6 1.7.1.5.1.8.1 1.3-.5.7-.8 1-1.4 1.7-.4.1-.6.2-1 .4-.2.5-.4.8-.6 1.3-.4.6-.6.8-1.1 1.4-.2 0-.3 0-.6-.1.1-.6.3-1 .4-1.4.1-.4.2-.9.4-1.4-.3-.3-.4-.4-.7-.6-.4-.3-.6-.5-1-.8-.4-.6-.6-.9-.9-1.4.1-.6.1-.9.2-1.6l1-1 1-1s1.8-1 2-1.1c.2-.1 1.5-1.3 1.5-1.3.8-.4 1.2-.6 1.9-1.1 0 0-.7-.5-.4-.7.1-.1.9-.4 1.7-.8.7-.3 1.4-.7 1.4-.7s.9-.1 1.1-.7c.2-.6.1-1.2.1-1.2-.5-.2-.7-.3-1.2-.5-.5.6-.8.9-1.3 1.5v-1.6s-.5-.8 0-1.6.9-2.1.9-2.1-1.7.7-1.8 1.2c-.1.5-.9 1.8-1 2.1-.1.3-1.2 1.2-1.2 1.2s-.9.7-1.3.6c-.4-.1-.9-.6-.9-.6-.7-.3-1-.4-1.6-.7-.2.1-.3.2-.4.3-.4.5-.6.7-1 1.2-.4-.1-.6-.2-1-.4-.6-.1-1-.2-1.6-.3.3-.5.4-.8.7-1.4-.3-.3-.4-.5-.6-.8l-.6-.3c-.1-.3-.1-.4-.2-.7-.1 0-.2 0-.3.1-.6.4-1 .6-1.6 1-.5-.1-.8-.1-1.3-.1h-1.3c-.1-.4-.1-.6-.2-1 0 0-.9-.3-.9-.4 0-.2-.1-.6.1-.9.2-.3-.3-.5-.3-.5-.9.4-1.3.5-2.2.9 0 0-1.7.9-1.9 1.1-.3.2-1.1.7-1.1.7-.1 0-.2-.1-.3-.1 0 0-.7.5-.8.6-.1.1-1.3 1.2-1.3 1.2-.1.3-.2.5-.2.8-.4.3-.7.5-1.1.8-.3 0-.4 0-.6-.1-.1-.1-.1-.2-.1-.2s-1.3.6-1.6.9c-.4.3-1.2 1-1.1 1.1.1.1.8.1.8.1l-1.5 1s-.9.5-1.4.7c-.5.2-1.7.9-1.9 1-.2.2-1.6 1.4-1.9 1.6-.3.2-1.6.9-1.6.9s.2.5.2.6c0 .2 1 .6 1 .6l-2.4 1.2-2 1c-1.1.5-2.2 1.1-2.5 1.2-.6.2-1.1.4-2.4 1-.7.3-1.3.5-1.8.7-.5.2-.8.3-.8.3s-.3.4 0 .3c.1 0 .6-.1 1.2-.3.6-.2 1.3-.4 1.8-.6.5-.2 1.3-.5 2-.8.7-.3 1.4-.5 1.6-.7.5-.3 1.2-.6 1.8-.9.6-.3 2-.9 2.3-1.1.3-.2 1.8-.8 1.8-.8l-1.5 1h.5s1.1-.7 1.3-1c.3-.3.7-.8 1.5-1.4s1.7-1 1.7-1c-.3.4-.4.6-.7 1.1 0 0 2.2-1 2.4-1.1s.6.2.3.8c-.4.5-.7 1.6-.3 1.7.4.1 1.1.7 1.1.7-.5.7-.7 1.1-1.2 1.9 0 .4-.1.6-.1.9-.3.6-.4.9-.7 1.6-.2.6-.4.9-.6 1.5 0 0-1.3 1.2-1.2 1.5 0 .3.3 1.3.2 1.6-.1.3-1.8 2-1.8 2-.7.6-1.1.8-1.8 1.4-.3.5-.6.8-.8 1.2-.2.4-.5.7-.8 1.2-.1.9-.2 1.3-.3 2.2.1.6.2.9.4 1.5.4.4.6.6 1.1 1 .2.2.3.4.5.6-.3.4-.4.7-.7 1.1 0 0 .2 1.6.3 2.1.1.5-.1 1.1.2 1.6.2.6 1.2 1.6 1.2 1.6.4.1.6.1.9.2v-1s-.8-.7-1-1.2l-.6-1.5s.3-.9.3-1.3c.1-.5.4-.9.4-.9s.2.9.2 1.2c0 .3.6 1.8.7 1.9l.6 1.2c.1.2.7 1.2.7 1.2s.7 1.5.8 1.8c.1.3.7 1.3.9 1.5.1.1.6.3 1.2.5s1.1.4 1.3.5c.4.2 1.6 1.5 1.6 1.5s.8.3 1 .2c.3-.1 1-.5 1-.5.2.4.4.6.6 1l.8.8s1.3-.2 1.7.1c.3.3.9 1 1 1.1.2.2.8 1.4.8 1.4s.6.9.9 1.2c.9.8 1.6.8 2.3.6.8-.9 1.5-1.4 2.4-1.1zm6.7-51.6c-.4.4-.6.6-1.1 1 .1.6.1.8.3 1.4.1.3.2.5.3.8.5-.4.7-.7 1.2-1.1.7-.1 1.1-.2 1.8-.3.1.3.1.4.2.7.7-.4 1.1-.5 1.8-.9l.2-.4.4-1.2c.1-.3 1-1.7 1-1.9 0-.2-.7-.1-.7-.1-.4.4-.5.6-.9 1 .1-.4.2-.5.3-.9-.5.4-.8.6-1.3.9 0 0 0-1.3.1-1.7.1-.4-.3-1.3-.4-1.4 0-.1-.6-.7-.6-.7s-1.5 1.2-1.7 1.4c-.1.1-.7.6-1.3 1.1l-1.2 1c-.1.6-.2 1-.2 1.6.6-.5 1-.7 1.6-1.2.1.5.2.6.2.9zm8.3-3.3c-.4.1-.6.1-.9.2-.4.9-.6 1.3-.9 2.2l-.3.6c.3.1.4.1.7.1 0 0 .5-.4.9-.9.5-.5 1-1 1.2-1.1.3-.3.7-1.3.7-1.3-.5.4-.7.7-1.1 1.1-.2-.3-.2-.5-.3-.9zm-2.6-1.6c-.2.7-.2 1.1 0 1.2.2.2.9.2 1.2 0 .2-.2 1.5-.6 1.5-.6l.2.2c.3-.1.4-.1.7-.2 0 0-.1-.6-.1-.8 0-.1-.3.1-.1-.6.2-.7.4-1.2.4-1.2s-.2-.5-.6-.1c-.4.5-1.3 1.1-1.3 1.1-.1-.5-.1-.8-.1-1.3 0 0 1.6-.6 1.2-.8-.4-.2-.5-.6-1.1-.3-.7.3-1.5.7-1.8 1-.3.3-1.1 1-.7 1.3.2.5.9.4.6 1.1zm4.6-2.7c.3-.2 1-1 1-1s-.4-.3-.6-.4-.6.7-.6.7c-.1.1-.2.1-.3.2-.1-.1.2.7.5.5zm-.1 3.9c.5.4 1.1.3 1.1.3s.3-.5.3-.6c0-.1-.1-.7-.1-.9 0-.1-.1-.8-.3-1.2-.2-.4-.8-.2-.8-.2s-.4 1.3-.5 1.6c-.2.4-.2.6.3 1zm2.2.8c.2.1.3.1.6.2 0 0 .9.3 1.2.3.3 0 1.7-.4 1.8-.6.2-.2 0-.7 0-1.3 0-.5-1.3 0-1.5-.3-.1-.3-.5-.1-.8-.6-.3-.4-.4-1-.7-1.2-.2-.2-.9.9-.9 1 .1.1.1.9 0 1.2-.1.4.3 1.3.3 1.3zm-1.2 1.7c.4-.2.3-.7.3-.7s-.8-.4-1.1-.3c-.4 0-.6 1.3-.8 1.7.3-.1.4-.1.7-.1-.1-.1.5-.4.9-.6zm-1.1 1.6c-.3.4-.9.7-.9.7.4.3.6.5 1 .8 0 0 .2.3.5.9.3.5.4.9.4.9.6-.5.9-.7 1.6-1.2 0 0 0 .3-.1.4-.1.2-.1.8-.1 1.3s.6.5.7.7c.1.2.3.8.3.8s-1 .8-1.2 1.3c-.2.4-.7-.1-1 .4-.3.5-1.2.8-1.5.7-.3 0-1.2.9-1.2.9s1.6.1 2.1.1c.5-.1.4.2.5.7.1.4.4 1 .4 1.3 0 .3.8.6 1 .5.3-.1.4-2.1.4-2.1s.2.2.4.6c.3.4 1.1-.1 1.1-.1s.1-.9.2-1.3c0-.3-.4-.7-.5-1 0-.3.5-.9.7-1.1.2-.2.5 1.1.6 1.5.1.4.5-.4.5-.4s1.1-.7 1.2-1c.2-.2-.1-.9-.1-.9-.2-.3-.3-.5-.4-.8.1-.5.2-.8.4-1.3 0 0 .3-1.6.1-2.1-.2-.5-.8-.8-.8-.8s-1.2-.1-1.2-.4c.1-.3 1.2-1.7-.3-.9-.4.2-.3-1-.3-1s-2 .3-2.1.4c-.1.1-.9.3-1 .2.1-.2-1.1 1-1.4 1.3zm2.4-7.9c.6 0 1 .1 1.2.2.2 0 .3-.1.4-.1.3-.6.5-.9.8-1.5 0 0-.7 0-.9-.4-.2-.4-.5-.6-.5-.6s-.8.6-1.2 1c-.4.4-.5.7-.5.8.1.1.1.5.7.6zm3.6 0c.7-.6 1-.8 1.7-1.4.4-.4.6-.5 1.1-.9.7-.1 1-.1 1.7-.2-.1.4-.1.6-.1 1.1-.4-.1-.6-.1-1-.2-.4.5-.7.8-1.1 1.3-.2-.3-.2-.4-.4-.7-.3.3-.5.5-.9.8 0 0 .1.7.2.8 0 .1-.4.8-.4.8s-.7-1-.8-.9c-.2.1-.9 1-.9 1 .2.1.3.1.5.2 0 0 1.1.8 1.2.9s1 .4 1.1.3 1.1-.9 1.1-1c0-.1.7-.7.7-.7s1.3-1.9 1.4-2.1c.1-.1.5-.7.9-1.3.4-.6.9-1.2 1-1.3.3-.2 2.2-.7 2.2-.7.7-.8 1.1-1.2 1.8-2-.8.1-1.3.2-2.1.4 0 0-.8 1.2-1.2.7-.4-.4-1.3.2-1.3.2s-1.6.3-2.5.2c-1 0-1 .2-1 .2s-.4.9-.5 1.1l-.4.8-.5-.5v-1c-.3.3-.5.4-.9.7-.4.5-.6.7-.9 1.2-.2.3-.3.4-.6.7 0 .3-.1.4-.1.7.2.2.3.3.6.5.1.1.2.2.4.3zm21.4-4.3zm-4 17.4s.6-.1 1-.6c.3-.5 1-1.1 1-1.1s1-1.5 1-1.7c.1-.2 0-1.1 0-1.3 0-.2-.1-.7-.1-.7.5-.2.8-.3 1.3-.5.1-.2.1-.3.2-.5 0 0-.1-.8-.2-.9-.1-.1-.7-1.1-.7-1.1.2-.3.3-.5.5-.8 0 0 .8.9.9.7.1-.2-.1-.7 0-1 0-.4-.2-.9-.2-.9l-.4-.2s.2-.8.4-.7c.1.1.5-.4.5-.4.1-.9.1-1.3.2-2.2l1.1-1.1c.4-.5.7-.9.9-1.2.3-.4.6-.7.9-1.2-.7-.3-1.1-.4-1.7-.7-.5.4-.8.5-1.4.9-.3.4-.5.6-.8 1 0 0-.3-.3-.4-.7-.1-.3-.1-.4-.1-.4-.3 0-.5-.1-.8-.1 0 0-.4-1.1-.6-1.5-.1-.3-.6.5-.6.5-.7.1-1.1.1-1.8.2-.4 0-.6.1-1 .1-.5.6-.8.8-1.4 1.4-.2 0-.3-.1-.6-.1v-.6l-.7.7c-.6-.3-.9-.5-1.5-.8 0 0-1.5.2-1.6.2-.2.1-.7.5-.7.5-.3 0-.4.1-.7.1 0 0-1.2.7-1.4.9-.2.1-.4.1-.4.1l-.7 1.4-1 1c-.5.7-.8 1.1-1.3 1.9-.3.5-.5.8-.8 1.3.1.5.2.8.3 1.3l.6-.3s.7.1 1 .1c.3 0 1 .4 1 .4s.2.4 0 .6c-.1.1-.1 1-.2 1.4-.1.4.3.6.5.7.2 0-.1.4-.2.7-.1.2-.7 1.1-.7 1.1s.4.1.7.1c.4 0 .7.4 1 .5.3.1-.3.6-.5.5-.2 0-1 .4-1.2.6-.2.1-.8.3-1.1.5-.3.2-.1.8-.1.8s1.3-.2 1.3-.4 1-.4 1-.4-.1.4-.5 1.3c-.3.8-.4.6-1.1 1.5-.6.9-.2.9-.2.9l-.9.9c-.4.4-.4 1.4-.4 1.6 0 .2-.1 1.3-.1 1.4 0 .1.1 1.2.1 1.2s.4.8.4 1c.1.2 1.8.8 2.1.7.3-.1.3-.2.5-.4.1-.2.4-.5.8-1s.3-.4.5-.7c.2-.3.9-1.3 1-1.6.1-.2.9-1.7.9-1.7s.6.2 1.2-.1c.7-.3.9-.4.9-.4s1.3-.4 1.5-.8.3-.8.4-1.3c.1-.5 1.3-.3 1.7-.6.8-.7 1.5 0 1.5 0zm1.1 5.3s.7 0 1.4-.1 1.2-.5 1.7-.7c.5-.2.1-1.3.1-1.7 0-.4-.4-.6-.6-.6-.2 0-.5.1-.7 0-.2-.1-.8.8-1.3.3s-1.4.1-2.2.5c-.9.3-.3.6-.4 1.5-.1 1 1.4.7 2 .8zm14.9-14.7c.1.1 1.1 0 1.1 0 .1-.2.1-.3.1-.5.3-.1 1.6-1.1 1.6-1.1s.4.2.5.6c.1.3.9 1 1 .6.1-.4-.5-2.4-.5-2.4s-.9-.6-.3-.6c.7 0 1.4-.1 1.6.4.2.5.7.8.7.8s.5-1.1-.5-1.9c-1-.7-1.2-1-1.5-1-.3 0-1.3-.5-1.8 0s-.7.6-.9.9c-.1.3-1-.5-1.4 0-.4.5-.6.3-.7.7-.1.4-.1.7-.2 1.2s-.3.9 0 1.3c.4.3 1 .9 1.2 1zm12.2-4.9c.1-.3 0-.6-.1-.8-.1-.2-.4-.6-.4-.6-.2.3-.3.4-.4.7.3.5.4.8.7 1.3-.1 0 .1-.3.2-.6zm1.7-.5c.1 0 .6-.3 1.2-.5s1.2-.6 1.5-.8c.7-.4-.1-.6-.1-.6s-.3-.6-.5-.7c-.3-.2-.7.2-1 .4-.3.2-.2.3-.3 1.3 0 .2-.1.4-.1.4-.1.1-.3-.5-.4-.7-.1-.2-.2-1.1-.3-1.7-.2-.6-.3.6-.6 1.2s-.3 1.1-.5 1.3c.2.2.3.2.4.4-.1-.1.4 0 .7 0zm-24.9 30.3s.7.2.8 0c.1-.2.6-.5.9-.7.3-.2.5-.9.7-1.3.2-.4.1-.5 0-.7 0-.2-.6-.4-.9.3-.2.3-.5.5-1 .7-.4.2-.9.4-1.3.7-.7.7.6 1.1.8 1zm2.1-6.1s-.4.6-.4.8c0 .2.2.4.5.8s1 .6 1 .6v1.5s.2.4.2 1-.1.6-.2.7c-.1.1-.2.6-.7 1.1-.5.5-.3 1.3-.3 1.3s.7-.6 1.3-1c.6-.4 0 0 .7-.3s1.4-.6 1.6-.7c.2-.1.5-.6.4-.8-.1-.2 0-.7 0-.7s-.6-.7-.8-1.2c-.2-.5-.7-.3-.9-.4-.2-.1 0-.7 0-.7s.1-.8 0-1.1.1-1 0-1.2c0-.2-.7 0-1 .3-.4.2-.5.4-.8.5-.3 0-.6-.5-.6-.5zm51.3-22.5s.6.7.8.8c.2 0 1.5.5 1.5.5-.1-.1-.2-.2-.3-.4-.2-.1-2-.9-2-.9zm-1.6-.9c.5.4 1 .6 1 .6l.1-.3c.1-.2 0 0 .3-.1s.6.2.6.2.2-.1.2-.3c0-.2.1-.2.1-.2s.6.2 1.3.5c.7.2.3 0 .3-.2s-.7-.9-1-1.1c-.3-.2 0 0 0 .1s-.5.3-.5.3-.8-.5-1.7-.9c-.9-.4-.1.1-.3-.1-.3-.1-.7-.4-.7-.4-.1 0-.2-.1-.3-.1-.2.3-.3.5-.5.8.2.3.3.4.5.7-.2 0 .1.2.6.5zm14 3.9c.2.3.8.6.8.6.1.1.2.1.3.1 0 0 .7.5.5.2-.1-.2-.3-.3-.3-.3s-.5-.3-.9-.6-.7-.4-.7-.4.1.1.3.4zm21.5 28.6s-.6-.1-1.4-.5c-.7-.4 0 0-.3-.4s-.2-.6-.2-.6.3.3.6.2c.4 0-.5-.5-.5-.5-.3-.1-.4-.1-.6-.2 0 0-.4-.4-.7-.9-.4-.5-.8-1.1-1-1.4-.3-.6 0 0 .2.1s.7.5 1.2.7c.4.1-.3-.2-.4-.5-.2-.2-.5-.4-.9-.7-.4-.3-.5-.2-.9-.7-.4-.4-1-.8-1.3-1-.3-.3-.8-.6-1.2-1-.4-.3-.7-.8-1-1.2-.3-.4-.7-.5-.7-.5.1.2.2.3.3.5 0 0 .4.7.5.9.1.2.4.5.8.8.4.4 1 .8 1.7 1.4.7.6.5.5 1 1 .5.4.9.9.9.9s.1.3 0 .9c-.1.6.4.9.4 1 0 .1 1.1.8 1.8 1.2.7.4.3.6.3 1s-.1.4-.2.8c-.1.3.7.9.7.9l.5.5s.9 1 1 1.1c.1.1.1.4-.1.7-.2.4.4.7.4 1.2s.2.6.2.6v.8c0 .6-1.2.5-1.5.6-.3.1-.5.3-.6.7-.1.3-.5.2-.9.8-.4.5.8.6.8.6s.3.1.6.5.8.1 1 .1c0 0 .3-.5.3-.6 0-.1.3-.2.8-.4.4-.1.4-.6.4-.8.1-.2.2-.4.6-.6.4-.2.6-.1.9-.1.4 0 0 0 .9-.2s.2-.3.2-.3-.2-.4-.6-.9c-.3-.4-.3-.5-.3-.5s-.6-1.1-.8-1.4c-.2-.3-.6-.6-.8-.9-.2-.3-.5-.5-.9-.9-.4-.3-.9-.8-1-1-.1-.1-.2-.3.3-.2.5 0 0 0 .5-.2s.6.1.9-.1c.3-.2 0 0-.1-.2s-.1-.3-.1-.3 0-.3.3-.7c.3-.4 0-.5 0-1 0-.4-.1-.3.4-.6s-.2-.8-.2-.8-.7.2-.9.2c-.2.1-.1.9-.4 1.4-.5.7-.9.7-.9.7zm-15.9 36.2c.2.2.9-.1.9-.1l.5-.8c.5-.8.6-.6.6-.6.5-.4.8-.6 1.3-.9.1-.3.1-.4.2-.7 0 0-1.6.1-2.1.1s0 0-.6-.1c-.3-.4-.5-.6-.8-1.1l-.3-.4c-.3-.4-1.2-.9-1.2-.9-.3-.5-.4-.8-.8-1.3-.4-.3-.6-.4-1-.7h-.7c0 .3-.1.5-.1.9.2.2.3.3.6.5 0 0 .5.5.7.8.3.4.6.4 1 .5.4.1.3.7.3 1 .1.3.1.7.3 1.3.2.5.5.8.3 1.4-.3.7.7.9.9 1.1zm4.6-5.3zm2.9 4.6c.5.3 0 0 .3.1s.4-1 .6-1.6c.2-.6.3-.6.9-1.6.6-.9.8-.6 1.4-1.2.7-.7 0 0-.4-.4s.2-1.1.3-1.7l.2-1.2-.2-.6c-.2-.6-.4-.6-.4-.6s-1.1.9-1.4 1.1c-.3.2-.6.6-.9 1-.1.2-.5.5-.9.8-.4.3-.9.6-1.4.9-.8.4-.9.5-.9.5-.1.5-.1.8-.3 1.3 0 0 .4.4.2 1.1 0 0 .1.6.4.9s1.3-.2 1.8-.1c-.1-.2.2 1 .7 1.3zm6.2-12s1.1-.4 1.6-.9-.1-.3-.8-.5c-.7-.2-.5-.3-.9-.7-.3-.3-.3-.7-.6-1.4s-.4-1-.4-1c-.1.2-.2.4-.4.6 0 0-.1 1.2-.1 1.9.2.8 1.6 2 1.6 2zm2.9 3.2c-.1-.3-.5-1-.5-1s-.4-.4-.4-.8c-.1-.4-.3-1.5-.3-1.5s-.8.5-1.1.8c-.2.4-.1.6-.1.6-.3.6-.5 1-.9 1.6 0 0 1.1.8 1.5 1.1.3.3-.2 1.1-.2 1.1s1.5-.9 1.9-1.2c.3-.2.2-.4.1-.7zm-2.5 4c-.6.4-1.3.2-1.6.1-.3-.1-.5-.4-1 .1-.4.4-.7-.2-.8.8-.1 1-.1 1.5-.6 2.1-.5.7.2.8.2.8s0 .1.5-.6l.5-.7s0 .3.3.7c.3.3 1.4.5 1.4.5-.5-.2-.2-1.2-.5-1.5-.2-.3.2-.9.2-.9.8-.3 1.2-.4 2-.7 0 0 1.3-.4 1.1-.8-.2-.4.3-1.1.3-1.1s-1.4.8-2 1.2zm-.9 6.2l.2-.5s.2-.4-.9.1-1.6.7-1.6.7c-.4.5-.6.7-1 1.1.5-.2.7-.3 1.2-.4 0 0 1.9-.5 2.1-1zm-5.2 1.5c.3 0 .4 0 .7-.1.1-.2.2-.4.4-.6.5-.3.7-.4 1.2-.6 0 0-.2-.1-1.1.1-.8.2-.6 0-1.3.1-.7.1-1.4.4-1.4.4l.2.1c.2.2.6.3 1.3.6zm-5.6-1.1c.5.3 1.3.5 1.9.7.6.1 1.1.2 1.1.2s1.1-.6.6-.8c-.5-.2-.1-1-.1-1-.1 0-.2 0-.6.1-.8.1-.6.1-1.8.2-1.1.1-1.5-.4-1.5-.4-.4.3-.7.4-1.1.7.2.2.3.3.6.5.1-.2-.1-.9.9-.2zm3.6-1c.1 0 0 0 0 0zm22.3-.4c-.3-.1-.4-.1-.6-.2 0 0-.2-.1-.3-.2-.1-.2.1-.7 0-.9-.1-.2-.8.1-.8.1.1-.4.1-.6.1-1 0 0 0-.4-.4-.5-.4-.1-.4-.3-.5-.6-.1-.3-.7-.2-2.2-.6-.4-.1-.6-.2-.7-.2.1.1.1.2-.1.5-.5.6 0 0-.6.2s-1.4.6-1.4.6c-.1-.2-.2-.3-.4-.4 0 0 .2-.8.3-1 .2-.2-1.1-.4-1.1-.4-.4 0-.6.1-1.1.1-.3.2-.5.4-.8.6 0 0-.2.4-.3 1-.1.6 1.4-.1 1.4-.1s-.2.3-.5 1.3.9-.1.9-.1.3.4 2.1 1-.2.4-.2.4-.4.9-.6 1.4c.5-.2.7-.3 1.2-.5l.6.2c.6.2 0 .3.7.3s.8-.1.8-.1c.3-.3.4-.4.6-.7 0 0 1 0 1.3.1.3.1-.1.3-.2.7 0 .4 0 0 .9.6s.7-.1 1.3-.2c.6-.1.4-.7.4-.7.3-.5.3-.6.2-.7zm-5.4-4.2c-.1-.1-.1-.1 0 0zm8.9.7c0-.3 0-.5-.1-.8-.1-.3-.6-.4-.6-.4s-.9.4-1.2.9c-.3.5.1.4.1.4.2 0 .3 0 .5-.1-.4.3-.6.4-1.1.7-.3 0-.5.1-.8.1.1.2.1.3.1.6l1.2-.3c1.2-.3.5-.1 1.2-.2.9.1.7-.6.7-.9zm-11.1 6.9c-.4.5-.2.4-1 1.2-.8.8-.9 1.1-1.8 1.8s-.7-.3-.9-.5c-.2-.1-.4-.8-.3-1.1.1-.3 1.1-1.2 1.3-1.5.1-.3-.3-.3-.3-.3s-.8.5-1-1c-.1-.7-.6-.5-1-.2-.5.4-.9.9-.9.9s-.1.8-.6 1.4c-.3.3-.7.6-1.3.9-.5.3-1.1.5-1.5.5-.8 0-.2-1-.2-1-.6.5-1 .7-1.6 1.2-.4 0-.6 0-1 .1 0 0-.8.8-1.3 1.6-.3.4-.7.7-1.1.9s-.8.5-1.1.7c-.5.4-.6.3-2.5.7-1 .2-1.5.5-2 .9s-.9.8-1.5 1.2c-.7.4-1 .8-1.2 1.2-.2.4-.3.8-.6 1.1-.5.6 0 .4-.8 1.7-.4.6-.6.9-.7 1.3-.2.4-.3.7-.7 1.4-.8 1.4-1.1.8-1.8 1.5s-1.7.8-1.7.8.6.3 1.3 1c.7.7 0 0 .6-.4s1.2-.9 1.2-.9 1.2-.4 1.6-.1c.4.3.7.1 1.6-.3.9-.4.3-.5.3-.5s1.1-.7 2.3-1.3c1.2-.5.7-.3.7-.3l1.6-.2c1.6-.2.4.4.4.4s.2.2.1.8c-.1.5-.6.8-.6.8l2-1c-.6.5-1 .8-1.5 1.1-.4.3-.9.7-1.5 1.2 0 0 1.3-.9 2-1.1.7-.2-.1.6-.1.6-.6.7-.9 1-1.4 1.7 0 0 .4.2 1 .4.6.1.6-.2.6-.2l1.8-.9c1.3-.7.5 0 .8-.3.3-.3 1-.7 2.2-1.5s.7-.5 1.2-.9.9-.7 1.8-1.3c.4-.3.8-.5 1.2-.8.4-.3.7-.5 1.1-.9l1.2-.9c.4-.3.8-.5 1-.7.5-.4.5-.4.7-.7l.9-.9s.4-.5.8-.7c.4-.2.8-.9.8-.9s.5-.8.3-.9c-.2-.1.7-.8.7-.8-.1-.2-.1-.3-.2-.5 0 0 1-.9 1-1.3-.1-.4-.5-.3-.5-.3l.6-.9c.2-.3.1-.6.7-1.1.5-.5.6-1 .6-1-.3-.1-.5-.1-.8-.2 0 0 .6-.6.7-1.2.1-.7.7-1.2.7-1.2s-.4.3-.9.7c-.8.4-1.3.8-1.5 1zm-17.5 20.1c-.3 0-1.4.8-1.6.8-.2 0 .1-.5-.1-.4-.1 0-.6.5-1.2.9l-1 .8c-.3.6-.5.9-.9 1.5.3-.2.5-.2.8-.4 0 0 1-.8 1.8-1.2.8-.5 1.2-.9 1.2-.9s1.2-1.2 1-1.1zm11-4.8c-.9.6-1.9 1.4-2.3 1.6-.4.2-1 .6-1.7 1.1-.7.4-1.4.9-1.9 1.2-1 .6-.8.5-1.6.9-.4.2-1.3.7-2.1 1.2s-1.5.9-1.5.9-.8.7-.6.7c.2 0 0 0 .8-.5s.5-.3 2.1-1.2c1.6-.9 1-.6 1.6-1 .6-.4.7-.4 2-1.3.6-.4 1.7-1 2.6-1.5.9-.5 1.7-.9 1.9-1 1.3-.7 1.9-1.3 2.2-1.7.3-.4.2-.7.2-.7s-.8.7-1.7 1.3zm-49.3-12.6s-.2.3-.5.7c-.3.4-.7 1-1.2 1.5-.8 1.1-.9.1-.9.1l-.1.3c-.1.3-.4 1-.9 2.3-1 2.7 0 0-.4 1.5s.1.5-.7 1.2c-.8.7-.1.9-.2 1.5-.1.5 1.3.6 1.3.6.4-.3.6-.4.9-.7 0 0 1.5-.6 1.7-1 .2-.4.2-1 .2-1.5.1-.4.5-1.3.9-1.9.4-.6-.3-1.7.4-2.4.7-.8.4-1.5.3-2.1-.2-.8-.8-.1-.8-.1zm-54.6 28.3c-.8 0-.8-.2-.9-.2-.1.1.3.8.3.8l1.3.9c1.3.9.2-.1.6-.3.4-.2 0-.6-.5-1.3-.5-.7 0 .1-.8.1zm8.2 1.2c-.5-.5-.2.7-.2.7.2.1.3.1.5.2.2 0 .3 0 .4.1-.1 0-.2-.5-.7-1zm69.6-44.1c0-.7-.3-.1-.9 0-.5.1-.9 0-.9 0s.5 2.3.6 2.6c.4-.2.6-.3.9-.4 0 0 .2-.5.1-1.1 0-.6.3-.4.2-1.1zm2.6-8.6c-.3.3-.4.5-.6.8 0 0 1.1-1.7-.9.1-1 .9-1.5 1.4-1.8 1.8-.3.3-.3.4-.3.4v.9c0 .3-.1 1.3-.1 1.3s-.2.7-.3 1.1c-.1.3-.1.9-.3 1.1-.2.2-.3.5-.4.8-.1.3-.5.6-.5.6-.3.2-.5.3-.8.5-.3-.7-.4-1.1-.7-1.8 0 0 1.8.8-.7-.9-1.2-.8-1.8-1.3-2.1-1.5l-.3-.2s-.6-.4 0-1.4c.5-1 .7-.3.7-1.3-.1-1 .5-.2-.1-1s-.1-.5-.6-.8c-.4-.3-2.2.5-2.2.5s-.6-.9-.6-1.3c.1-.4.8.5.1-.4-.7-1 .2-.8-1.1-1.2-.6-.2-1.4-.4-2-.6-.6-.2-1-.3-1.1-.3-.2.1-2 .5-2.2.7-.1.1 0 .1 0 .1s-.2-.2-.9-.5c-1.4-.6-1.5-.7-1.8-.8-.3-.1-1.1-.1-1.1-.1s-.1-.1-.7-.8c-.6-.6.4-.2-.6-.6-.9-.4-1.7-.6-1.7-.6s.2 1.9.4 2c.2.1.7.4.9.6.3.2.7.4.9.6.3.2.5.5 1.2.1.6-.3 1.4-.1 1.7.3.3.4.3.7.7 1 .4.3.9.1 1.1.3.2.1.2 1 .2 1.2 0 .2-.5.7-.9 1.2-.4.6-.7 1.1-.7 1.4-.1.3.6.5-.6.9s-1.5.3-2.2.6c-.7.4-.7.4-1.2.7-.5.4-1.7.5-2 .6-.3.1-1 .8-1 .8s-1.3-.6-1.5-1.2c-.2-.6-.1-.6-.3-1.4-.2-.7-.8-1.6-.8-1.7 0 .1 0 .2-.7-.3-.9-.6-.9 0-1.1-.9-.1-.9 0-.1-.1-.9s.1-1-.9-1.6c-.5-.3-1-.9-1.5-1.4-.4-.5-.7-1-.7-1-.6.2-1.2 0-.8 1.3.4 1.3.4 1.2.9 2s.8.8 1.1 1.5c.3.6.5 1.4 1 2 .5.6 1.7 1.4 1.8 1.7.1.3.3.7.5 1 .1.3.6.8 1 1 .4.3 1 .9 1.1 1.1.1.2.8 1 1.5.9.7-.1 1.7.1 2.2-.5.5-.6 1.1-1 1.1-1s.9 0 .5.8c-.2.4-.6 1.3-1 2s-.7 1.4-.7 1.4-1.6.9-2.1 1.6c-.5.6-.7.9-1.1 1.4-.2.2-.5.5-.9.8-.4.3-.8.6-1.3 1-1 .8-1.3 1.2-1.3 1.4 0 .3-.1 2.2 0 2.6.1.4.5 1.2.4 1.7 0 .5.5.3-.3 1.6-.4.6-.7 1.2-1 1.6-.2.4-.4.7-.5.9-.1.2-.2.5-.5.9s-.7.9-1.2 1.4c-.6.5-1 .9-1.2 1.3-.2.4-.4.7-.4.9 0 .4 0 1.2-.1 1.6 0 .4.7.3-.3.8s-1.5.8-1.7 1.3c-.2.5-.6 1.3-.7 1.8-.1.5-.1.9-.6 1.1-.5.2-.7.4-1 .7l-1 1-.2.1s-.4.4-1.3.4-.5-.1-1.2 0c-.7.2-.7.2-.9 0-.2-.2-.3-.1-.4-.7-.1-.6-.1-.2-.3-1.3-.1-1.1 0-.5-.6-1.8-.5-1.3 0-1-1-2.3-1-1.3-.6-.6-1-1.3-.4-.7-.5-.1-.7-1.4-.2-1.3-.3-1.2-.3-1.6 0-.4-.2.1-.1-1.4s-.3-1.2.4-2 1.4-.2 1-1.4c-.4-1.2-.2-.5-.6-1.6-.4-1.1-.4-.6-.7-1.6-.3-1-.3 0-.3-1s.1-1.4-.1-2c-.2-.6-.2-.6-.7-1.1-.5-.5-1.1.3-.5-.5.6-.8.9-.9 1-1.6.1-.7.6-.3.1-.7-.6-.4.6-.7-1.7-1-2.3-.3-2.2.1-2.3-.3-.1-.4-.1-.9-.1-.9s-1.3-.1-2 .1c-.6.1-1.5.2-1.9.7s-.2.4-1.6.3h-1.3c-.4 0-2.1.3-2.2.1 0-.1-.1-.5-.3-1.1-.2-.5-.5-1.1-1.1-1.7-1.2-1-.9-.7-1.4-1.4-.5-.6-1.6-.9-1.6-2v-2.2s.1-.1 0-.4c-.1-.3-.4-.6-.5-2 0-.7-.3-1.1-.5-1.6-.1-.4-.1-.7.5-1.1 1.2-.8 1.4-.9 1.6-1.1.2-.3 1.1-2 1.1-2s.8-.4 1.2-.3c.4.1.8-.4.8-.9 0-.4.1-.7.3-1.4.2-.6.4-.9.5-1.1.1-.2 1.5-1.2 1.5-1.2 0-.3.1-.4.1-.7 0 0 .7-.2 1-.1.3.1 1.4.1 1.4.1s1-.4 1.6-.6c.6-.2.7-.3.9-.3.2 0 1.3-.2 1.7.3.4.5 1.6 0 1.6 0s1.4-.1 1.9 0c.4.1.8-1.3.9 0 .1 1.3.3 2.3.4 2.6.1.4.4.6.9.6h2.9s.1-.1.5.3.1.9.7.5 1.6-1.1 1.8-1.1c.2 0 .5-1 1.9-.1s2.1.9 2.1.9h1s1.2-.4 1.6-.3l.8.2v-1.2c.1-.2 0-.3.3-.9.3-.6.8-.9.5-1.4-.4-.5-.2-1-1.7-.5-1.6.5-1.9.3-2.1.5-.2.3-1.1 0-1.1 0s-.2.7-.9-.6c-.7-1.4-.8-1.9-.8-1.9s-.4-.8-.7-.9c-.2-.1-1.3-2.1-1.1-.4l.2 1.6s.6 1.1.6 1.4c0 .2-.1.8-.4.8h-.4s-1.2-1.3-1.4-1.6c-.2-.3-.8-1.1-.8-1.1s.2-.4.2-.8 0-1.1-.3-1.1-1.1-.1-1.3-.3c-.2-.1-.9-.8-.9-.8-.3-.2-.4-.3-.7-.6 0 0-.3-.4-.8-.6-.6-.1-1.3-.1-1 .3.3.4-.1.1.3.4.4.3 1.5.7 1.5.7l.5.5.9.9c.3.2.4.3.6.4.2.1.3.2.5.3-.4.2-.5.3-.9.4 0 0 0 .5.1.7.1.2-.2.7-.2.7-.3.2-.4.3-.6.6 0 0-.3.4-.6.4-.4 0-.9-.5-.9-.5s.4-.3 0-.5-.7-.1-.4-.2c.4-.1 1.1 0 1.1 0 .1 0 .2 0 .4-.1 0 0-.1-.4 0-.8l.1-.4s-.3-.5-.6-.5c-.4 0-.1-.1-.6-.3-.6-.2-1.1-.9-1.1-.9-.1-.2-.1-.3-.1-.4-.2-.3-.3-.5-.6-.8-.4-.1-.5-.1-.9-.1 0 .2 0 .3-.1.5s-.1.3-.1.4c0 0 .2.1-.8 0l-1-.1c-.2-.1-.3-.1-.5-.1 0 0-.6.4-.6.8s.2.5-.2.8c-.4.3-.9-.1-.9.4s.2.5 0 1-1.9.7-1.9.9c0 .2-.1.6-.1.6s.4.1-.4.3c-.8.2-1.5-.1-1.4.1.1.2 0 .4-1 0l-1-.4s.3-.1.3-.8c-.1-.6-.4-2.1-.4-2.1s-.1.6 0-.4c.1-.9.2-1.3.2-1.3s.7-.8 1.6-.4c.9.3 1.9.3 1.9.3.4-.2.7-.3 1.1-.6.2-.7.2-1.1.4-1.9 0 0-1.2-.7-1.4-.7-.2 0-1.5.4-1 0s.9-.5 1.3-.7c.4-.2 1.1-.2 1.3-.4.2-.1.9-1.1 1.3-1.4.4-.4.4-.5.7-.4.3.1.5-1.6.5-1.6s.2-.4.9-.3c.7.1 1.1-.3 1.2-.4.1-.1-.6-1-.5-1.3.1-.2.1-.3 0-.6 0-.4.1-.6.4-.6.3 0 .7-.9.7-.9s.1-.8.3-.1c.2.7.3 2 .5 2.5s.6 1.4.9 1c.3-.4 1-.9 1.3-.9.3 0 1.4.2 1.6 0 .2-.2.5-.9.9-1 .3-.1.7-.6.7-.6s-.2-.6 0-1.4c.1-.8 0-.9.3-1.2.3-.3.4-.6.6-.5.2.1 1.3.2 1.5.2.2.1 1.1-.5 1.1-.5.4-.1.5-.2.9-.3 0 0-1.2-1.1-1.6-1-.4.1-.4.4-1.1.5-.7.1-1.1 0-1.1 0-.3-.2-.5-.3-.8-.5 0 0-.1-.1-.1-.4 0-.2-.5-1.2-.2-1.4.3-.2.4-.7.6-.9.2-.2.8-.6.8-.6s.2-1.4-.2-1.5c-.4-.1-.8-.5-1-.3-.2.1-.6.6-.5 1.2.1.6.4 1.2.1 1.2-.3 0-.7-1.1-1.2 0-.4 1.1-.7 1.4-.5 1.7.1.3.3.5.5.7l.4.8s.9.3 0 .6-1 .4-1.1.7c-.2.3.2 1.3.4 1.3s1.3-.3 1.3-.3.1.6-.2 1.1c-.3.5 1.4 1-.8.8-2.2-.2-2.1.6-2.1.6-.1-.8-.3 0-.3-1.1-.1-1.1-.5-1.9-.5-1.9s-.1.2-.3 0c-.2-.2-.6.1-.6.3 0 .2-.8.4-.8.4-.1 0-.2 0-.3-.1-.6-.5-.9-.7-1.5-1.2.1-.7.2-1.1.4-1.8v-.9s1-.7 1.2-.9c.1-.1 1.2-.8 1.5-1.3.3-.5.6-1.3.8-1.5.1-.2.5-.8.5-.8.2-.6.4-.9.6-1.6 0 0 .5-.7-.4-.3l-.9.4s.8-1.5 1-1.6c.2-.1 1.2-.3 1.8-.6.3-.1 1-.3 1.6-.4.6-.1 1.3-.2 1.6-.4.6-.3.5-1.9 1.4-.7.9 1.2.2.7.9 1.2.4.3 1.3.7 2.1 1 .8.3 1.5.6 1.5.6s1.2.2 1 .7c-.1.5.1 1.5-.4 1.7-.5.2.5 1-1.5.2-1-.4-1.7-.8-2.2-1-.5-.2-.7-.4-.7-.4.4.5.7.9 1.1 1.3.3.4.6.8 1.1 1.3 0 0 .5.3.5.5s1 .8 1.2.5c.2-.3.5-.4 1-.9s1.5-.9 1.5-.9.8 0 .1-1.3c-.7-1.2-1.2-1.2-1.1-1.5.1-.3.3-.5.5-.9s.3-.9.3-.9c.4-.1.6-.2.9-.3.1.6.1 1 .2 1.6 0 0-.5 1.1.1.7.6-.4 1.6-1.8 1.6-1.8.6.7 1 .7 1 .7.5-.1.7-.1 1.2-.2 0 0 1.2.1.9-.3-.3-.4-.5-.6-1.1-.9-.7-.3-1.7-.9-1.9-.8-.3.1-1.1-.1-1.1-.1s-.8-.6-.9-1.1c-.1-.5.4-2.3.4-2.3s-.2-1.6.1-1.5c.2.1.5-.3.8-.5.2-.2.2-.7.5-1 .4-.3 1-.9 1-.9.4-.3.5-.5.9-.7 0 0 .7.2.6.6 0 .3-.6 1.5-1 1.7-.4.2-.3-.2-.9.5-.5.6-.8.9-.8 1.2 0 .3.1.8.2 1.2.1.4.1 1.1.1 1.1.1.3.1.5.1.8.5.2.8.4 1.3.6 0 0 1.5.2 1.7.3.2.1 1 .6 1 .6s.7.4.9.6c.2.2.7.4.7.4s1.5.1 1.2-.1c-.2-.2-.6-.5-1.6-1.2s-1.1-.9-1.2-1.1v-.8s.4-.6.3-.9c0-.2-.1-.7 0-1 .1-.3.2-1 .5-.7.3.3.4.8.7 1.3.3.5.2.8.5 1.1.3.2.2.6.6 1.1.4.5.7.9.7.9s.2-.9-.1-1.3c-.3-.4-.4-.6-.5-.9-.1-.3-.5-2-.5-2 .1-.2.1-.3.2-.5 0 0 .6.2.7.6.1.5.3 1 .3 1 .4 0 .6 0 1 .1v-.9c-.1-.2.3-.5.3-.5 0-.1 1.1-.8 1.1-.8.1-.1.1-.2.2-.4-.3-.8-.4-1.2-.7-2 0 0 1-.7 1.2-1 .2-.3.6-.6.9-.7.3-.1.9.3.8-.2-.2-.5.3-1.6-.2-1.9-.6-.3-.5-.9-1.3-.8-.7.1-.7-.1-1.2-.1-.6 0-1.3-.2-1.3-.2s-1-.9-.9-1.2c.1-.3-.3-.9.4-.8.7.1 1.6.4 1.8.7.2.2.8.2 1 .4.3.2-.5-1.3.6.2s1.4 1.5 1.4 1.5c.1.4.2.6.3 1.1 0 0 .3.2.5.2.2-.1.2-.6.6-.5.4 0 .4-.4.8.1.4.4.6.4.8.7.3.2.5.9.6 1.3.1.4-.1.5 0 1s.4 1.1.4 1.1.6-.6.6-.7c0-.1-.1.1 0-.1s.7.1.7.1.2.3.5.6 1.1.2 1.1.2c.7.2 1.1.2 1.9.4.3.1.5.1.9.2 0 0-.8-1.1-.7-1.2.2-.1 1.4-.1 1.6.1.2.3.6 1 .6 1s.5.3.8.7c.3.3 1 .8 1 .8.4.3.6.4 1.1.6 0 0 .4-.2 0-.6l-.9-.9s.1-.4.4-.2c.3.2 1.1.9 1.2.8.1-.1.4-.6.4-.6s-.8-.5-1-.9c-.2-.3-.1-.8-.1-.8s1-.1 1.3.1c.3.2 1.9 1 1.9 1s.7.4.6.1c-.1-.3-.8-1.1-.4-.7.5.3.5.3 1 .7.5.4 1.1.7 1.1.6.1-.1.4-.6.5-.6.1 0 .1-.2.8.2.6.5 1.3 1 1.4 1.1.1.1.4.3.5.4.2.1 1.2 0 1.2 0v-.1c0-.1-.9-1.3-.4-.8s1.3 1 1.5 1.2c.3.2 1 .7.5.2-.6-.5-1.2-1.1-1.1-1.1.1 0 1 .5 1 .4 0-.1.4-.2.4-.2l1 .5s.5.3 1.7 1.1c.6.4 1.1.7 1.6.9s.9.4 1.2.6c.3.2 1 .5 1.5.7l1 .5.8.6c.4.3 1.2 1 1.5 1.2.3.2.7.5.9.7.2.2-1.1-.3-1.4-.5-.3-.2-1.1-.7-2-1.2-.8-.5-1.2-.8-.8-.5.4.4 1.7 1.5 1.7 1.5s1.1.9 1.4 1.1c.3.3 1.5.8 2 1.2.5.4 1.3 1 1.3 1.1-.1.1.5.3-.3 0s-1.2-.4-1-.1c.3.3.8 1 1.1 1.4.3.4.2.5.3.7.1.1-.1 0-.4.1-.3 0-.5-.1-.5.2 0 .3.3.2 0 .3l-.2.1c.2.3.3.4.4.7 0 0 1.4 1.2 1.8 1.5.4.2 1.2.4 1.6.9.4.4 1.2 1.3 1.2 1.3s.2.3.1.6-.2.3.3.8c.4.5 1.3 1.3 1.6 1.7.3.4.7.9.7 1.2.1.3-.2.4 0 .8.1.3.1.9.1.9s-1-1.2-1.2-1.5c-.1-.3 0-.4-.8-.9-.7-.5-1.2-.7-1.6-1.1s-1.9-1.4-2-1.5c-.1-.2-.5-.7-.9-1.3-.4-.6-.5-.8-.8-1.3-.3-.5-.6-.5-.8-1.3-.3-.7-.7-1.4-.7-1.5-.1-.1.1-.4-.7-1.1-.8-.7-.2-.6-1.4-1.4-1.3-.8-1.8-1.4-1.2-.6.6.8 1.5 1.9 1.6 2.1.1.1.8.6 1.1.8.4.3.4.3-.9-.5s-1.7-1-1.9-1.2c-.2-.1-.2-.1-.6-.4-.7-.6-.1 0 .2.6.3.6.3.9.8 1.2.5.4 1.7 1 1.9 1.3.3.3-.5.4-.6.5-.2.1 1.1 1-.5.1-.8-.5-1.4-.9-1.9-1.2-.5-.3-.7-.5-.7-.5s-.2.6-.3.7c-.1.1-.9.3-1.1.2-.2 0-.1.1-.3.5-.1.3-.3 1-.1 1.5.2.5.8 1.7 1.3 2.1.4.5 1.1.8 1.1.8s-.5-.4.5 0 1.7.9 1.7.9c.5.6.7.9 1.1 1.4 0 0 1.8 1.3 1.9 1.6.1.3 1.1 1.6 1.2 1.8.1.2.3.7.2 1.1 0 .4.2 1 .2 1s.1.3.2.5.3.6.3 1c.1.4.4 1.2.4 1.2s1.5.8-.2.3c-1.7-.6-1.4-.9-1.7-.6-.2.3-.4.5.3 1.5.6 1 1 1.5 1 1.5-.3.3-.2 1.2 0 1.3.2.1 1.6 1 1.7 1.3.1.2-.6 1-1.1 1.1-.5.1-.2 1.3-1.2-.1-1-1.4-.7-1.4-1.3-2.1l-1.2-1.4s-.1-.7-.5-.4c-.5.3 0 1.1-.6.8-.6-.3-1.7-1.7-1.7-1.7s-.8 1-.7 1.4c.1.4 1.3 1.2 1.6 1.4.3.1.8-.9.9-.2.2.7.1 2.1.1 2.1s.6.8.8 1.1c.3.3 1.3.8 1.3.8.6.7.9 1.1 1.5 1.8 0 0 .1.5.1.8 0 .3-.1.5-.2.9s-.6 1.5-.6 1.8c-.1.2-.5.6-.9 1.1-.4.5-.3.5-1.1.7-.9.2-1.7.3-1.9.4-.2.1.4.6-.5.7-.9.1-1.4-.6-2.2.2-.4.4-.9.9-1.3 1.2-.4.4-.6.7-.4.7.4.1.7-.9 1.1 0 .2.5 1 .9 1.7 1.2s1.4.5 1.4.5c-.3.7-.4 1-.7 1.7 0 0-.2.3-.3.7 0 .4.2.5-.2 1-.4.4-.9.9-1.2 1.1-.3.2-.2 1.1-.9.4-.7-.7-1.1-1.3-1.1-1.5 0-.2-1.8-1.4-1.8-1.4s-.3.8-.4 1c0 .2-.2 1.1.2 1.4.4.4 1.1.4 1.2.8s.7.2.8 1.3c.1 1.2-.1 1.8-.1 2 0 .2-.2 1-.2 1s-1.9-.5-1.8-.8c0-.3.2-.2-.1-1.1-.3-.9-.3-.7-.5-1.2s-.4-2.1-.4-2.2c0-.2.4.1.2-1.1l-.3-1.2s-1-.4-.9-.9c.1-.4-.4-1.3-.4-1.3s-.2.6-.8.7c-.7.1-1.1-.7-1-1 0-.3 1 .2-.3-1.3-1.4-1.5-.9-1.4-1.8-1.7-1.5.1-2.8 1.3-2.8 1.3zm-32.9-15.9c-.4-.2-.8-.4-1.1-.8-.3-.4-.6-.9-.6-1.6-.1-1.4-.2-1.3-1.3-.7s-.5.9-1.1 1.6c-.6.6-1.2-1.1-2.2-1.1-.5 0-.8.3-.9.8-.1.5-.1 1.3-.1 2.2s1 1.3 2 1.5c1 .2 2 .1 2 .1s-1.1 0 0-.7c1-.7.5 0 1.4.8.4.4.9.3 1.5.1s1.1-.5 1.6-.6c.7-.3-.5-1.3-1.2-1.6z"/></g></mask><linearGradient id="SVGID_5_" gradientUnits="userSpaceOnUse" x1="59.589" y1="152.639" x2="241.351" y2="152.639"><stop offset="0"/><stop offset=".077"/><stop offset=".523"/><stop offset=".97"/><stop offset="1"/></linearGradient><path class="st17" d="M122.1 172.1c.3.7.4 1.7.1 2.7-.2.8-1.5.8-1.9 1.2-.4.8-.7 1.6-.9 2.5-.2.8-.5 1.7-.7 2.4-.3.8-.6 1.5-1 2.2-.4.6-1 1.2-1.7 1.6-.3.4-.5.9-.4 1.4 0 .6.2 1.2.7 2-.1.7-.2 1.2-.2 1.7-.1.5-.1 1-.2 1.6-.9-.1-1.3-.2-2.2-.3.2.7.3 1 .6 1.7.2.6.3.9.5 1.4-.1.4-.1.5-.2.9-.3.5-.4.8-.7 1.4l-.3.6c.4.4.6.7 1 1.1.1.8.2 1.2.3 2-.1.2-.2.3-.3.6.8.7 1.1 1.1 1.9 1.8-.4.1-.6.2-.9.3.4 1 .7 1.4 1.1 2.4.3.7.5 1 .8 1.7.9.5 1.4.8 2.3 1.3.3.5.5.7.8 1.2-.1.2-.2.3-.3.4-.6-.1-.9-.2-1.4-.4l-2-1.5c-.5-.6-.9-1.1-1.3-1.6s-.7-.9-1.1-1.4c-.4-.5-.8-1-1.3-1.6-.5-.8-.8-1.1-1.4-1.9-.7-.5-1-.7-1.7-1.1-.1-.7-.2-1-.3-1.6l.5-1c-.5-.5-.7-.8-1.1-1.4-.3-.6-.4-.8-.6-1.4-.3-.6-.5-1.1-.7-1.6-.2-.5-.4-1-.7-1.6-.2-.6-.4-1-.6-1.4-.2-.4-.3-.8-.5-1.4-.2-.6-.4-.9-.6-1.5-.3-.5-.5-.9-.8-1.3-.2-.4-.5-.8-.8-1.3-.1-.9-.2-1.7-.5-2.5-.3-.7-.7-1.4-1.1-2-.5-.6-1-1.2-1.7-1.7-.6-.6-1.4-1.1-2.1-1.7-.8-.6-1.6-1.2-2.4-1.9l-2.1-2.7c-.5-.9-.9-1.8-1.3-2.6-.4-.9-.6-1.8-.8-2.6-.2-.9-.3-1.7-.2-2.4 0-.8.2-1.5.5-2.1.3-.6.7-1.2 1.2-1.6.5-.4 1-.9 1.5-1.3.5-.5 1.1-.9 1.7-1.2.6-.3 1.3-.4 2-.3.7.2 1.5.6 2.3 1.5.4 0 1.3-.4 1.7-.4.8.3 1.4.7 2 1 .6.4 1.2.7 1.7 1.1.6.4 1.1.8 1.8 1.2.6.4 1.3.8 2.1 1.3.2.2.4.7.5 1.2.2.5.3 1 .5 1.2.7.4 1.5.9 2.2 1.3.7.4 1.4.7 1.8.9 1 .2 2 .5 2.9.7.9.3 1.8.6 2.5 1 .7.5 1.2 1.1 1.5 1.8zm-29.2-11.4c-.2.1-.2.2-.4.4.4 0 .8-.4 1.2-.4-.8-.4-1.2-.7-2-1.1-.1.1-.1.5-.4.6-.3.1-.9 0-2.2-.7 0 0 .1-.9-.1-1.1-.2-.2-.1-1.9-.1-1.9-.4-.3-.7-.4-1.1-.6-.9-.1-1.4-.2-2.3-.3 0 0 .3-.9.5-1 .2-.1 1.3-1.4 1.3-1.4.2-.4.3-.6.4-1-.6-.4-.9-.5-1.6-.9 0 0-1.6.7-1.7.9l-.7 1.4c-.9 0-1.3 0-2.2-.1-.3-.7-.4-1-.7-1.6-.2-.3-.3-.5-.4-.8.4-.7.6-1.1 1.1-1.8l.7-1.4c0-.2.7-1.2.7-1.2 1-.3 1.5-.4 2.5-.7.3.3.5.4.8.7.6 0 .9-.1 1.5-.1 0 0 .6-.8.8-.7s2 .2 2 .2.3 1.3.4 1.4c.1.2.6 1.7.6 1.7s.9-.3 1.2-.7c.2-.2.3-.9.3-1.5.1-.7.1-1.3.1-1.3.5-.7.7-1 1.2-1.6.4-.4.7-.7 1-.9.3-.3.6-.6 1-.9 0 0 .4-.8.8-1.5.4-.8.9-1.6 1-1.6.1-.1.8-.5 1.4-.9l1.2-.8c.8-.4 1.1-.6 1.9-1 .8-.7 1.2-1 1.9-1.8.5.4.7.6 1.2.9 0 0-.5 1-.1.9.2 0 .9-.3 1.6-.6l1.4-.6c.4-.4.7-.6 1.1-.9-.5 0-.8 0-1.3.1-.5-.2-.7-.2-1.2-.4.2-.6.3-.9.6-1.5-.1-.3-.2-.4-.4-.6-.5 0-.8.1-1.3.1.6-.5.9-.8 1.5-1.4.8.2 1.3.4 2.1.6 0 0 1.3-.2 1.5-.4.2-.2 1.5-1 1.5-1l.5.5c-.7.8-1.1 1.2-1.8 2-.2.4-.3.6-.4 1 .7.2 1 .2 1.7.4.5.2.7.2 1.2.4.3-.7.4-1.1.7-1.8-.2-.5-.3-.7-.5-1.2 0-.5 0-.8.1-1.4.2-.6.3-.8.4-1.4 0 0-1.1-.9-1.2-.9-.2-.1-.9-1.7-.7-1.9.2-.2.1-2.3.1-2.3 0-.5-.1-.8-.1-1.3-.5.6-.8.8-1.3 1.4-.6-.1-.9-.2-1.5-.3 0 0-.2-1.4 0-1.9.3-.5-.7-1.4-.7-1.4s-1.4.5-1.4.7c-.1.2-1.2 1.6-1.2 1.6-.6.7-1 1-1.6 1.7.1.5.1.8.1 1.3-.5.7-.8 1-1.4 1.7-.4.1-.6.2-1 .4-.2.5-.4.8-.6 1.3-.4.6-.6.8-1.1 1.4-.2 0-.3 0-.6-.1.1-.6.3-1 .4-1.4.1-.4.2-.9.4-1.4-.3-.3-.4-.4-.7-.6-.4-.3-.6-.5-1-.8-.4-.6-.6-.9-.9-1.4.1-.6.1-.9.2-1.6l1-1 1-1s1.8-1 2-1.1c.2-.1 1.5-1.3 1.5-1.3.8-.4 1.2-.6 1.9-1.1 0 0-.7-.5-.4-.7.1-.1.9-.4 1.7-.8.7-.3 1.4-.7 1.4-.7s.9-.1 1.1-.7c.2-.6.1-1.2.1-1.2-.5-.2-.7-.3-1.2-.5-.5.6-.8.9-1.3 1.5v-1.6s-.5-.8 0-1.6.9-2.1.9-2.1-1.7.7-1.8 1.2c-.1.5-.9 1.8-1 2.1-.1.3-1.2 1.2-1.2 1.2s-.9.7-1.3.6c-.4-.1-.9-.6-.9-.6-.7-.3-1-.4-1.6-.7-.2.1-.3.2-.4.3-.4.5-.6.7-1 1.2-.4-.1-.6-.2-1-.4-.6-.1-1-.2-1.6-.3.3-.5.4-.8.7-1.4-.3-.3-.4-.5-.6-.8l-.6-.3c-.1-.3-.1-.4-.2-.7-.1 0-.2 0-.3.1-.6.4-1 .6-1.6 1-.5-.1-.8-.1-1.3-.1h-1.3c-.1-.4-.1-.6-.2-1 0 0-.9-.3-.9-.4 0-.2-.1-.6.1-.9.2-.3-.3-.5-.3-.5-.9.4-1.3.5-2.2.9 0 0-1.7.9-1.9 1.1-.3.2-1.1.7-1.1.7-.1 0-.2-.1-.3-.1 0 0-.7.5-.8.6-.1.1-1.3 1.2-1.3 1.2-.1.3-.2.5-.2.8-.4.3-.7.5-1.1.8-.3 0-.4 0-.6-.1-.1-.1-.1-.2-.1-.2s-1.3.6-1.6.9c-.4.3-1.2 1-1.1 1.1.1.1.8.1.8.1l-1.5 1s-.9.5-1.4.7c-.5.2-1.7.9-1.9 1-.2.2-1.6 1.4-1.9 1.6-.3.2-1.6.9-1.6.9s.2.5.2.6c0 .2 1 .6 1 .6l-2.4 1.2-2 1c-1.1.5-2.2 1.1-2.5 1.2-.6.2-1.1.4-2.4 1-.7.3-1.3.5-1.8.7-.5.2-.8.3-.8.3s-.3.4 0 .3c.1 0 .6-.1 1.2-.3.6-.2 1.3-.4 1.8-.6.5-.2 1.3-.5 2-.8.7-.3 1.4-.5 1.6-.7.5-.3 1.2-.6 1.8-.9.6-.3 2-.9 2.3-1.1.3-.2 1.8-.8 1.8-.8l-1.5 1h.5s1.1-.7 1.3-1c.3-.3.7-.8 1.5-1.4s1.7-1 1.7-1c-.3.4-.4.6-.7 1.1 0 0 2.2-1 2.4-1.1s.6.2.3.8c-.4.5-.7 1.6-.3 1.7.4.1 1.1.7 1.1.7-.5.7-.7 1.1-1.2 1.9 0 .4-.1.6-.1.9-.3.6-.4.9-.7 1.6-.2.6-.4.9-.6 1.5 0 0-1.3 1.2-1.2 1.5 0 .3.3 1.3.2 1.6-.1.3-1.8 2-1.8 2-.7.6-1.1.8-1.8 1.4-.3.5-.6.8-.8 1.2-.2.4-.5.7-.8 1.2-.1.9-.2 1.3-.3 2.2.1.6.2.9.4 1.5.4.4.6.6 1.1 1 .2.2.3.4.5.6-.3.4-.4.7-.7 1.1 0 0 .2 1.6.3 2.1.1.5-.1 1.1.2 1.6.2.6 1.2 1.6 1.2 1.6.4.1.6.1.9.2v-1s-.8-.7-1-1.2l-.6-1.5s.3-.9.3-1.3c.1-.5.4-.9.4-.9s.2.9.2 1.2c0 .3.6 1.8.7 1.9l.6 1.2c.1.2.7 1.2.7 1.2s.7 1.5.8 1.8c.1.3.7 1.3.9 1.5.1.1.6.3 1.2.5s1.1.4 1.3.5c.4.2 1.6 1.5 1.6 1.5s.8.3 1 .2c.3-.1 1-.5 1-.5.2.4.4.6.6 1l.8.8s1.3-.2 1.7.1c.3.3.9 1 1 1.1.2.2.8 1.4.8 1.4s.6.9.9 1.2c.9.8 1.6.8 2.3.6.8-.9 1.5-1.4 2.4-1.1zm6.7-51.6c-.4.4-.6.6-1.1 1 .1.6.1.8.3 1.4.1.3.2.5.3.8.5-.4.7-.7 1.2-1.1.7-.1 1.1-.2 1.8-.3.1.3.1.4.2.7.7-.4 1.1-.5 1.8-.9l.2-.4.4-1.2c.1-.3 1-1.7 1-1.9 0-.2-.7-.1-.7-.1-.4.4-.5.6-.9 1 .1-.4.2-.5.3-.9-.5.4-.8.6-1.3.9 0 0 0-1.3.1-1.7.1-.4-.3-1.3-.4-1.4 0-.1-.6-.7-.6-.7s-1.5 1.2-1.7 1.4c-.1.1-.7.6-1.3 1.1l-1.2 1c-.1.6-.2 1-.2 1.6.6-.5 1-.7 1.6-1.2.1.5.2.6.2.9zm8.3-3.3c-.4.1-.6.1-.9.2-.4.9-.6 1.3-.9 2.2l-.3.6c.3.1.4.1.7.1 0 0 .5-.4.9-.9.5-.5 1-1 1.2-1.1.3-.3.7-1.3.7-1.3-.5.4-.7.7-1.1 1.1-.2-.3-.2-.5-.3-.9zm-2.6-1.6c-.2.7-.2 1.1 0 1.2.2.2.9.2 1.2 0 .2-.2 1.5-.6 1.5-.6l.2.2c.3-.1.4-.1.7-.2 0 0-.1-.6-.1-.8 0-.1-.3.1-.1-.6.2-.7.4-1.2.4-1.2s-.2-.5-.6-.1c-.4.5-1.3 1.1-1.3 1.1-.1-.5-.1-.8-.1-1.3 0 0 1.6-.6 1.2-.8-.4-.2-.5-.6-1.1-.3-.7.3-1.5.7-1.8 1-.3.3-1.1 1-.7 1.3.2.5.9.4.6 1.1zm4.6-2.7c.3-.2 1-1 1-1s-.4-.3-.6-.4-.6.7-.6.7c-.1.1-.2.1-.3.2-.1-.1.2.7.5.5zm-.1 3.9c.5.4 1.1.3 1.1.3s.3-.5.3-.6c0-.1-.1-.7-.1-.9 0-.1-.1-.8-.3-1.2-.2-.4-.8-.2-.8-.2s-.4 1.3-.5 1.6c-.2.4-.2.6.3 1zm2.2.8c.2.1.3.1.6.2 0 0 .9.3 1.2.3.3 0 1.7-.4 1.8-.6.2-.2 0-.7 0-1.3 0-.5-1.3 0-1.5-.3-.1-.3-.5-.1-.8-.6-.3-.4-.4-1-.7-1.2-.2-.2-.9.9-.9 1 .1.1.1.9 0 1.2-.1.4.3 1.3.3 1.3zm-1.2 1.7c.4-.2.3-.7.3-.7s-.8-.4-1.1-.3c-.4 0-.6 1.3-.8 1.7.3-.1.4-.1.7-.1-.1-.1.5-.4.9-.6zm-1.1 1.6c-.3.4-.9.7-.9.7.4.3.6.5 1 .8 0 0 .2.3.5.9.3.5.4.9.4.9.6-.5.9-.7 1.6-1.2 0 0 0 .3-.1.4-.1.2-.1.8-.1 1.3s.6.5.7.7c.1.2.3.8.3.8s-1 .8-1.2 1.3c-.2.4-.7-.1-1 .4-.3.5-1.2.8-1.5.7-.3 0-1.2.9-1.2.9s1.6.1 2.1.1c.5-.1.4.2.5.7.1.4.4 1 .4 1.3 0 .3.8.6 1 .5.3-.1.4-2.1.4-2.1s.2.2.4.6c.3.4 1.1-.1 1.1-.1s.1-.9.2-1.3c0-.3-.4-.7-.5-1 0-.3.5-.9.7-1.1.2-.2.5 1.1.6 1.5.1.4.5-.4.5-.4s1.1-.7 1.2-1c.2-.2-.1-.9-.1-.9-.2-.3-.3-.5-.4-.8.1-.5.2-.8.4-1.3 0 0 .3-1.6.1-2.1-.2-.5-.8-.8-.8-.8s-1.2-.1-1.2-.4c.1-.3 1.2-1.7-.3-.9-.4.2-.3-1-.3-1s-2 .3-2.1.4c-.1.1-.9.3-1 .2.1-.2-1.1 1-1.4 1.3zm2.4-7.9c.6 0 1 .1 1.2.2.2 0 .3-.1.4-.1.3-.6.5-.9.8-1.5 0 0-.7 0-.9-.4-.2-.4-.5-.6-.5-.6s-.8.6-1.2 1c-.4.4-.5.7-.5.8.1.1.1.5.7.6zm3.6 0c.7-.6 1-.8 1.7-1.4.4-.4.6-.5 1.1-.9.7-.1 1-.1 1.7-.2-.1.4-.1.6-.1 1.1-.4-.1-.6-.1-1-.2-.4.5-.7.8-1.1 1.3-.2-.3-.2-.4-.4-.7-.3.3-.5.5-.9.8 0 0 .1.7.2.8 0 .1-.4.8-.4.8s-.7-1-.8-.9c-.2.1-.9 1-.9 1 .2.1.3.1.5.2 0 0 1.1.8 1.2.9s1 .4 1.1.3 1.1-.9 1.1-1c0-.1.7-.7.7-.7s1.3-1.9 1.4-2.1c.1-.1.5-.7.9-1.3.4-.6.9-1.2 1-1.3.3-.2 2.2-.7 2.2-.7.7-.8 1.1-1.2 1.8-2-.8.1-1.3.2-2.1.4 0 0-.8 1.2-1.2.7-.4-.4-1.3.2-1.3.2s-1.6.3-2.5.2c-1 0-1 .2-1 .2s-.4.9-.5 1.1l-.4.8-.5-.5v-1c-.3.3-.5.4-.9.7-.4.5-.6.7-.9 1.2-.2.3-.3.4-.6.7 0 .3-.1.4-.1.7.2.2.3.3.6.5.1.1.2.2.4.3zm21.4-4.3zm-4 17.4s.6-.1 1-.6c.3-.5 1-1.1 1-1.1s1-1.5 1-1.7c.1-.2 0-1.1 0-1.3 0-.2-.1-.7-.1-.7.5-.2.8-.3 1.3-.5.1-.2.1-.3.2-.5 0 0-.1-.8-.2-.9-.1-.1-.7-1.1-.7-1.1.2-.3.3-.5.5-.8 0 0 .8.9.9.7.1-.2-.1-.7 0-1 0-.4-.2-.9-.2-.9l-.4-.2s.2-.8.4-.7c.1.1.5-.4.5-.4.1-.9.1-1.3.2-2.2l1.1-1.1c.4-.5.7-.9.9-1.2.3-.4.6-.7.9-1.2-.7-.3-1.1-.4-1.7-.7-.5.4-.8.5-1.4.9-.3.4-.5.6-.8 1 0 0-.3-.3-.4-.7-.1-.3-.1-.4-.1-.4-.3 0-.5-.1-.8-.1 0 0-.4-1.1-.6-1.5-.1-.3-.6.5-.6.5-.7.1-1.1.1-1.8.2-.4 0-.6.1-1 .1-.5.6-.8.8-1.4 1.4-.2 0-.3-.1-.6-.1v-.6l-.7.7c-.6-.3-.9-.5-1.5-.8 0 0-1.5.2-1.6.2-.2.1-.7.5-.7.5-.3 0-.4.1-.7.1 0 0-1.2.7-1.4.9-.2.1-.4.1-.4.1l-.7 1.4-1 1c-.5.7-.8 1.1-1.3 1.9-.3.5-.5.8-.8 1.3.1.5.2.8.3 1.3l.6-.3s.7.1 1 .1c.3 0 1 .4 1 .4s.2.4 0 .6c-.1.1-.1 1-.2 1.4-.1.4.3.6.5.7.2 0-.1.4-.2.7-.1.2-.7 1.1-.7 1.1s.4.1.7.1c.4 0 .7.4 1 .5.3.1-.3.6-.5.5-.2 0-1 .4-1.2.6-.2.1-.8.3-1.1.5-.3.2-.1.8-.1.8s1.3-.2 1.3-.4 1-.4 1-.4-.1.4-.5 1.3c-.3.8-.4.6-1.1 1.5-.6.9-.2.9-.2.9l-.9.9c-.4.4-.4 1.4-.4 1.6 0 .2-.1 1.3-.1 1.4 0 .1.1 1.2.1 1.2s.4.8.4 1c.1.2 1.8.8 2.1.7.3-.1.3-.2.5-.4.1-.2.4-.5.8-1s.3-.4.5-.7c.2-.3.9-1.3 1-1.6.1-.2.9-1.7.9-1.7s.6.2 1.2-.1c.7-.3.9-.4.9-.4s1.3-.4 1.5-.8.3-.8.4-1.3c.1-.5 1.3-.3 1.7-.6.8-.7 1.5 0 1.5 0zm1.1 5.3s.7 0 1.4-.1 1.2-.5 1.7-.7c.5-.2.1-1.3.1-1.7 0-.4-.4-.6-.6-.6-.2 0-.5.1-.7 0-.2-.1-.8.8-1.3.3s-1.4.1-2.2.5c-.9.3-.3.6-.4 1.5-.1 1 1.4.7 2 .8zm14.9-14.7c.1.1 1.1 0 1.1 0 .1-.2.1-.3.1-.5.3-.1 1.6-1.1 1.6-1.1s.4.2.5.6c.1.3.9 1 1 .6.1-.4-.5-2.4-.5-2.4s-.9-.6-.3-.6c.7 0 1.4-.1 1.6.4.2.5.7.8.7.8s.5-1.1-.5-1.9c-1-.7-1.2-1-1.5-1-.3 0-1.3-.5-1.8 0s-.7.6-.9.9c-.1.3-1-.5-1.4 0-.4.5-.6.3-.7.7-.1.4-.1.7-.2 1.2s-.3.9 0 1.3c.4.3 1 .9 1.2 1zm12.2-4.9c.1-.3 0-.6-.1-.8-.1-.2-.4-.6-.4-.6-.2.3-.3.4-.4.7.3.5.4.8.7 1.3-.1 0 .1-.3.2-.6zm1.7-.5c.1 0 .6-.3 1.2-.5s1.2-.6 1.5-.8c.7-.4-.1-.6-.1-.6s-.3-.6-.5-.7c-.3-.2-.7.2-1 .4-.3.2-.2.3-.3 1.3 0 .2-.1.4-.1.4-.1.1-.3-.5-.4-.7-.1-.2-.2-1.1-.3-1.7-.2-.6-.3.6-.6 1.2s-.3 1.1-.5 1.3c.2.2.3.2.4.4-.1-.1.4 0 .7 0zm-24.9 30.3s.7.2.8 0c.1-.2.6-.5.9-.7.3-.2.5-.9.7-1.3.2-.4.1-.5 0-.7 0-.2-.6-.4-.9.3-.2.3-.5.5-1 .7-.4.2-.9.4-1.3.7-.7.7.6 1.1.8 1zm2.1-6.1s-.4.6-.4.8c0 .2.2.4.5.8s1 .6 1 .6v1.5s.2.4.2 1-.1.6-.2.7c-.1.1-.2.6-.7 1.1-.5.5-.3 1.3-.3 1.3s.7-.6 1.3-1c.6-.4 0 0 .7-.3s1.4-.6 1.6-.7c.2-.1.5-.6.4-.8-.1-.2 0-.7 0-.7s-.6-.7-.8-1.2c-.2-.5-.7-.3-.9-.4-.2-.1 0-.7 0-.7s.1-.8 0-1.1.1-1 0-1.2c0-.2-.7 0-1 .3-.4.2-.5.4-.8.5-.3 0-.6-.5-.6-.5zm51.3-22.5s.6.7.8.8c.2 0 1.5.5 1.5.5-.1-.1-.2-.2-.3-.4-.2-.1-2-.9-2-.9zm-1.6-.9c.5.4 1 .6 1 .6l.1-.3c.1-.2 0 0 .3-.1s.6.2.6.2.2-.1.2-.3c0-.2.1-.2.1-.2s.6.2 1.3.5c.7.2.3 0 .3-.2s-.7-.9-1-1.1c-.3-.2 0 0 0 .1s-.5.3-.5.3-.8-.5-1.7-.9c-.9-.4-.1.1-.3-.1-.3-.1-.7-.4-.7-.4-.1 0-.2-.1-.3-.1-.2.3-.3.5-.5.8.2.3.3.4.5.7-.2 0 .1.2.6.5zm14 3.9c.2.3.8.6.8.6.1.1.2.1.3.1 0 0 .7.5.5.2-.1-.2-.3-.3-.3-.3s-.5-.3-.9-.6-.7-.4-.7-.4.1.1.3.4zm21.5 28.6s-.6-.1-1.4-.5c-.7-.4 0 0-.3-.4s-.2-.6-.2-.6.3.3.6.2c.4 0-.5-.5-.5-.5-.3-.1-.4-.1-.6-.2 0 0-.4-.4-.7-.9-.4-.5-.8-1.1-1-1.4-.3-.6 0 0 .2.1s.7.5 1.2.7c.4.1-.3-.2-.4-.5-.2-.2-.5-.4-.9-.7-.4-.3-.5-.2-.9-.7-.4-.4-1-.8-1.3-1-.3-.3-.8-.6-1.2-1-.4-.3-.7-.8-1-1.2-.3-.4-.7-.5-.7-.5.1.2.2.3.3.5 0 0 .4.7.5.9.1.2.4.5.8.8.4.4 1 .8 1.7 1.4.7.6.5.5 1 1 .5.4.9.9.9.9s.1.3 0 .9c-.1.6.4.9.4 1 0 .1 1.1.8 1.8 1.2.7.4.3.6.3 1s-.1.4-.2.8c-.1.3.7.9.7.9l.5.5s.9 1 1 1.1c.1.1.1.4-.1.7-.2.4.4.7.4 1.2s.2.6.2.6v.8c0 .6-1.2.5-1.5.6-.3.1-.5.3-.6.7-.1.3-.5.2-.9.8-.4.5.8.6.8.6s.3.1.6.5.8.1 1 .1c0 0 .3-.5.3-.6 0-.1.3-.2.8-.4.4-.1.4-.6.4-.8.1-.2.2-.4.6-.6.4-.2.6-.1.9-.1.4 0 0 0 .9-.2s.2-.3.2-.3-.2-.4-.6-.9c-.3-.4-.3-.5-.3-.5s-.6-1.1-.8-1.4c-.2-.3-.6-.6-.8-.9-.2-.3-.5-.5-.9-.9-.4-.3-.9-.8-1-1-.1-.1-.2-.3.3-.2.5 0 0 0 .5-.2s.6.1.9-.1c.3-.2 0 0-.1-.2s-.1-.3-.1-.3 0-.3.3-.7c.3-.4 0-.5 0-1 0-.4-.1-.3.4-.6s-.2-.8-.2-.8-.7.2-.9.2c-.2.1-.1.9-.4 1.4-.5.7-.9.7-.9.7zm-15.9 36.2c.2.2.9-.1.9-.1l.5-.8c.5-.8.6-.6.6-.6.5-.4.8-.6 1.3-.9.1-.3.1-.4.2-.7 0 0-1.6.1-2.1.1s0 0-.6-.1c-.3-.4-.5-.6-.8-1.1l-.3-.4c-.3-.4-1.2-.9-1.2-.9-.3-.5-.4-.8-.8-1.3-.4-.3-.6-.4-1-.7h-.7c0 .3-.1.5-.1.9.2.2.3.3.6.5 0 0 .5.5.7.8.3.4.6.4 1 .5.4.1.3.7.3 1 .1.3.1.7.3 1.3.2.5.5.8.3 1.4-.3.7.7.9.9 1.1zm4.6-5.3zm2.9 4.6c.5.3 0 0 .3.1s.4-1 .6-1.6c.2-.6.3-.6.9-1.6.6-.9.8-.6 1.4-1.2.7-.7 0 0-.4-.4s.2-1.1.3-1.7l.2-1.2-.2-.6c-.2-.6-.4-.6-.4-.6s-1.1.9-1.4 1.1c-.3.2-.6.6-.9 1-.1.2-.5.5-.9.8-.4.3-.9.6-1.4.9-.8.4-.9.5-.9.5-.1.5-.1.8-.3 1.3 0 0 .4.4.2 1.1 0 0 .1.6.4.9s1.3-.2 1.8-.1c-.1-.2.2 1 .7 1.3zm6.2-12s1.1-.4 1.6-.9-.1-.3-.8-.5c-.7-.2-.5-.3-.9-.7-.3-.3-.3-.7-.6-1.4s-.4-1-.4-1c-.1.2-.2.4-.4.6 0 0-.1 1.2-.1 1.9.2.8 1.6 2 1.6 2zm2.9 3.2c-.1-.3-.5-1-.5-1s-.4-.4-.4-.8c-.1-.4-.3-1.5-.3-1.5s-.8.5-1.1.8c-.2.4-.1.6-.1.6-.3.6-.5 1-.9 1.6 0 0 1.1.8 1.5 1.1.3.3-.2 1.1-.2 1.1s1.5-.9 1.9-1.2c.3-.2.2-.4.1-.7zm-2.5 4c-.6.4-1.3.2-1.6.1-.3-.1-.5-.4-1 .1-.4.4-.7-.2-.8.8-.1 1-.1 1.5-.6 2.1-.5.7.2.8.2.8s0 .1.5-.6l.5-.7s0 .3.3.7c.3.3 1.4.5 1.4.5-.5-.2-.2-1.2-.5-1.5-.2-.3.2-.9.2-.9.8-.3 1.2-.4 2-.7 0 0 1.3-.4 1.1-.8-.2-.4.3-1.1.3-1.1s-1.4.8-2 1.2zm-.9 6.2l.2-.5s.2-.4-.9.1-1.6.7-1.6.7c-.4.5-.6.7-1 1.1.5-.2.7-.3 1.2-.4 0 0 1.9-.5 2.1-1zm-5.2 1.5c.3 0 .4 0 .7-.1.1-.2.2-.4.4-.6.5-.3.7-.4 1.2-.6 0 0-.2-.1-1.1.1-.8.2-.6 0-1.3.1-.7.1-1.4.4-1.4.4l.2.1c.2.2.6.3 1.3.6zm-5.6-1.1c.5.3 1.3.5 1.9.7.6.1 1.1.2 1.1.2s1.1-.6.6-.8c-.5-.2-.1-1-.1-1-.1 0-.2 0-.6.1-.8.1-.6.1-1.8.2-1.1.1-1.5-.4-1.5-.4-.4.3-.7.4-1.1.7.2.2.3.3.6.5.1-.2-.1-.9.9-.2zm3.6-1c.1 0 0 0 0 0zm22.3-.4c-.3-.1-.4-.1-.6-.2 0 0-.2-.1-.3-.2-.1-.2.1-.7 0-.9-.1-.2-.8.1-.8.1.1-.4.1-.6.1-1 0 0 0-.4-.4-.5-.4-.1-.4-.3-.5-.6-.1-.3-.7-.2-2.2-.6-.4-.1-.6-.2-.7-.2.1.1.1.2-.1.5-.5.6 0 0-.6.2s-1.4.6-1.4.6c-.1-.2-.2-.3-.4-.4 0 0 .2-.8.3-1 .2-.2-1.1-.4-1.1-.4-.4 0-.6.1-1.1.1-.3.2-.5.4-.8.6 0 0-.2.4-.3 1-.1.6 1.4-.1 1.4-.1s-.2.3-.5 1.3.9-.1.9-.1.3.4 2.1 1-.2.4-.2.4-.4.9-.6 1.4c.5-.2.7-.3 1.2-.5l.6.2c.6.2 0 .3.7.3s.8-.1.8-.1c.3-.3.4-.4.6-.7 0 0 1 0 1.3.1.3.1-.1.3-.2.7 0 .4 0 0 .9.6s.7-.1 1.3-.2c.6-.1.4-.7.4-.7.3-.5.3-.6.2-.7zm-5.4-4.2c-.1-.1-.1-.1 0 0zm8.9.7c0-.3 0-.5-.1-.8-.1-.3-.6-.4-.6-.4s-.9.4-1.2.9c-.3.5.1.4.1.4.2 0 .3 0 .5-.1-.4.3-.6.4-1.1.7-.3 0-.5.1-.8.1.1.2.1.3.1.6l1.2-.3c1.2-.3.5-.1 1.2-.2.9.1.7-.6.7-.9zm-11.1 6.9c-.4.5-.2.4-1 1.2-.8.8-.9 1.1-1.8 1.8s-.7-.3-.9-.5c-.2-.1-.4-.8-.3-1.1.1-.3 1.1-1.2 1.3-1.5.1-.3-.3-.3-.3-.3s-.8.5-1-1c-.1-.7-.6-.5-1-.2-.5.4-.9.9-.9.9s-.1.8-.6 1.4c-.3.3-.7.6-1.3.9-.5.3-1.1.5-1.5.5-.8 0-.2-1-.2-1-.6.5-1 .7-1.6 1.2-.4 0-.6 0-1 .1 0 0-.8.8-1.3 1.6-.3.4-.7.7-1.1.9s-.8.5-1.1.7c-.5.4-.6.3-2.5.7-1 .2-1.5.5-2 .9s-.9.8-1.5 1.2c-.7.4-1 .8-1.2 1.2-.2.4-.3.8-.6 1.1-.5.6 0 .4-.8 1.7-.4.6-.6.9-.7 1.3-.2.4-.3.7-.7 1.4-.8 1.4-1.1.8-1.8 1.5s-1.7.8-1.7.8.6.3 1.3 1c.7.7 0 0 .6-.4s1.2-.9 1.2-.9 1.2-.4 1.6-.1c.4.3.7.1 1.6-.3.9-.4.3-.5.3-.5s1.1-.7 2.3-1.3c1.2-.5.7-.3.7-.3l1.6-.2c1.6-.2.4.4.4.4s.2.2.1.8c-.1.5-.6.8-.6.8l2-1c-.6.5-1 .8-1.5 1.1-.4.3-.9.7-1.5 1.2 0 0 1.3-.9 2-1.1.7-.2-.1.6-.1.6-.6.7-.9 1-1.4 1.7 0 0 .4.2 1 .4.6.1.6-.2.6-.2l1.8-.9c1.3-.7.5 0 .8-.3.3-.3 1-.7 2.2-1.5s.7-.5 1.2-.9.9-.7 1.8-1.3c.4-.3.8-.5 1.2-.8.4-.3.7-.5 1.1-.9l1.2-.9c.4-.3.8-.5 1-.7.5-.4.5-.4.7-.7l.9-.9s.4-.5.8-.7c.4-.2.8-.9.8-.9s.5-.8.3-.9c-.2-.1.7-.8.7-.8-.1-.2-.1-.3-.2-.5 0 0 1-.9 1-1.3-.1-.4-.5-.3-.5-.3l.6-.9c.2-.3.1-.6.7-1.1.5-.5.6-1 .6-1-.3-.1-.5-.1-.8-.2 0 0 .6-.6.7-1.2.1-.7.7-1.2.7-1.2s-.4.3-.9.7c-.8.4-1.3.8-1.5 1zm-17.5 20.1c-.3 0-1.4.8-1.6.8-.2 0 .1-.5-.1-.4-.1 0-.6.5-1.2.9l-1 .8c-.3.6-.5.9-.9 1.5.3-.2.5-.2.8-.4 0 0 1-.8 1.8-1.2.8-.5 1.2-.9 1.2-.9s1.2-1.2 1-1.1zm11-4.8c-.9.6-1.9 1.4-2.3 1.6-.4.2-1 .6-1.7 1.1-.7.4-1.4.9-1.9 1.2-1 .6-.8.5-1.6.9-.4.2-1.3.7-2.1 1.2s-1.5.9-1.5.9-.8.7-.6.7c.2 0 0 0 .8-.5s.5-.3 2.1-1.2c1.6-.9 1-.6 1.6-1 .6-.4.7-.4 2-1.3.6-.4 1.7-1 2.6-1.5.9-.5 1.7-.9 1.9-1 1.3-.7 1.9-1.3 2.2-1.7.3-.4.2-.7.2-.7s-.8.7-1.7 1.3zm-49.3-12.6s-.2.3-.5.7c-.3.4-.7 1-1.2 1.5-.8 1.1-.9.1-.9.1l-.1.3c-.1.3-.4 1-.9 2.3-1 2.7 0 0-.4 1.5s.1.5-.7 1.2c-.8.7-.1.9-.2 1.5-.1.5 1.3.6 1.3.6.4-.3.6-.4.9-.7 0 0 1.5-.6 1.7-1 .2-.4.2-1 .2-1.5.1-.4.5-1.3.9-1.9.4-.6-.3-1.7.4-2.4.7-.8.4-1.5.3-2.1-.2-.8-.8-.1-.8-.1zm-54.6 28.3c-.8 0-.8-.2-.9-.2-.1.1.3.8.3.8l1.3.9c1.3.9.2-.1.6-.3.4-.2 0-.6-.5-1.3-.5-.7 0 .1-.8.1zm8.2 1.2c-.5-.5-.2.7-.2.7.2.1.3.1.5.2.2 0 .3 0 .4.1-.1 0-.2-.5-.7-1zm69.6-44.1c0-.7-.3-.1-.9 0-.5.1-.9 0-.9 0s.5 2.3.6 2.6c.4-.2.6-.3.9-.4 0 0 .2-.5.1-1.1 0-.6.3-.4.2-1.1zm2.6-8.6c-.3.3-.4.5-.6.8 0 0 1.1-1.7-.9.1-1 .9-1.5 1.4-1.8 1.8-.3.3-.3.4-.3.4v.9c0 .3-.1 1.3-.1 1.3s-.2.7-.3 1.1c-.1.3-.1.9-.3 1.1-.2.2-.3.5-.4.8-.1.3-.5.6-.5.6-.3.2-.5.3-.8.5-.3-.7-.4-1.1-.7-1.8 0 0 1.8.8-.7-.9-1.2-.8-1.8-1.3-2.1-1.5l-.3-.2s-.6-.4 0-1.4c.5-1 .7-.3.7-1.3-.1-1 .5-.2-.1-1s-.1-.5-.6-.8c-.4-.3-2.2.5-2.2.5s-.6-.9-.6-1.3c.1-.4.8.5.1-.4-.7-1 .2-.8-1.1-1.2-.6-.2-1.4-.4-2-.6-.6-.2-1-.3-1.1-.3-.2.1-2 .5-2.2.7-.1.1 0 .1 0 .1s-.2-.2-.9-.5c-1.4-.6-1.5-.7-1.8-.8-.3-.1-1.1-.1-1.1-.1s-.1-.1-.7-.8c-.6-.6.4-.2-.6-.6-.9-.4-1.7-.6-1.7-.6s.2 1.9.4 2c.2.1.7.4.9.6.3.2.7.4.9.6.3.2.5.5 1.2.1.6-.3 1.4-.1 1.7.3.3.4.3.7.7 1 .4.3.9.1 1.1.3.2.1.2 1 .2 1.2 0 .2-.5.7-.9 1.2-.4.6-.7 1.1-.7 1.4-.1.3.6.5-.6.9s-1.5.3-2.2.6c-.7.4-.7.4-1.2.7-.5.4-1.7.5-2 .6-.3.1-1 .8-1 .8s-1.3-.6-1.5-1.2c-.2-.6-.1-.6-.3-1.4-.2-.7-.8-1.6-.8-1.7 0 .1 0 .2-.7-.3-.9-.6-.9 0-1.1-.9-.1-.9 0-.1-.1-.9s.1-1-.9-1.6c-.5-.3-1-.9-1.5-1.4-.4-.5-.7-1-.7-1-.6.2-1.2 0-.8 1.3.4 1.3.4 1.2.9 2s.8.8 1.1 1.5c.3.6.5 1.4 1 2 .5.6 1.7 1.4 1.8 1.7.1.3.3.7.5 1 .1.3.6.8 1 1 .4.3 1 .9 1.1 1.1.1.2.8 1 1.5.9.7-.1 1.7.1 2.2-.5.5-.6 1.1-1 1.1-1s.9 0 .5.8c-.2.4-.6 1.3-1 2s-.7 1.4-.7 1.4-1.6.9-2.1 1.6c-.5.6-.7.9-1.1 1.4-.2.2-.5.5-.9.8-.4.3-.8.6-1.3 1-1 .8-1.3 1.2-1.3 1.4 0 .3-.1 2.2 0 2.6.1.4.5 1.2.4 1.7 0 .5.5.3-.3 1.6-.4.6-.7 1.2-1 1.6-.2.4-.4.7-.5.9-.1.2-.2.5-.5.9s-.7.9-1.2 1.4c-.6.5-1 .9-1.2 1.3-.2.4-.4.7-.4.9 0 .4 0 1.2-.1 1.6 0 .4.7.3-.3.8s-1.5.8-1.7 1.3c-.2.5-.6 1.3-.7 1.8-.1.5-.1.9-.6 1.1-.5.2-.7.4-1 .7l-1 1-.2.1s-.4.4-1.3.4-.5-.1-1.2 0c-.7.2-.7.2-.9 0-.2-.2-.3-.1-.4-.7-.1-.6-.1-.2-.3-1.3-.1-1.1 0-.5-.6-1.8-.5-1.3 0-1-1-2.3-1-1.3-.6-.6-1-1.3-.4-.7-.5-.1-.7-1.4-.2-1.3-.3-1.2-.3-1.6 0-.4-.2.1-.1-1.4s-.3-1.2.4-2 1.4-.2 1-1.4c-.4-1.2-.2-.5-.6-1.6-.4-1.1-.4-.6-.7-1.6-.3-1-.3 0-.3-1s.1-1.4-.1-2c-.2-.6-.2-.6-.7-1.1-.5-.5-1.1.3-.5-.5.6-.8.9-.9 1-1.6.1-.7.6-.3.1-.7-.6-.4.6-.7-1.7-1-2.3-.3-2.2.1-2.3-.3-.1-.4-.1-.9-.1-.9s-1.3-.1-2 .1c-.6.1-1.5.2-1.9.7s-.2.4-1.6.3h-1.3c-.4 0-2.1.3-2.2.1 0-.1-.1-.5-.3-1.1-.2-.5-.5-1.1-1.1-1.7-1.2-1-.9-.7-1.4-1.4-.5-.6-1.6-.9-1.6-2v-2.2s.1-.1 0-.4c-.1-.3-.4-.6-.5-2 0-.7-.3-1.1-.5-1.6-.1-.4-.1-.7.5-1.1 1.2-.8 1.4-.9 1.6-1.1.2-.3 1.1-2 1.1-2s.8-.4 1.2-.3c.4.1.8-.4.8-.9 0-.4.1-.7.3-1.4.2-.6.4-.9.5-1.1.1-.2 1.5-1.2 1.5-1.2 0-.3.1-.4.1-.7 0 0 .7-.2 1-.1.3.1 1.4.1 1.4.1s1-.4 1.6-.6c.6-.2.7-.3.9-.3.2 0 1.3-.2 1.7.3.4.5 1.6 0 1.6 0s1.4-.1 1.9 0c.4.1.8-1.3.9 0 .1 1.3.3 2.3.4 2.6.1.4.4.6.9.6h2.9s.1-.1.5.3.1.9.7.5 1.6-1.1 1.8-1.1c.2 0 .5-1 1.9-.1s2.1.9 2.1.9h1s1.2-.4 1.6-.3l.8.2v-1.2c.1-.2 0-.3.3-.9.3-.6.8-.9.5-1.4-.4-.5-.2-1-1.7-.5-1.6.5-1.9.3-2.1.5-.2.3-1.1 0-1.1 0s-.2.7-.9-.6c-.7-1.4-.8-1.9-.8-1.9s-.4-.8-.7-.9c-.2-.1-1.3-2.1-1.1-.4l.2 1.6s.6 1.1.6 1.4c0 .2-.1.8-.4.8h-.4s-1.2-1.3-1.4-1.6c-.2-.3-.8-1.1-.8-1.1s.2-.4.2-.8 0-1.1-.3-1.1-1.1-.1-1.3-.3c-.2-.1-.9-.8-.9-.8-.3-.2-.4-.3-.7-.6 0 0-.3-.4-.8-.6-.6-.1-1.3-.1-1 .3.3.4-.1.1.3.4.4.3 1.5.7 1.5.7l.5.5.9.9c.3.2.4.3.6.4.2.1.3.2.5.3-.4.2-.5.3-.9.4 0 0 0 .5.1.7.1.2-.2.7-.2.7-.3.2-.4.3-.6.6 0 0-.3.4-.6.4-.4 0-.9-.5-.9-.5s.4-.3 0-.5-.7-.1-.4-.2c.4-.1 1.1 0 1.1 0 .1 0 .2 0 .4-.1 0 0-.1-.4 0-.8l.1-.4s-.3-.5-.6-.5c-.4 0-.1-.1-.6-.3-.6-.2-1.1-.9-1.1-.9-.1-.2-.1-.3-.1-.4-.2-.3-.3-.5-.6-.8-.4-.1-.5-.1-.9-.1 0 .2 0 .3-.1.5s-.1.3-.1.4c0 0 .2.1-.8 0l-1-.1c-.2-.1-.3-.1-.5-.1 0 0-.6.4-.6.8s.2.5-.2.8c-.4.3-.9-.1-.9.4s.2.5 0 1-1.9.7-1.9.9c0 .2-.1.6-.1.6s.4.1-.4.3c-.8.2-1.5-.1-1.4.1.1.2 0 .4-1 0l-1-.4s.3-.1.3-.8c-.1-.6-.4-2.1-.4-2.1s-.1.6 0-.4c.1-.9.2-1.3.2-1.3s.7-.8 1.6-.4c.9.3 1.9.3 1.9.3.4-.2.7-.3 1.1-.6.2-.7.2-1.1.4-1.9 0 0-1.2-.7-1.4-.7-.2 0-1.5.4-1 0s.9-.5 1.3-.7c.4-.2 1.1-.2 1.3-.4.2-.1.9-1.1 1.3-1.4.4-.4.4-.5.7-.4.3.1.5-1.6.5-1.6s.2-.4.9-.3c.7.1 1.1-.3 1.2-.4.1-.1-.6-1-.5-1.3.1-.2.1-.3 0-.6 0-.4.1-.6.4-.6.3 0 .7-.9.7-.9s.1-.8.3-.1c.2.7.3 2 .5 2.5s.6 1.4.9 1c.3-.4 1-.9 1.3-.9.3 0 1.4.2 1.6 0 .2-.2.5-.9.9-1 .3-.1.7-.6.7-.6s-.2-.6 0-1.4c.1-.8 0-.9.3-1.2.3-.3.4-.6.6-.5.2.1 1.3.2 1.5.2.2.1 1.1-.5 1.1-.5.4-.1.5-.2.9-.3 0 0-1.2-1.1-1.6-1-.4.1-.4.4-1.1.5-.7.1-1.1 0-1.1 0-.3-.2-.5-.3-.8-.5 0 0-.1-.1-.1-.4 0-.2-.5-1.2-.2-1.4.3-.2.4-.7.6-.9.2-.2.8-.6.8-.6s.2-1.4-.2-1.5c-.4-.1-.8-.5-1-.3-.2.1-.6.6-.5 1.2.1.6.4 1.2.1 1.2-.3 0-.7-1.1-1.2 0-.4 1.1-.7 1.4-.5 1.7.1.3.3.5.5.7l.4.8s.9.3 0 .6-1 .4-1.1.7c-.2.3.2 1.3.4 1.3s1.3-.3 1.3-.3.1.6-.2 1.1c-.3.5 1.4 1-.8.8-2.2-.2-2.1.6-2.1.6-.1-.8-.3 0-.3-1.1-.1-1.1-.5-1.9-.5-1.9s-.1.2-.3 0c-.2-.2-.6.1-.6.3 0 .2-.8.4-.8.4-.1 0-.2 0-.3-.1-.6-.5-.9-.7-1.5-1.2.1-.7.2-1.1.4-1.8v-.9s1-.7 1.2-.9c.1-.1 1.2-.8 1.5-1.3.3-.5.6-1.3.8-1.5.1-.2.5-.8.5-.8.2-.6.4-.9.6-1.6 0 0 .5-.7-.4-.3l-.9.4s.8-1.5 1-1.6c.2-.1 1.2-.3 1.8-.6.3-.1 1-.3 1.6-.4.6-.1 1.3-.2 1.6-.4.6-.3.5-1.9 1.4-.7.9 1.2.2.7.9 1.2.4.3 1.3.7 2.1 1 .8.3 1.5.6 1.5.6s1.2.2 1 .7c-.1.5.1 1.5-.4 1.7-.5.2.5 1-1.5.2-1-.4-1.7-.8-2.2-1-.5-.2-.7-.4-.7-.4.4.5.7.9 1.1 1.3.3.4.6.8 1.1 1.3 0 0 .5.3.5.5s1 .8 1.2.5c.2-.3.5-.4 1-.9s1.5-.9 1.5-.9.8 0 .1-1.3c-.7-1.2-1.2-1.2-1.1-1.5.1-.3.3-.5.5-.9s.3-.9.3-.9c.4-.1.6-.2.9-.3.1.6.1 1 .2 1.6 0 0-.5 1.1.1.7.6-.4 1.6-1.8 1.6-1.8.6.7 1 .7 1 .7.5-.1.7-.1 1.2-.2 0 0 1.2.1.9-.3-.3-.4-.5-.6-1.1-.9-.7-.3-1.7-.9-1.9-.8-.3.1-1.1-.1-1.1-.1s-.8-.6-.9-1.1c-.1-.5.4-2.3.4-2.3s-.2-1.6.1-1.5c.2.1.5-.3.8-.5.2-.2.2-.7.5-1 .4-.3 1-.9 1-.9.4-.3.5-.5.9-.7 0 0 .7.2.6.6 0 .3-.6 1.5-1 1.7-.4.2-.3-.2-.9.5-.5.6-.8.9-.8 1.2 0 .3.1.8.2 1.2.1.4.1 1.1.1 1.1.1.3.1.5.1.8.5.2.8.4 1.3.6 0 0 1.5.2 1.7.3.2.1 1 .6 1 .6s.7.4.9.6c.2.2.7.4.7.4s1.5.1 1.2-.1c-.2-.2-.6-.5-1.6-1.2s-1.1-.9-1.2-1.1v-.8s.4-.6.3-.9c0-.2-.1-.7 0-1 .1-.3.2-1 .5-.7.3.3.4.8.7 1.3.3.5.2.8.5 1.1.3.2.2.6.6 1.1.4.5.7.9.7.9s.2-.9-.1-1.3c-.3-.4-.4-.6-.5-.9-.1-.3-.5-2-.5-2 .1-.2.1-.3.2-.5 0 0 .6.2.7.6.1.5.3 1 .3 1 .4 0 .6 0 1 .1v-.9c-.1-.2.3-.5.3-.5 0-.1 1.1-.8 1.1-.8.1-.1.1-.2.2-.4-.3-.8-.4-1.2-.7-2 0 0 1-.7 1.2-1 .2-.3.6-.6.9-.7.3-.1.9.3.8-.2-.2-.5.3-1.6-.2-1.9-.6-.3-.5-.9-1.3-.8-.7.1-.7-.1-1.2-.1-.6 0-1.3-.2-1.3-.2s-1-.9-.9-1.2c.1-.3-.3-.9.4-.8.7.1 1.6.4 1.8.7.2.2.8.2 1 .4.3.2-.5-1.3.6.2s1.4 1.5 1.4 1.5c.1.4.2.6.3 1.1 0 0 .3.2.5.2.2-.1.2-.6.6-.5.4 0 .4-.4.8.1.4.4.6.4.8.7.3.2.5.9.6 1.3.1.4-.1.5 0 1s.4 1.1.4 1.1.6-.6.6-.7c0-.1-.1.1 0-.1s.7.1.7.1.2.3.5.6 1.1.2 1.1.2c.7.2 1.1.2 1.9.4.3.1.5.1.9.2 0 0-.8-1.1-.7-1.2.2-.1 1.4-.1 1.6.1.2.3.6 1 .6 1s.5.3.8.7c.3.3 1 .8 1 .8.4.3.6.4 1.1.6 0 0 .4-.2 0-.6l-.9-.9s.1-.4.4-.2c.3.2 1.1.9 1.2.8.1-.1.4-.6.4-.6s-.8-.5-1-.9c-.2-.3-.1-.8-.1-.8s1-.1 1.3.1c.3.2 1.9 1 1.9 1s.7.4.6.1c-.1-.3-.8-1.1-.4-.7.5.3.5.3 1 .7.5.4 1.1.7 1.1.6.1-.1.4-.6.5-.6.1 0 .1-.2.8.2.6.5 1.3 1 1.4 1.1.1.1.4.3.5.4.2.1 1.2 0 1.2 0v-.1c0-.1-.9-1.3-.4-.8s1.3 1 1.5 1.2c.3.2 1 .7.5.2-.6-.5-1.2-1.1-1.1-1.1.1 0 1 .5 1 .4 0-.1.4-.2.4-.2l1 .5s.5.3 1.7 1.1c.6.4 1.1.7 1.6.9s.9.4 1.2.6c.3.2 1 .5 1.5.7l1 .5.8.6c.4.3 1.2 1 1.5 1.2.3.2.7.5.9.7.2.2-1.1-.3-1.4-.5-.3-.2-1.1-.7-2-1.2-.8-.5-1.2-.8-.8-.5.4.4 1.7 1.5 1.7 1.5s1.1.9 1.4 1.1c.3.3 1.5.8 2 1.2.5.4 1.3 1 1.3 1.1-.1.1.5.3-.3 0s-1.2-.4-1-.1c.3.3.8 1 1.1 1.4.3.4.2.5.3.7.1.1-.1 0-.4.1-.3 0-.5-.1-.5.2 0 .3.3.2 0 .3l-.2.1c.2.3.3.4.4.7 0 0 1.4 1.2 1.8 1.5.4.2 1.2.4 1.6.9.4.4 1.2 1.3 1.2 1.3s.2.3.1.6-.2.3.3.8c.4.5 1.3 1.3 1.6 1.7.3.4.7.9.7 1.2.1.3-.2.4 0 .8.1.3.1.9.1.9s-1-1.2-1.2-1.5c-.1-.3 0-.4-.8-.9-.7-.5-1.2-.7-1.6-1.1s-1.9-1.4-2-1.5c-.1-.2-.5-.7-.9-1.3-.4-.6-.5-.8-.8-1.3-.3-.5-.6-.5-.8-1.3-.3-.7-.7-1.4-.7-1.5-.1-.1.1-.4-.7-1.1-.8-.7-.2-.6-1.4-1.4-1.3-.8-1.8-1.4-1.2-.6.6.8 1.5 1.9 1.6 2.1.1.1.8.6 1.1.8.4.3.4.3-.9-.5s-1.7-1-1.9-1.2c-.2-.1-.2-.1-.6-.4-.7-.6-.1 0 .2.6.3.6.3.9.8 1.2.5.4 1.7 1 1.9 1.3.3.3-.5.4-.6.5-.2.1 1.1 1-.5.1-.8-.5-1.4-.9-1.9-1.2-.5-.3-.7-.5-.7-.5s-.2.6-.3.7c-.1.1-.9.3-1.1.2-.2 0-.1.1-.3.5-.1.3-.3 1-.1 1.5.2.5.8 1.7 1.3 2.1.4.5 1.1.8 1.1.8s-.5-.4.5 0 1.7.9 1.7.9c.5.6.7.9 1.1 1.4 0 0 1.8 1.3 1.9 1.6.1.3 1.1 1.6 1.2 1.8.1.2.3.7.2 1.1 0 .4.2 1 .2 1s.1.3.2.5.3.6.3 1c.1.4.4 1.2.4 1.2s1.5.8-.2.3c-1.7-.6-1.4-.9-1.7-.6-.2.3-.4.5.3 1.5.6 1 1 1.5 1 1.5-.3.3-.2 1.2 0 1.3.2.1 1.6 1 1.7 1.3.1.2-.6 1-1.1 1.1-.5.1-.2 1.3-1.2-.1-1-1.4-.7-1.4-1.3-2.1l-1.2-1.4s-.1-.7-.5-.4c-.5.3 0 1.1-.6.8-.6-.3-1.7-1.7-1.7-1.7s-.8 1-.7 1.4c.1.4 1.3 1.2 1.6 1.4.3.1.8-.9.9-.2.2.7.1 2.1.1 2.1s.6.8.8 1.1c.3.3 1.3.8 1.3.8.6.7.9 1.1 1.5 1.8 0 0 .1.5.1.8 0 .3-.1.5-.2.9s-.6 1.5-.6 1.8c-.1.2-.5.6-.9 1.1-.4.5-.3.5-1.1.7-.9.2-1.7.3-1.9.4-.2.1.4.6-.5.7-.9.1-1.4-.6-2.2.2-.4.4-.9.9-1.3 1.2-.4.4-.6.7-.4.7.4.1.7-.9 1.1 0 .2.5 1 .9 1.7 1.2s1.4.5 1.4.5c-.3.7-.4 1-.7 1.7 0 0-.2.3-.3.7 0 .4.2.5-.2 1-.4.4-.9.9-1.2 1.1-.3.2-.2 1.1-.9.4-.7-.7-1.1-1.3-1.1-1.5 0-.2-1.8-1.4-1.8-1.4s-.3.8-.4 1c0 .2-.2 1.1.2 1.4.4.4 1.1.4 1.2.8s.7.2.8 1.3c.1 1.2-.1 1.8-.1 2 0 .2-.2 1-.2 1s-1.9-.5-1.8-.8c0-.3.2-.2-.1-1.1-.3-.9-.3-.7-.5-1.2s-.4-2.1-.4-2.2c0-.2.4.1.2-1.1l-.3-1.2s-1-.4-.9-.9c.1-.4-.4-1.3-.4-1.3s-.2.6-.8.7c-.7.1-1.1-.7-1-1 0-.3 1 .2-.3-1.3-1.4-1.5-.9-1.4-1.8-1.7-1.5.1-2.8 1.3-2.8 1.3zm-32.9-15.9c-.4-.2-.8-.4-1.1-.8-.3-.4-.6-.9-.6-1.6-.1-1.4-.2-1.3-1.3-.7s-.5.9-1.1 1.6c-.6.6-1.2-1.1-2.2-1.1-.5 0-.8.3-.9.8-.1.5-.1 1.3-.1 2.2s1 1.3 2 1.5c1 .2 2 .1 2 .1s-1.1 0 0-.7c1-.7.5 0 1.4.8.4.4.9.3 1.5.1s1.1-.5 1.6-.6c.7-.3-.5-1.3-1.2-1.6z"/><path class="st18" d="M201 107.7c-10.5 19.8-26 39.4-45.9 56.5-16.5 14.2-34.3 25.2-52 32.7 12 12.3 28.8 19.9 47.4 19.9 36.6 0 66.3-29.7 66.3-66.2 0-16.4-6-31.4-15.8-42.9z"/><path class="st19" d="M95.2 119.8c-2.2.1-4 1.4-4.8 3.3-.7-.6-1.7-1-2.7-1-1.9 0-3.6 1.3-4.1 3.1-.4-.1-.7-.1-1.1 0-1 .2-1.9 1.1-2.1 2.1-.4 1.8 1 3.3 2.7 3.3h12.3c3 0 5.4-2.5 5.4-5.5-.2-3-2.7-5.4-5.6-5.3z"/><g class="st20"><path class="st19" d="M201.6 134.6c1.8 0 3.3 1.2 4 2.7.6-.5 1.4-.8 2.3-.8 1.6 0 3 1.1 3.4 2.5.3-.1.6-.1.9 0 .9.2 1.6.9 1.7 1.7.3 1.5-.8 2.7-2.2 2.7h-10.2c-2.5 0-4.5-2.1-4.5-4.6.1-2.3 2.2-4.2 4.6-4.2z"/></g><g class="st21"><path class="st18" d="M106.1 128.1c-2.8.1-5.1 1.8-6.2 4.2-.9-.8-2.2-1.3-3.5-1.3-2.5 0-4.6 1.7-5.2 3.9-.5-.1-.9-.1-1.4 0-1.3.3-2.4 1.4-2.7 2.7-.5 2.2 1.3 4.2 3.4 4.2h15.8c3.9 0 7-3.2 6.9-7.1-.1-3.6-3.3-6.7-7.1-6.6z"/></g><ellipse class="st22" cx="253.7" cy="243.8" rx="13.1" ry="13.1"/><path class="st23" d="M263.7 235.3c-2.1 3.9-5.1 7.8-9 11.1-3.3 2.8-6.8 5-10.3 6.4 2.4 2.4 5.7 3.9 9.3 3.9 7.2 0 13.1-5.8 13.1-13.1 0-3-1.2-6-3.1-8.3z"/><g class="st24"><circle class="st22" cx="247.1" cy="237.7" r="1.3"/><ellipse class="st22" cx="256.2" cy="239.2" rx="2.2" ry="2.2"/><circle class="st22" cx="250.5" cy="242.8" r=".6"/><circle class="st22" cx="254" cy="234.1" r=".6"/><circle class="st22" cx="245.4" cy="246.1" r="1"/></g><path class="st25" d="M117.7 208.7c-.5.2-.9.4-1.4.6"/><path class="st26" d="M113.6 210.5c-15.1 6.4-27 7.4-32.2 1.6-10.9-12.2 11.3-49.6 49.4-83.6 38.2-34 77.9-51.7 88.8-39.5 5.4 6.1 2.6 18.5-6.3 33.6"/><path class="st25" d="M212.5 123.9c-.3.4-.5.8-.8 1.3"/><path class="st27" d="M109.4 153.6c-12.3 8.8-28.5 23.3-28.5 23.3s13.6-15.4 23.3-28.5c1.5-2.1 5.8-.5 5.8-.5s1.5 4.2-.6 5.7z"/><path class="st28" d="M109.6 153.3c-1.8 1.8-11.1 5.8-11.1 5.8s4-9.3 5.8-11.1c1.8-1.8 5.8-.5 5.8-.5s1.3 4-.5 5.8z"/><path class="st29" d="M109.9 151.9c-1.3 1.3-8.2 4.1-8.2 4.1s2.8-6.9 4.1-8.2c1.3-1.3 4.4-.2 4.4-.2s1 3-.3 4.3z"/><path class="st30" d="M110.2 150.9c-.8.8-5.2 1.8-5.2 1.8s1.1-4.5 1.8-5.2c.8-.8 3.3.1 3.3.1s.9 2.5.1 3.3z"/><g class="st31"><path class="st32" d="M93.8 143.7l-6.5 6.5m6.4-4.3l-13.2 13.2m59.3-21.1l-11.3 11.2m14.6-16.7l-9.5 9.5"/></g><path class="st33" d="M111.8 137.3l-4.4-.4c-1.6-.1-3.2.7-4 2.1l-3.7 6.2.4.4 2.8-2.1c1.4-1.1 3.4-1.2 4.9-.2l3.1-3.1.9-2.9z"/><path class="st34" d="M120.4 145.9l.4 4.4c.1 1.6-.7 3.2-2.1 4l-6.2 3.7-.4-.4 2.1-2.8c1.1-1.4 1.2-3.4.2-4.9l3.1-3.1 2.9-.9z"/><path class="st35" d="M112.6 151.2l-6.1-6.1.9-1.6c5.2-9.1 13.8-15.8 23.9-18.6l2.2-.6-.6 2.2c-2.8 10.1-9.5 18.6-18.6 23.8l-1.7.9z"/><ellipse transform="rotate(-45.025 124.925 128.03)" class="st36" cx="124.9" cy="128" rx=".1" ry=".1"/><ellipse transform="rotate(-45.025 125.832 128.735)" class="st36" cx="125.8" cy="128.7" rx=".1" ry=".1"/><ellipse transform="rotate(-45.033 126.701 129.482)" class="st36" cx="126.7" cy="129.5" rx=".1" ry=".1"/><ellipse transform="rotate(-45.033 127.53 130.27)" class="st36" cx="127.5" cy="130.3" rx=".1" ry=".1"/><ellipse transform="rotate(-45.033 128.32 131.099)" class="st36" cx="128.3" cy="131.1" rx=".1" ry=".1"/><ellipse transform="rotate(-45.041 129.07 131.967)" class="st36" cx="129.1" cy="132" rx=".1" ry=".1"/><ellipse transform="rotate(-45.041 129.775 132.871)" class="st36" cx="129.8" cy="132.9" rx=".1" ry=".1"/><path class="st33" d="M130.4 132.9c1-2 1.8-4.2 2.4-6.4l.6-2.2-2.2.6c-2.2.6-4.3 1.4-6.4 2.4l.3.2c2.1 1.5 3.9 3.3 5.3 5.4z"/><path class="st37" d="M107.4 143.5l-1 1.7 6.1 6.1 1.6-.9h.1l-6.8-6.9z"/><path class="st34" d="M106.7 145.4l-.1.4c-.1.3 0 .6.2.7l4.3 4.3c.2.2.5.3.7.2l.4-.1-5.5-5.5z"/><ellipse transform="rotate(-45.033 107.923 143.42)" class="st36" cx="107.9" cy="143.4" rx=".1" ry=".1"/><ellipse transform="rotate(-45.033 108.73 144.226)" class="st36" cx="108.7" cy="144.2" rx=".1" ry=".1"/><ellipse transform="rotate(-45.033 109.534 145.03)" class="st36" cx="109.5" cy="145" rx=".1" ry=".1"/><ellipse transform="rotate(-45.041 110.342 145.836)" class="st36" cx="110.3" cy="145.8" rx=".1" ry=".1"/><ellipse transform="rotate(-45.033 111.143 146.638)" class="st36" cx="111.2" cy="146.6" rx=".1" ry=".1"/><ellipse transform="rotate(-45.033 111.95 147.443)" class="st36" cx="112" cy="147.4" rx=".1" ry=".1"/><ellipse transform="rotate(-45.033 112.755 148.248)" class="st36" cx="112.8" cy="148.3" rx=".1" ry=".1"/><ellipse transform="rotate(-45.041 113.564 149.054)" class="st36" cx="113.6" cy="149.1" rx=".1" ry=".1"/><ellipse transform="rotate(-45.033 114.366 149.857)" class="st36" cx="114.4" cy="149.9" rx=".1" ry=".1"/><ellipse transform="rotate(-45.033 121.314 136.396)" class="st38" cx="121.3" cy="136.4" rx="3.4" ry="3.4"/><ellipse transform="rotate(-45.033 121.311 136.394)" class="st39" cx="121.3" cy="136.4" rx="2.8" ry="2.8"/><ellipse transform="rotate(-45.033 121.311 136.394)" class="st39" cx="121.3" cy="136.4" rx="2.8" ry="2.8"/><ellipse transform="rotate(-45.033 121.311 136.394)" class="st40" cx="121.3" cy="136.4" rx="2.8" ry="2.8"/><ellipse transform="rotate(-45.033 121.294 136.634)" class="st39" cx="121.3" cy="136.6" rx="2.5" ry="2.5"/><path class="st41" d="M119.8 135.9h2.7m-3 .8h3.7"/><ellipse transform="rotate(-45.033 123.99 133.724)" class="st36" cx="124" cy="133.7" rx=".1" ry=".1"/><ellipse transform="rotate(-45.033 124.624 134.566)" class="st36" cx="124.6" cy="134.6" rx=".1" ry=".1"/><ellipse transform="rotate(-45.041 124.996 135.519)" class="st36" cx="125" cy="135.5" rx=".1" ry=".1"/><ellipse transform="rotate(-45.033 125.093 136.519)" class="st36" cx="125.1" cy="136.5" rx=".1" ry=".1"/><ellipse transform="rotate(-45.033 124.926 137.513)" class="st36" cx="124.9" cy="137.5" rx=".1" ry=".1"/><ellipse transform="rotate(-45.033 124.49 138.442)" class="st36" cx="124.5" cy="138.4" rx=".1" ry=".1"/><ellipse transform="rotate(-45.033 123.79 139.246)" class="st36" cx="123.8" cy="139.2" rx=".1" ry=".1"/><ellipse transform="rotate(-45.033 122.913 139.814)" class="st36" cx="122.9" cy="139.8" rx=".1" ry=".1"/><ellipse transform="rotate(-45.033 121.944 140.115)" class="st36" cx="122" cy="140.1" rx=".1" ry=".1"/><ellipse transform="rotate(-45.033 120.938 140.149)" class="st36" cx="120.9" cy="140.2" rx=".1" ry=".1"/><ellipse transform="rotate(-45.033 119.952 139.914)" class="st36" cx="120" cy="139.9" rx=".1" ry=".1"/><ellipse transform="rotate(-45.033 119.048 139.413)" class="st36" cx="119.1" cy="139.4" rx=".1" ry=".1"/><ellipse transform="rotate(-45.025 118.288 138.656)" class="st36" cx="118.3" cy="138.7" rx=".1" ry=".1"/><ellipse transform="rotate(-45.041 117.794 137.755)" class="st36" cx="117.8" cy="137.8" rx=".1" ry=".1"/><ellipse transform="rotate(-45.033 117.556 136.77)" class="st36" cx="117.6" cy="136.8" rx=".1" ry=".1"/><ellipse transform="rotate(-45.033 117.59 135.764)" class="st36" cx="117.6" cy="135.8" rx=".1" ry=".1"/><ellipse transform="rotate(-45.025 117.887 134.794)" class="st36" cx="117.9" cy="134.8" rx=".1" ry=".1"/><ellipse transform="rotate(-45.041 118.463 133.922)" class="st36" cx="118.5" cy="133.9" rx=".1" ry=".1"/><ellipse transform="rotate(-45.033 119.264 133.221)" class="st36" cx="119.3" cy="133.2" rx=".1" ry=".1"/><ellipse transform="rotate(-45.041 120.198 132.788)" class="st36" cx="120.2" cy="132.8" rx=".1" ry=".1"/><ellipse transform="rotate(-45.025 121.186 132.618)" class="st36" cx="121.2" cy="132.6" rx=".1" ry=".1"/><ellipse transform="rotate(-45.033 122.193 132.72)" class="st36" cx="122.2" cy="132.7" rx=".1" ry=".1"/><ellipse transform="rotate(-45.033 123.145 133.088)" class="st36" cx="123.2" cy="133.1" rx=".1" ry=".1"/><ellipse transform="rotate(-45.033 123.99 133.724)" class="st36" cx="124" cy="133.7" rx=".1" ry=".1"/><path class="st35" d="M116.1 149.2c8.1-5.3 14.1-13.3 16.7-22.7l.6-2.2c-3.9 9-9.8 17.3-17.8 23.2-.2-1.2-.2-2.4 0-3.6l.4-2-6.3 6.5 1.8 1.8 1.1 1.1 1.6-.9c.6-.4 1.2-.8 1.9-1.2z"/><path class="st33" d="M105.9 151.5l9.3-9.6c.3-.4.7-.4.8-.2.2.2.1.5-.2.8l-9.7 9.3-.2-.3z"/><path class="st42" d="M62.5 64.3l7.9-.9-7.1-3.7 4.5-4.5-5.8.7 1-3.7-4.7 1.3.7-8.9-4.3 8-2.7-3.7-1.4 4.5-4.1-2 1 4.3s-6.8-.7-7-.8c-.2-.1 5.4 4.7 5.4 4.7l-5.8 2.6 5.7 1.8-3.7 5.3 6.1-1.4 1.4 3.6 2.9-1.4 3.2 5.5 1.8-5.4 3.6 2.4-.3-4.6 5.5.7-3.8-4.4z"/><circle class="st43" cx="54.5" cy="61.4" r="7.9"/><g class="st44"><path class="st45" d="M175.5 186.7l-1.5-1c-.2-.1-.4-.3-.5-.5l-.2-.2.4-.3c.3-.2.5-.4.7-.7l.6.3c.1 0 .2.1.3 0l.2-.1-.8-.7.1-.1c0-.1 0-.1-.1-.1l-.2.1-.4-.9-.2.2c-.1.1-.1.2-.1.3l.2.7c-.3.1-.6.3-.8.5l-.4.3-.2-.2c-.1-.2-.3-.4-.3-.6l-.6-1.7h-.1l-.3.3.1.8c-.1 0-.2.1-.3.2l-.1.1.2.2.1-.1.1-.1.1.8c-.1 0-.2.1-.3.1l-.1.1.2.2.1-.1.1-.1.1.8-.9.7c-.3.2-.6.5-.8.8l-.2.3s0 .1.1.1l.4-.1c.4-.1.7-.3 1-.5l.9-.7.7.3s-.1 0-.1.1l-.1.1.2.2.1-.1.2-.2.8.3c-.1 0-.1.1-.2.1l-.1.1.2.2.1-.1c.1-.1.2-.2.2-.3l.7.3.7-.1c0 .1 0 .1 0 0z"/><g class="st46"><defs><filter id="Adobe_OpacityMaskFilter_2_" filterUnits="userSpaceOnUse" x="176.8" y="153" width="31.7" height="31.7"><feFlood result="back" flood-color="#fff" flood-opacity="1"/><feBlend in="SourceGraphic" in2="back"/></filter></defs><mask maskUnits="userSpaceOnUse" x="176.8" y="153" width="31.7" height="31.7" id="SVGID_6_"><g class="st47"><defs><filter id="Adobe_OpacityMaskFilter_3_" filterUnits="userSpaceOnUse" x="176.6" y="152.7" width="31.5" height="31.7"><feFlood result="back" flood-color="#fff" flood-opacity="1"/><feBlend in="SourceGraphic" in2="back"/></filter></defs><linearGradient id="SVGID_7_" gradientUnits="userSpaceOnUse" x1="52.707" y1="363.414" x2="97.271" y2="363.414" gradientTransform="rotate(134.943 174.132 290.358)"><stop offset="0"/><stop offset=".719" stop-color="#f7f7f7"/><stop offset=".755" stop-color="#f3f3f3"/><stop offset=".791" stop-color="#e7e7e7"/><stop offset=".827" stop-color="#d3d3d3"/><stop offset=".863" stop-color="#b6b6b6"/><stop offset=".899" stop-color="#929292"/><stop offset=".935" stop-color="#656565"/><stop offset=".97" stop-color="#313131"/><stop offset="1"/></linearGradient><path class="st49" d="M208.1 152.7c-5 6-10.8 10.8-16.1 16.4l-.6.6c-1.1 1.1-11.2 11.3-12.3 12.3l-.7.7-1.6 1.6-.1-.1 1.6-1.6.7-.7 12.3-12.3.6-.6c5.3-5.4 10.9-10.6 16.1-16.1 0-.1.1-.2.1-.2z"/></g></mask><linearGradient id="SVGID_8_" gradientUnits="userSpaceOnUse" x1="52.66" y1="362.187" x2="97.425" y2="362.187" gradientTransform="rotate(134.943 174.132 290.358)"><stop offset="0" stop-color="#fff"/><stop offset=".719" stop-color="#fff"/><stop offset="1" stop-color="#fff"/></linearGradient><path class="st50" d="M208.4 153c-8.3 12.5-19.7 22.7-31.7 31.7 11.4-9.6 23.3-19.1 31.5-31.5l.2-.2z"/><defs><filter id="Adobe_OpacityMaskFilter_4_" filterUnits="userSpaceOnUse" x="176.2" y="152.1" width="31.6" height="31.9"><feFlood result="back" flood-color="#fff" flood-opacity="1"/><feBlend in="SourceGraphic" in2="back"/></filter></defs><mask maskUnits="userSpaceOnUse" x="176.2" y="152.1" width="31.6" height="31.9" id="SVGID_9_"><g class="st51"><defs><filter id="Adobe_OpacityMaskFilter_5_" filterUnits="userSpaceOnUse" x="175.9" y="151.9" width="31.6" height="31.8"><feFlood result="back" flood-color="#fff" flood-opacity="1"/><feBlend in="SourceGraphic" in2="back"/></filter></defs><linearGradient id="SVGID_10_" gradientUnits="userSpaceOnUse" x1="52.561" y1="364.44" x2="97.271" y2="364.44" gradientTransform="rotate(134.943 174.132 290.358)"><stop offset="0"/><stop offset=".719" stop-color="#f7f7f7"/><stop offset=".755" stop-color="#f3f3f3"/><stop offset=".791" stop-color="#e7e7e7"/><stop offset=".827" stop-color="#d3d3d3"/><stop offset=".863" stop-color="#b6b6b6"/><stop offset=".899" stop-color="#929292"/><stop offset=".935" stop-color="#656565"/><stop offset=".97" stop-color="#313131"/><stop offset="1"/></linearGradient><path class="st53" d="M207.5 151.9c-4.8 6.1-11 10.9-16.2 16.5-.2.2-.4.4-.7.6-1.1 1.1-11.3 11.2-12.3 12.3l-.7.7-1.6 1.6-.1-.1 1.6-1.6.7-.7 12.3-12.3.7-.7c5.3-5.5 11.1-10.5 16.2-16.2 0-.1.1-.1.1-.1z"/></g></mask><linearGradient id="SVGID_11_" gradientUnits="userSpaceOnUse" x1="52.512" y1="363.354" x2="97.425" y2="363.354" gradientTransform="rotate(134.943 174.132 290.358)"><stop offset="0" stop-color="#fff"/><stop offset=".719" stop-color="#fff"/><stop offset="1" stop-color="#fff"/></linearGradient><path class="st54" d="M207.8 152.1c-8.9 12.2-19.7 22.3-31.6 31.9 11.4-9.6 22.7-19.1 31.5-31.8.1 0 .1-.1.1-.1z"/><defs><filter id="Adobe_OpacityMaskFilter_6_" filterUnits="userSpaceOnUse" x="174.4" y="150.6" width="31.5" height="31.7"><feFlood result="back" flood-color="#fff" flood-opacity="1"/><feBlend in="SourceGraphic" in2="back"/></filter></defs><mask maskUnits="userSpaceOnUse" x="174.4" y="150.6" width="31.5" height="31.7" id="SVGID_12_"><g class="st55"><defs><filter id="Adobe_OpacityMaskFilter_7_" filterUnits="userSpaceOnUse" x="174.1" y="150.3" width="31.4" height="31.6"><feFlood result="back" flood-color="#fff" flood-opacity="1"/><feBlend in="SourceGraphic" in2="back"/></filter></defs><linearGradient id="SVGID_13_" gradientUnits="userSpaceOnUse" x1="52.779" y1="366.894" x2="97.272" y2="366.894" gradientTransform="rotate(134.943 174.132 290.358)"><stop offset="0"/><stop offset=".719" stop-color="#f7f7f7"/><stop offset=".755" stop-color="#f3f3f3"/><stop offset=".791" stop-color="#e7e7e7"/><stop offset=".827" stop-color="#d3d3d3"/><stop offset=".863" stop-color="#b6b6b6"/><stop offset=".899" stop-color="#929292"/><stop offset=".935" stop-color="#656565"/><stop offset=".97" stop-color="#313131"/><stop offset="1"/></linearGradient><path class="st57" d="M205.6 150.3c-4.8 5.9-10.8 10.7-16 16.4-.2.2-.4.4-.7.6-1.1 1.1-11.3 11.2-12.3 12.3l-.7.7-1.6 1.6-.1-.1 1.6-1.6.7-.7 12.3-12.3.6-.6c5.3-5.4 10.9-10.4 16-16 .1-.3.2-.3.2-.3z"/></g></mask><linearGradient id="SVGID_14_" gradientUnits="userSpaceOnUse" x1="52.722" y1="365.596" x2="97.423" y2="365.596" gradientTransform="rotate(134.943 174.132 290.358)"><stop offset="0" stop-color="#fff"/><stop offset=".719" stop-color="#fff"/><stop offset="1" stop-color="#fff"/></linearGradient><path class="st58" d="M205.9 150.6c-8.2 12.5-19.6 22.7-31.5 31.7 11.4-9.6 23.3-19.1 31.4-31.5l.1-.2z"/><defs><filter id="Adobe_OpacityMaskFilter_8_" filterUnits="userSpaceOnUse" x="173.8" y="150" width="31.7" height="31.1"><feFlood result="back" flood-color="#fff" flood-opacity="1"/><feBlend in="SourceGraphic" in2="back"/></filter></defs><mask maskUnits="userSpaceOnUse" x="173.8" y="150" width="31.7" height="31.1" id="SVGID_15_"><g class="st59"><defs><filter id="Adobe_OpacityMaskFilter_9_" filterUnits="userSpaceOnUse" x="173.4" y="149.7" width="31.5" height="31.5"><feFlood result="back" flood-color="#fff" flood-opacity="1"/><feBlend in="SourceGraphic" in2="back"/></filter></defs><linearGradient id="SVGID_16_" gradientUnits="userSpaceOnUse" x1="52.924" y1="367.988" x2="97.273" y2="367.988" gradientTransform="rotate(134.943 174.132 290.358)"><stop offset="0"/><stop offset=".719" stop-color="#f7f7f7"/><stop offset=".755" stop-color="#f3f3f3"/><stop offset=".791" stop-color="#e7e7e7"/><stop offset=".827" stop-color="#d3d3d3"/><stop offset=".863" stop-color="#b6b6b6"/><stop offset=".899" stop-color="#929292"/><stop offset=".935" stop-color="#656565"/><stop offset=".97" stop-color="#313131"/><stop offset="1"/></linearGradient><path class="st61" d="M204.7 149.7c0 .1.1 0 .2.1-5.2 5.5-10.7 10.7-16.1 16.1l-.6.6c-1.1 1.1-11.2 11.3-12.3 12.3l-.7.7-1.6 1.6-.1-.1 1.6-1.6.7-.7 12.1-12.1.6-.6c5.3-5.5 10.9-10.7 16.1-16.2l.1-.1z"/></g></mask><linearGradient id="SVGID_17_" gradientUnits="userSpaceOnUse" x1="52.615" y1="366.798" x2="97" y2="366.798" gradientTransform="rotate(134.943 174.132 290.358)"><stop offset="0" stop-color="#fff"/><stop offset=".719" stop-color="#fff"/><stop offset="1" stop-color="#fff"/></linearGradient><path class="st62" d="M205.5 150c-.2 0 0 0 0 0-8.4 11.9-19.7 22.1-31.7 31.1 11.4-9 23-18.4 31.4-30.7.1-.2.3-.4.3-.4z"/></g></g><path class="st19" d="M130.6 177.6c-1.9 0-3.4 1.1-4.1 2.7-.6-.5-1.4-.8-2.3-.8-1.9 0-3.5 1.6-3.5 3.5s1.6 3.5 3.5 3.5h6.4c2.5 0 4.5-2 4.5-4.5 0-2.4-2-4.4-4.5-4.4z"/></svg>